<svg xmlns="http://www.w3.org/2000/svg" width="512" height="468" viewBox="0 0 512 468">
  <metadata><?xpacket begin="﻿" id="W5M0MpCehiHzreSzNTczkc9d"?>
<x:xmpmeta xmlns:x="adobe:ns:meta/" x:xmptk="Adobe XMP Core 5.6-c138 79.159824, 2016/09/14-01:09:01        ">
   <rdf:RDF xmlns:rdf="http://www.w3.org/1999/02/22-rdf-syntax-ns#">
      <rdf:Description rdf:about=""/>
   </rdf:RDF>
</x:xmpmeta>
                                                                                                    
                                                                                                    
                                                                                                    
                                                                                                    
                                                                                                    
                                                                                                    
                                                                                                    
                                                                                                    
                                                                                                    
                                                                                                    
                                                                                                    
                                                                                                    
                                                                                                    
                                                                                                    
                                                                                                    
                                                                                                    
                                                                                                    
                                                                                                    
                                                                                                    
                                                                                                    
                           
<?xpacket end="w"?></metadata>
<defs>
    <style>
      .cls-1 {
        fill-rule: evenodd;
      }
    </style>
  </defs>
  <path class="cls-1" d="M507.509,56.094C475.215,21.493,423.624,0,372.87,0A177.243,177.243,0,0,0,256,44.247,177.241,177.241,0,0,0,139.13,0C88.375,0,36.785,21.494,4.491,56.094A16.7,16.7,0,0,0,0,67.487V451.54c0,15.1,18.572,22.46,28.9,11.393,25.79-27.629,69.059-45.485,110.23-45.485A143.663,143.663,0,0,1,243.8,462.933a16.738,16.738,0,0,0,24.409,0,143.661,143.661,0,0,1,104.665-45.485c41.171,0,84.44,17.855,110.23,45.485,10.276,11.012,28.9,3.8,28.9-11.393V67.487A16.687,16.687,0,0,0,507.509,56.094ZM239.3,415.264a177.169,177.169,0,0,0-100.174-31.21,194.753,194.753,0,0,0-105.739,31.81V74.335C59.526,49.307,100.263,33.4,139.13,33.4A143.7,143.7,0,0,1,239.3,74.283V415.264h0Zm239.3,0.6a194.758,194.758,0,0,0-105.739-31.81A177.17,177.17,0,0,0,272.7,415.281V74.3A143.7,143.7,0,0,1,372.87,33.4c38.867,0,79.6,15.912,105.739,40.939v341.53ZM189.217,100.883H89.044a16.7,16.7,0,0,0,0,33.4H189.218A16.7,16.7,0,0,0,189.217,100.883Zm0,66.791H89.044a16.7,16.7,0,0,0,0,33.4H189.218A16.7,16.7,0,0,0,189.217,167.674Zm0,66.792H89.044a16.7,16.7,0,0,0,0,33.4H189.218A16.7,16.7,0,0,0,189.217,234.466Zm0,66.792H89.044a16.7,16.7,0,0,0,0,33.4H189.218A16.7,16.7,0,0,0,189.217,301.258Zm233.74-200.375H322.783a16.7,16.7,0,0,0,0,33.4H422.957A16.7,16.7,0,0,0,422.957,100.883Zm0,66.791H322.783a16.7,16.7,0,0,0,0,33.4H422.957A16.7,16.7,0,0,0,422.957,167.674Zm0,66.792H322.783a16.7,16.7,0,0,0,0,33.4H422.957A16.7,16.7,0,0,0,422.957,234.466Zm0,66.792H322.783a16.7,16.7,0,0,0,0,33.4H422.957A16.7,16.7,0,0,0,422.957,301.258Z"/>
</svg>
