<svg xmlns="http://www.w3.org/2000/svg" width="436" height="549" viewBox="0 0 436 549">
  <metadata><?xpacket begin="﻿" id="W5M0MpCehiHzreSzNTczkc9d"?>
<x:xmpmeta xmlns:x="adobe:ns:meta/" x:xmptk="Adobe XMP Core 5.6-c138 79.159824, 2016/09/14-01:09:01        ">
   <rdf:RDF xmlns:rdf="http://www.w3.org/1999/02/22-rdf-syntax-ns#">
      <rdf:Description rdf:about=""/>
   </rdf:RDF>
</x:xmpmeta>
                                                                                                    
                                                                                                    
                                                                                                    
                                                                                                    
                                                                                                    
                                                                                                    
                                                                                                    
                                                                                                    
                                                                                                    
                                                                                                    
                                                                                                    
                                                                                                    
                                                                                                    
                                                                                                    
                                                                                                    
                                                                                                    
                                                                                                    
                                                                                                    
                                                                                                    
                                                                                                    
                           
<?xpacket end="w"?></metadata>
<defs>
    <style>
      .cls-1 {
        fill-rule: evenodd;
      }
    </style>
  </defs>
  <path id="Forma_1" data-name="Forma 1" class="cls-1" d="M13.742,441.855A19.345,19.345,0,0,0,0,460.345v69.218A19.222,19.222,0,0,0,19.429,549H416.57A19.223,19.223,0,0,0,436,529.563V460.345a19.345,19.345,0,0,0-13.744-18.49c-6.635-74.433-53.078-137.013-117.531-167.355,64.453-30.342,110.9-92.923,117.531-167.356A19.343,19.343,0,0,0,436,88.655V19.437A19.222,19.222,0,0,0,416.57,0H19.429A19.222,19.222,0,0,0,0,19.437V88.655a19.343,19.343,0,0,0,13.744,18.489C20.377,181.577,66.821,244.158,131.273,274.5A204.533,204.533,0,0,0,13.742,441.855Zm383.4,68.27H38.86V479.783H396.666v30.342h0.474ZM38.86,38.875H396.666V69.217H38.86V38.875ZM52.6,108.093H382.922c-9.478,82.492-80.091,146.969-165.4,146.969S62.556,190.585,52.6,108.093ZM218,293.938c85.3,0,155.444,64.477,165.4,146.969H52.6C62.556,358.415,132.7,293.938,218,293.938Z"/>
</svg>
