<svg id="MOBIOS" xmlns="http://www.w3.org/2000/svg" viewBox="0 0 366.1 123.35"><defs><style>.cls-1{fill:#00b2d9;}.cls-1,.cls-2{stroke:#000;stroke-miterlimit:10;stroke-width:0.5px;}.cls-2{fill:#fff;}.cls-3{fill:#1f1a17;}</style></defs><title>logo</title><path id="M" class="cls-1" d="M.3,47V32.2c0-1.2,0-1.2,1-.6,5.5,2.9,11,5.7,16.6,8.6a.9.9,0,0,1,.6.6c3.2,5.2,6.4,10.4,9.6,15.7.3.4.4.5.8.1,2-1.7,3.9-3.4,5.9-5.1a.92.92,0,0,1,1-.2,32.51,32.51,0,0,1,4.3,1.8,84.71,84.71,0,0,1,11.3,6.5c1.9,1.3,1.9,1.3,1.9,3.7v59.8H53a13.39,13.39,0,0,1-3.7-1.6c-2.9-1.5-5.7-3.1-8.5-4.7a38.23,38.23,0,0,1-4.9-3.3,2.77,2.77,0,0,1-1-2c-.1-6.5-.1-12.9-.1-19.4,0-1.2-.1-2.4-.1-3.5,0-.5-.1-.6-.5-.3-2.3,1.4-4.6,2.8-6.8,4.1-1,.6-1,.6-1.6-.4-2.3-4-4.7-8-7-11.9l-.3-.6v23.3c0,1.1-.2,1.2-1.2.8a24.87,24.87,0,0,1-2.8-1.5,69.48,69.48,0,0,0-6.6-3.6,35.52,35.52,0,0,1-7-4.3,2.18,2.18,0,0,1-.7-.9V83.4a1.27,1.27,0,0,0,.1-.6V52.3C.3,50.6.3,48.8.3,47Z" transform="translate(0.05 0)"/><path id="M-2" data-name="M" class="cls-1" d="M129.1,58.8V45.9a17,17,0,0,1,3.8-10.6,18.61,18.61,0,0,1,25.9-3.6c.3.3.5.3.9,0A17.29,17.29,0,0,1,170.8,28a19,19,0,0,1,15.5,7.9.63.63,0,0,1,0,.9,24.64,24.64,0,0,0-5.7,11.4,25.73,25.73,0,0,0-.3,8.3,24.26,24.26,0,0,0,5,12.3,20.1,20.1,0,0,0,3.8,3.9c.3.2.3.4.3.8-.5,2.4-3,4.5-5.5,5a6.91,6.91,0,0,1-7.9-5.2,9.85,9.85,0,0,1-.2-1.7V46.7a4.62,4.62,0,0,0-3-4.6,5.28,5.28,0,0,0-5.7,1.4,4.21,4.21,0,0,0-1,3V71.7a6.88,6.88,0,0,1-13.5,1.9,11,11,0,0,1-.2-1.8V46.6a4.74,4.74,0,0,0-3.7-4.8,4.85,4.85,0,0,0-5.9,4.1c0,.4-.1.9-.1,1.3V71.8a6.78,6.78,0,0,1-7.7,6.7,7.08,7.08,0,0,1-5.9-5.2,4.1,4.1,0,0,1-.1-1.1c.1-4.5.1-8.9.1-13.4Z" transform="translate(0.05 0)"/><path id="O" class="cls-1" d="M207.6,28c-13.8.2-25.4,10.9-25.3,25.3a24.85,24.85,0,0,0,25.2,25.2,25.24,25.24,0,0,0,25.3-25.2C232.9,39.5,221.4,27.8,207.6,28Zm-.1,37.2a12,12,0,0,1-11.6-11.8,11.61,11.61,0,0,1,11.6-11.6,11.7,11.7,0,1,1,0,23.4Z" transform="translate(0.05 0)"/><path id="B" class="cls-1" d="M276.6,48.2a23.27,23.27,0,0,0-8-13.8c-7.6-6.5-19-8.3-28.1-3.8-.4.2-.5.1-.5-.3v-6h0c0-2,.1-4,0-6A6.81,6.81,0,0,0,229.6,13a6.11,6.11,0,0,0-3.2,5.3c-.1,5.1,0,10.1,0,15.2a.71.71,0,0,0,.3.6,25.7,25.7,0,0,1,4.4,4.9,24.71,24.71,0,0,1,4.2,17.9,23.74,23.74,0,0,1-4,10.2c-.3.4-.2.6,0,1a26.87,26.87,0,0,0,5,5.1,24.86,24.86,0,0,0,18.9,5.3A23.84,23.84,0,0,0,268.7,72C275.6,65.5,278.2,57.5,276.6,48.2ZM251.9,65a11.78,11.78,0,0,1-11.8-11.6c0-6.5,6-11.8,11.7-11.7a12,12,0,0,1,11.7,11.7A11.8,11.8,0,0,1,251.9,65Z" transform="translate(0.05 0)"/><g id="I"><path class="cls-2" d="M287,40.4a41.31,41.31,0,0,0-.1-5,7.28,7.28,0,0,0-2.3-4.6,6,6,0,0,0-5.4-1.5,6.9,6.9,0,0,0-5.8,6.1c0,.4-.2.8.2,1.2a20.86,20.86,0,0,1,3.3,4.5,22.36,22.36,0,0,1,3,10,26.31,26.31,0,0,1-.5,7.9,33.48,33.48,0,0,1-1.9,5.3,31.14,31.14,0,0,1-3.5,5.4c-.2.2-.6.4-.6.8a20.18,20.18,0,0,0,.1,3.5,7.28,7.28,0,0,0,3,4.8,6.46,6.46,0,0,0,4.1,1,6.93,6.93,0,0,0,4.3-1.8,6.46,6.46,0,0,0,2.1-5.2V54.6C287,49.8,287.1,45.1,287,40.4Z" transform="translate(0.05 0)"/><path class="cls-2" d="M280,26.8a6.67,6.67,0,0,0,7-6.8,6.8,6.8,0,0,0-13.6-.3C273.3,24.1,276.4,26.5,280,26.8Z" transform="translate(0.05 0)"/></g><path id="O-2" data-name="O" class="cls-2" d="M333.4,49.4a25.45,25.45,0,0,0-1.9-6.1,23.39,23.39,0,0,0-3.4-5.4,25.68,25.68,0,0,0-5.4-5,24.64,24.64,0,0,0-7.7-3.6,25.27,25.27,0,0,0-5.5-.9,18.72,18.72,0,0,0-5.3.5,30.88,30.88,0,0,0-5.9,1.8,26.4,26.4,0,0,0-8.6,6.1,1.33,1.33,0,0,0-.3.8V69.7a2,2,0,0,0,.7,1.6,33.29,33.29,0,0,0,2.8,2.5,26.62,26.62,0,0,0,5.9,3.4,27.79,27.79,0,0,0,10,1.9,21.86,21.86,0,0,0,3.6-.3,25.74,25.74,0,0,0,7.3-2.2,26.22,26.22,0,0,0,5.4-3.5,23.77,23.77,0,0,0,4-4.4,32,32,0,0,0,2.9-5.1,23.48,23.48,0,0,0,1.9-7.8C333.8,53.6,333.7,51.5,333.4,49.4Zm-25,16.1a11.93,11.93,0,0,1-11.7-11.8,11.42,11.42,0,0,1,11.4-11.5,11.65,11.65,0,1,1,.3,23.3Z" transform="translate(0.05 0)"/><path id="S" class="cls-2" d="M365.8,64.9c-.2.7-.3,1.4-.5,2.1a14.92,14.92,0,0,1-3.3,6.2,18,18,0,0,1-4.9,3.8,14.66,14.66,0,0,1-5.4,1.6,16.2,16.2,0,0,1-2.2.1H329.6a6.27,6.27,0,0,1-3.7-1.4,7.52,7.52,0,0,1-1.5-1.6c-.2-.2-.2-.4.1-.6a27.08,27.08,0,0,0,4.6-3.6,20.66,20.66,0,0,0,3.8-5,.52.52,0,0,0,.2-.4c.3-1.1,1.1-1.1,2-1.1h14.2a2.39,2.39,0,0,0,2.3-1.1,3.28,3.28,0,0,0,0-2.9,2.25,2.25,0,0,0-2.1-1.2H338.9c-1,0-2-.2-3.1-.1a25.34,25.34,0,0,0,.7-8.2,22.91,22.91,0,0,0-2.3-8.4,27.15,27.15,0,0,0-4.5-6.7,37.06,37.06,0,0,0-2.9-2.7c-.2-.2-.2-.3-.1-.5a15.64,15.64,0,0,1,6.3-4.4,14.91,14.91,0,0,1,6.3-1h18a5.88,5.88,0,0,1,4.7,2.5,6.19,6.19,0,0,1,1.5,3.4,6,6,0,0,1-.8,4.1A7.22,7.22,0,0,1,359,41a4.67,4.67,0,0,1-1.7.3h-18a3.85,3.85,0,0,0-3,1.2,3,3,0,0,0,.5,3.8,3.6,3.6,0,0,0,2.2.7h10.5a16.37,16.37,0,0,1,5.4.7,16.84,16.84,0,0,1,4.2,2.2,19.17,19.17,0,0,1,5.4,6.6,10.32,10.32,0,0,1,1.1,3.9c0,.1,0,.1.1.2C365.8,62.2,365.8,63.5,365.8,64.9Z" transform="translate(0.05 0)"/><path id="O2" class="cls-2" d="M108.3,31.9c0-.6-.1-.7-.7-.5-1.4.6-2.7,1.2-4,1.9-3.2,1.7-6.4,3.5-9.5,5.3-2.6,1.5-5.3,3-7.9,4.5-2.4,1.4-4.9,2.8-7.4,4.1-1.5.8-2.9,1.5-4.4,2.3-3.5,1.9-7.1,3.8-10.5,5.8a76.22,76.22,0,0,0-7.7,4.8,2.36,2.36,0,0,0-1.1,2.1v60.9h.5a14,14,0,0,1,1.7-.9c1.7-.9,3.5-1.8,5.2-2.7,2.6-1.4,5.1-2.8,7.7-4.3,1.7-1,3.4-1.9,5.2-2.9,2.7-1.5,5.4-3.1,8.1-4.6,2.3-1.3,4.7-2.5,7.1-3.7,3-1.6,6-3.2,9-4.9a80,80,0,0,0,7.9-4.9,2,2,0,0,0,1-1.6C108.3,72.3,108.3,52.1,108.3,31.9ZM90.6,81.7c0,.5-.4.8-.8,1.1a40.48,40.48,0,0,1-4.3,2.9,90.07,90.07,0,0,1-8.7,4.6,30.9,30.9,0,0,1-3.2,1.4.6.6,0,0,1-.4.1V71.5a.67.67,0,0,1,.4-.7,12.81,12.81,0,0,0,2-1.1c2.9-1.5,5.8-3.1,8.7-4.6,1.9-1,3.7-2,5.6-3,.2-.1.3-.1.5-.2v.2c0,3.7.1,7.4.2,11.1,0,2,.1,4,.1,5.9C90.7,80,90.6,80.8,90.6,81.7Z" transform="translate(0.05 0)"/><path class="cls-3" d="M80.3,15.3c-.2-.1-.5-.1-.8-.2-1.4,0-2.7-.1-4.1-.1-.4,0-.5-.1-.5-.5,0-.6-.1-1.2-.1-1.8a.87.87,0,0,0-.5-.9C68.6,8.5,62.9,5.2,57.3,2,56.2,1.3,55,.7,53.9,0h-.1c-.7.4-1.4.7-2.1,1.1C40,7.3,28.4,13.8,16.8,20.3,11.9,23.1,7,25.8,2.2,28.8a2.41,2.41,0,0,0-.8.6c.5.3,1.1.5,1.5.7,4.1,2,8,4.2,12,6.4,10.7,5.9,21.3,12,32.1,17.8,2.2,1.2,4.5,2.4,6.8,3.4a1.28,1.28,0,0,0,1.2,0c16.7-9.2,33.4-18.3,50-27.5.1-.1.3-.1.4-.3C97.1,25,88.7,20.1,80.3,15.3ZM45.9,28.5a1.13,1.13,0,0,1-.8.1c-3.4-1.9-6.8-3.8-10.3-5.7,1.1-.6,2-1.1,3-1.6,2.4-1.3,4.7-2.5,7.1-3.8a.82.82,0,0,1,.7-.1l9.9,5.7.1.1c-1.1.6-2.1,1.1-3.1,1.7ZM76.8,34c-4,2.3-8,4.5-12.1,6.8a.72.72,0,0,1-.8.1c-4.2-2.4-8.5-4.7-12.9-7.1,1.2-.7,2.4-1.3,3.5-1.9l9-4.8c.3-.1.5-.2.8,0,4.1,2.1,8.3,4.3,12.4,6.4.1.1.2.1.4.2C77.1,33.8,76.9,33.9,76.8,34Z" transform="translate(0.05 0)"/><g id="WEB"><path class="cls-3" d="M128.5,95.6V92.3a1.7,1.7,0,1,1,3.4,0v6a1.36,1.36,0,0,0,.7,1.3,1.27,1.27,0,0,0,1.8-1.3V92.1c-.1-.9.6-1.5,1.6-1.7a1.56,1.56,0,0,1,1.7,1.4c0,.2.1.5.1.7v5.9a1.27,1.27,0,0,0,1.2,1.4,1.35,1.35,0,0,0,1.3-1.4V92.2a1.64,1.64,0,0,1,1-1.5,1.55,1.55,0,0,1,1.8.3,1.61,1.61,0,0,1,.6,1.3v6.4a4.28,4.28,0,0,1-2.5,4,4.61,4.61,0,0,1-4.8-.2c-.3-.2-.4-.1-.7,0a4.23,4.23,0,0,1-4.7.2,4.06,4.06,0,0,1-2.4-3.9c-.1-1.2-.1-2.2-.1-3.2Z" transform="translate(0.05 0)"/><path class="cls-3" d="M180.4,99.6a1.71,1.71,0,0,1,1.8,1.7,1.79,1.79,0,0,1-1.8,1.8,1.77,1.77,0,0,1-1.7-1.8A1.69,1.69,0,0,1,180.4,99.6Z" transform="translate(0.05 0)"/><path class="cls-3" d="M169.2,91.7a6.28,6.28,0,0,0-6.6-.5V88.6a2,2,0,0,0-2-2.1,1.73,1.73,0,0,0-1.5,1.7v8.7A6.38,6.38,0,0,0,167,103a6.07,6.07,0,0,0,4.7-5.4A5.68,5.68,0,0,0,169.2,91.7Zm-3.7,8a3,3,0,0,1,0-5.9,3,3,0,0,1,0,5.9Z" transform="translate(0.05 0)"/><path class="cls-3" d="M157.7,96.1a6.46,6.46,0,0,0-7.1-5.5,6.38,6.38,0,0,0-2.8,11.5,6.33,6.33,0,0,0,6.6.4,1.4,1.4,0,0,0,.8-1.8,1.83,1.83,0,0,0-1.5-1.3,5,5,0,0,0-1.3.3,2.8,2.8,0,0,1-3.2-1c-.1-.1-.2-.2-.1-.3a.37.37,0,0,1,.3-.1h6.5a2.2,2.2,0,0,0,.8-.1C157.6,97.8,157.9,97.3,157.7,96.1Zm-8.5-.8a2,2,0,0,1,1.8-1.4,2.56,2.56,0,0,1,2.9,1.4Z" transform="translate(0.05 0)"/></g><g id="SEO"><path class="cls-3" d="M235.3,103.1h-2.6a1.64,1.64,0,0,1-1.8-1.6,1.74,1.74,0,0,1,1.9-1.7h4.4c.6,0,.8-.2.8-.7s-.2-.7-.6-.7h-2.6a3.94,3.94,0,0,1-4.1-3.9,4.1,4.1,0,0,1,4-4.1h4.4a1.63,1.63,0,0,1,1.7,1.7,1.77,1.77,0,0,1-1.8,1.7h-3.9c-.9,0-1.2.2-1.2.7s.3.7,1.2.8a16.08,16.08,0,0,1,3.1.1,4,4,0,0,1,3.1,3.9,3.87,3.87,0,0,1-3.2,3.8A26.13,26.13,0,0,1,235.3,103.1Z" transform="translate(0.05 0)"/><path class="cls-3" d="M278.3,99.6a1.73,1.73,0,0,1,1.8,1.8,1.93,1.93,0,0,1-1.8,1.8,1.77,1.77,0,0,1-1.7-1.8A1.71,1.71,0,0,1,278.3,99.6Z" transform="translate(0.05 0)"/><path class="cls-3" d="M248.4,90.5a6.19,6.19,0,0,0-5.3,4.6c-.8,2.5.1,4.7,2,6.5a6.26,6.26,0,0,0,7.1.7,1.48,1.48,0,0,0,.7-1.7,1.89,1.89,0,0,0-1.3-1.3,2.54,2.54,0,0,0-1.5.3,2.54,2.54,0,0,1-3.3-1.4H254a1.37,1.37,0,0,0,1.5-1.5A6.5,6.5,0,0,0,248.4,90.5Zm-1.6,4.8a2.5,2.5,0,0,1,2.5-1.5,2.47,2.47,0,0,1,2.3,1.5Z" transform="translate(0.05 0)"/><path class="cls-3" d="M263,90.5a6.36,6.36,0,0,0-6.3,6.4,6.19,6.19,0,0,0,6.3,6.2,6.3,6.3,0,0,0,0-12.6Zm0,9.2a3,3,0,0,1-2.9-3,2.88,2.88,0,0,1,2.8-2.9,3,3,0,0,1,3,3A2.84,2.84,0,0,1,263,99.7Z" transform="translate(0.05 0)"/></g><g id="IOS"><path class="cls-3" d="M358.1,103.1h-2.5a1.66,1.66,0,0,1-1.8-1.7,1.71,1.71,0,0,1,1.8-1.7h4.5c.6,0,.9-.3.8-.9-.1-.4-.3-.5-.6-.5h-2.6a4,4,0,1,1-.1-7.9H362a1.7,1.7,0,1,1,0,3.4h-4.2c-.6,0-.9.3-.9.7s.3.7.9.7a19.33,19.33,0,0,1,3.4.1,4,4,0,0,1,3.2,3.9,4,4,0,0,1-3.3,3.8A15.54,15.54,0,0,1,358.1,103.1Z" transform="translate(0.05 0)"/><path class="cls-3" d="M334.6,96.8V92.5a1.67,1.67,0,1,1,3.3,0v8.9a1.61,1.61,0,0,1-1.4,1.8,1.67,1.67,0,0,1-2-1.7C334.6,99.9,334.6,98.3,334.6,96.8Z" transform="translate(0.05 0)"/><path class="cls-3" d="M336.3,86.6a1.67,1.67,0,0,1,1.6,1.7,1.74,1.74,0,0,1-1.6,1.7,1.63,1.63,0,0,1-1.7-1.7A1.69,1.69,0,0,1,336.3,86.6Z" transform="translate(0.05 0)"/><path class="cls-3" d="M345.9,90.5a6.34,6.34,0,0,0-6.4,6.2,6.3,6.3,0,0,0,12.6.2A6.34,6.34,0,0,0,345.9,90.5Zm-.1,9.2a3,3,0,0,1-2.9-2.9,3.06,3.06,0,0,1,2.9-3,3,3,0,0,1,3,3A3,3,0,0,1,345.8,99.7Z" transform="translate(0.05 0)"/></g></svg>