<svg id="Слой_1" data-name="Слой 1" xmlns="http://www.w3.org/2000/svg" viewBox="0 0 320.21 312.83"><defs><style>.cls-1{fill:#fe9b00;}</style></defs><title>lupa</title><path d="M48.59,190a96.91,96.91,0,0,0,49.53,27.06C119.85,148.56,124.5,92.94,86.38,29.62A97.41,97.41,0,0,0,48.59,190Z" transform="translate(-0.39 -4.08)"/><path class="cls-1" d="M316.83,286.64l-87.3-88.82c-2.48-2.52-4.44-2.54-6.39-1.33l-2.67-2.72-2.2,2.16-5-5.09a117.72,117.72,0,1,0-16.18,18l3.95,4-2.2,2.16,2.67,2.72c-1.24,1.93-1.26,3.89,1.22,6.42L290,313a12.71,12.71,0,0,0,18,.41l8.94-8.78A12.71,12.71,0,0,0,316.83,286.64ZM48.59,190a97.38,97.38,0,1,1,137.71,1.18A97.38,97.38,0,0,1,48.59,190Z" transform="translate(-0.39 -4.08)"/></svg>