<svg xmlns="http://www.w3.org/2000/svg" width="512" height="512" viewBox="0 0 512 512">
  <metadata><?xpacket begin="﻿" id="W5M0MpCehiHzreSzNTczkc9d"?>
<x:xmpmeta xmlns:x="adobe:ns:meta/" x:xmptk="Adobe XMP Core 5.6-c138 79.159824, 2016/09/14-01:09:01        ">
   <rdf:RDF xmlns:rdf="http://www.w3.org/1999/02/22-rdf-syntax-ns#">
      <rdf:Description rdf:about=""/>
   </rdf:RDF>
</x:xmpmeta>
                                                                                                    
                                                                                                    
                                                                                                    
                                                                                                    
                                                                                                    
                                                                                                    
                                                                                                    
                                                                                                    
                                                                                                    
                                                                                                    
                                                                                                    
                                                                                                    
                                                                                                    
                                                                                                    
                                                                                                    
                                                                                                    
                                                                                                    
                                                                                                    
                                                                                                    
                                                                                                    
                           
<?xpacket end="w"?></metadata>
<defs>
    <style>
      .cls-1 {
        fill-rule: evenodd;
      }
    </style>
  </defs>
  <path class="cls-1" d="M456.348,100.174H367.3V50.087A50.144,50.144,0,0,0,317.217,0H194.783A50.144,50.144,0,0,0,144.7,50.087v50.087H55.652A55.715,55.715,0,0,0,0,155.826V422.957A89.145,89.145,0,0,0,89.044,512H422.957A89.144,89.144,0,0,0,512,422.957V155.826A55.715,55.715,0,0,0,456.348,100.174ZM178.087,50.087a16.715,16.715,0,0,1,16.7-16.7H317.218a16.715,16.715,0,0,1,16.7,16.7v50.087H178.087V50.087ZM89.044,478.609a55.715,55.715,0,0,1-55.652-55.652V400.7a78,78,0,0,1,77.913,77.913H89.044Zm389.565-55.652a55.715,55.715,0,0,1-55.652,55.652H400.7A78,78,0,0,1,478.609,400.7v22.261Zm0-55.653a111.43,111.43,0,0,0-111.3,111.3H144.7a111.43,111.43,0,0,0-111.3-111.3V304.935a60.827,60.827,0,0,0,27.826,6.717h144.7v11.13a50.087,50.087,0,0,0,100.174,0v-11.13h144.7a60.824,60.824,0,0,0,27.826-6.717V367.3h0ZM239.3,322.783V272.7H272.7v50.087A16.7,16.7,0,1,1,239.3,322.783Zm239.3-72.348a27.858,27.858,0,0,1-27.826,27.826h-144.7V256a16.7,16.7,0,0,0-16.7-16.7H222.608a16.7,16.7,0,0,0-16.7,16.7v22.261H61.217a27.858,27.858,0,0,1-27.826-27.826V155.826a22.286,22.286,0,0,1,22.261-22.261h400.7a22.286,22.286,0,0,1,22.261,22.261v94.609Z"/>
</svg>
