<svg xmlns="http://www.w3.org/2000/svg" width="612" height="459" viewBox="0 0 612 459">
  <metadata><?xpacket begin="﻿" id="W5M0MpCehiHzreSzNTczkc9d"?>
<x:xmpmeta xmlns:x="adobe:ns:meta/" x:xmptk="Adobe XMP Core 5.6-c138 79.159824, 2016/09/14-01:09:01        ">
   <rdf:RDF xmlns:rdf="http://www.w3.org/1999/02/22-rdf-syntax-ns#">
      <rdf:Description rdf:about=""/>
   </rdf:RDF>
</x:xmpmeta>
                                                                                                    
                                                                                                    
                                                                                                    
                                                                                                    
                                                                                                    
                                                                                                    
                                                                                                    
                                                                                                    
                                                                                                    
                                                                                                    
                                                                                                    
                                                                                                    
                                                                                                    
                                                                                                    
                                                                                                    
                                                                                                    
                                                                                                    
                                                                                                    
                                                                                                    
                                                                                                    
                           
<?xpacket end="w"?></metadata>
<defs>
    <style>
      .cls-1 {
        fill: none;
        stroke: #000;
        stroke-width: 36px;
        fill-rule: evenodd;
      }
    </style>
  </defs>
  <path id="Forma_1" data-name="Forma 1" class="cls-1" d="M306,229.758c53.643,0,95.365-55.644,95.365-113.244V98.468C401.364,40.87,359.642,0,306,0s-95.368,40.867-95.368,98.468v18.046C210.631,174.114,252.353,229.758,306,229.758ZM114.935,248.386c15.338,0,57.312-19.9,57.312-61.2v-30.6c0-41.3-30.279-61.2-57.312-61.2-26.136,0-57.311,19.9-57.311,61.2v30.6C57.624,228.484,100.413,248.386,114.935,248.386ZM458.326,324.9c-0.03-.3-0.119-0.584-0.149-0.881a73.838,73.838,0,0,0-2.092-10.579,0.106,0.106,0,0,0-.03-0.089,65.445,65.445,0,0,0-10.428-21.367v-0.03c-8.278-11.459-20.766-23.147-41.055-34.544-10.727-6.024-15.45-8.785-22.08-8.785-10.548,0-19.751,8.2-35.256,22.441H347.2l-14.1,12.968C332.592,284.518,317.386,306,306,306s-26.593-21.486-27.1-21.965l-14.1-12.968h-0.03c-15.505-14.239-24.708-22.441-35.256-22.441-6.632,0-12.551,2.761-22.08,8.785-19.672,12.419-32.781,23.07-41.025,34.512l-0.032.015c-0.03.03-.03,0.077-0.058,0.1a65.446,65.446,0,0,0-10.338,21.219,1.745,1.745,0,0,0-.085.207,75.781,75.781,0,0,0-2.065,10.474c-0.029.331-.119,0.643-0.151,0.972a106.03,106.03,0,0,0-.656,11.684c0,0.446-.009,83.763,0,84.152,0,27.192,10.248,38.249,38.245,38.249H420.741c28.239,0,38.246-10.461,38.246-38.249,0.008-.389,0-83.706,0-84.152A107.465,107.465,0,0,0,458.326,324.9ZM497.4,248.386c15.336,0,57.314-19.9,57.314-61.2v-30.6c0-41.3-30.279-61.2-57.314-61.2-26.138,0-57.313,19.9-57.313,61.2v30.6C440.086,228.484,482.875,248.386,497.4,248.386ZM43.536,289.805C7.947,310.067.03,342.371,0.03,363.378c0,0.327-.03,37.953,0,38.25,0,27.761,9.323,38.252,38.245,38.252h76.493V325.127L95.645,306C75.414,288.162,58.357,281.379,43.536,289.805Zm71.232,35.322c0.421,0.363,0-9.083,0,0h0Zm497.2,38.251c0-21.009-7.919-53.313-43.506-73.573-14.821-8.426-31.878-1.643-52.109,16.2l-19.123,19.125V439.882h76.493c28.922,0,38.245-10.491,38.245-38.252C612,401.331,611.97,363.708,611.97,363.378ZM497.23,325.127c0-9.083-.419.363,0,0h0Z"/>
</svg>
