<?xml version="1.0" standalone="no"?>
<!DOCTYPE svg PUBLIC "-//W3C//DTD SVG 1.1//EN" "http://www.w3.org/Graphics/SVG/1.1/DTD/svg11.dtd" >
<svg xmlns="http://www.w3.org/2000/svg" xmlns:xlink="http://www.w3.org/1999/xlink" version="1.1">
<metadata>
Created by FontForge 20161013 at Wed Aug  9 20:00:32 2017
 By ,,,
</metadata>
<defs>
<font id="MullerNarrow-ExtraBold" horiz-adv-x="495" >
  <font-face 
    font-family="Muller Narrow ExtraBold"
    font-weight="800"
    font-stretch="normal"
    units-per-em="1000"
    panose-1="0 0 9 0 0 0 0 0 0 0"
    ascent="800"
    descent="-200"
    x-height="480"
    cap-height="700"
    bbox="-496 -302 1113 987"
    underline-thickness="50"
    underline-position="-200"
    unicode-range="U+0020-FB04"
  />
<missing-glyph horiz-adv-x="500" 
d="M410 780v-1000h-317v1000h317zM333 713h-165v-33h65v-37h-66v-33h166v33h-66v37h66v33zM267 584h-100v-104h166v34h-66v70zM233 550v-36h-33v36h33zM333 453h-166v-33h66v-37h-66v-33h100v70h66v33zM333 393h-33v-66h-133v-34h166v100zM333 271h-100v-56h34v23h33v-47
h-100v80h-33v-113h166v113zM333 98h-166v-113h166v113zM300 65v-47h-100v47h100zM333 -38h-166v-33h70l-70 -47v-33h166v33h-102l70 47h32v33z" />
    <glyph glyph-name="f_f" unicode="ff" horiz-adv-x="628" 
d="M587 580q-59 0 -59 -50v-50h89v-137h-89v-343h-164v343h-124v-343h-164v343h-59v137h59v49q0 97 52.5 139.5t126.5 42.5q40 0 77 -16v-134q-19 9 -42 9q-50 0 -50 -47v-43h124v60q0 50 15.5 87t42.5 56.5t57 28.5t64 9q53 0 94 -17v-133q-23 9 -50 9z" />
    <glyph glyph-name="f_f_i" unicode="ffi" horiz-adv-x="849" 
d="M809 480v-480h-164v343h-117v-343h-164v343h-124v-343h-164v343h-59v137h59v49q0 97 52.5 139.5t126.5 42.5q40 0 77 -16v-134q-19 9 -42 9q-50 0 -50 -47v-43h124v56q0 89 60.5 137t153.5 48q87 0 157 -31v-136q-60 26 -117 26q-90 0 -90 -61v-39h281z" />
    <glyph glyph-name="f_f_l" unicode="ffl" horiz-adv-x="856" 
d="M76 0v343h-59v137h59v49q0 97 52.5 139.5t126.5 42.5q40 0 77 -16v-134q-19 9 -42 9q-50 0 -50 -47v-43h124v60q0 93 57 137t135 44q74 0 133 -28l127 21v-714h-164v566q-28 14 -60 14q-64 0 -64 -53v-47h68v-137h-68v-343h-164v343h-124v-343h-164z" />
    <glyph glyph-name=".notdef" horiz-adv-x="500" 
d="M410 780v-1000h-317v1000h317zM333 713h-165v-33h65v-37h-66v-33h166v33h-66v37h66v33zM267 584h-100v-104h166v34h-66v70zM233 550v-36h-33v36h33zM333 453h-166v-33h66v-37h-66v-33h100v70h66v33zM333 393h-33v-66h-133v-34h166v100zM333 271h-100v-56h34v23h33v-47
h-100v80h-33v-113h166v113zM333 98h-166v-113h166v113zM300 65v-47h-100v47h100zM333 -38h-166v-33h70l-70 -47v-33h166v33h-102l70 47h32v33z" />
    <glyph glyph-name=".notdef" horiz-adv-x="500" 
d="M410 780v-1000h-317v1000h317zM333 713h-165v-33h65v-37h-66v-33h166v33h-66v37h66v33zM267 584h-100v-104h166v34h-66v70zM233 550v-36h-33v36h33zM333 453h-166v-33h66v-37h-66v-33h100v70h66v33zM333 393h-33v-66h-133v-34h166v100zM333 271h-100v-56h34v23h33v-47
h-100v80h-33v-113h166v113zM333 98h-166v-113h166v113zM300 65v-47h-100v47h100zM333 -38h-166v-33h70l-70 -47v-33h166v33h-102l70 47h32v33z" />
    <glyph glyph-name=".null" horiz-adv-x="0" 
 />
    <glyph glyph-name="nonmarkingreturn" horiz-adv-x="333" 
 />
    <glyph glyph-name="space" unicode=" " horiz-adv-x="154" 
 />
    <glyph glyph-name="exclam" unicode="!" horiz-adv-x="263" 
d="M58 243l-16 457h179l-16 -457h-147zM131 -13q-37 0 -63.5 23t-26.5 67t26.5 66.5t63.5 22.5q38 0 64.5 -22.5t26.5 -66.5t-26.5 -67t-64.5 -23z" />
    <glyph glyph-name="quotedbl" unicode="&#x22;" horiz-adv-x="409" 
d="M38 435v265h150l-20 -265h-130zM231 435v265h150l-20 -265h-130z" />
    <glyph glyph-name="numbersign" unicode="#" horiz-adv-x="633" 
d="M57 0l29 150h-64v126h88l25 129h-63v126h87l29 150h149l-29 -150h91l29 150h150l-29 -150h57l7 -126h-88l-25 -129h63v-126h-88l-28 -150h-150l29 150h-91l-29 -150h-149zM259 276h91l25 129h-91z" />
    <glyph glyph-name="dollar" unicode="$" horiz-adv-x="505" 
d="M486 198q0 -85 -43.5 -135.5t-114.5 -67.5v-119h-147v114q-82 9 -145 40v174q90 -54 186 -54q85 0 85 51q0 23 -29 39.5t-70.5 31t-82.5 36t-70 66.5t-29 111q0 81 43 131t112 69v119h147v-116q50 -7 118 -42v-168q-85 56 -170 56q-74 0 -74 -49q0 -22 29.5 -39t71 -32.5
t83 -37.5t71 -67.5t29.5 -110.5z" />
    <glyph glyph-name="percent" unicode="%" horiz-adv-x="754" 
d="M190 357q-76 0 -123.5 46t-47.5 129t47.5 129t123.5 46q75 0 122.5 -46t47.5 -129t-47.5 -129t-122.5 -46zM106 0l439 700h103l-439 -700h-103zM190 474q39 0 39 58t-39 58q-40 0 -40 -58t40 -58zM564 -7q-75 0 -122.5 46t-47.5 129t47.5 129t122.5 46t123 -46t48 -129
t-48 -129t-123 -46zM564 110q39 0 39 58t-39 58t-39 -58t39 -58z" />
    <glyph glyph-name="ampersand" unicode="&#x26;" horiz-adv-x="633" 
d="M636 0h-177l-33 38q-81 -52 -185 -52q-105 0 -164 52t-59 135q0 114 118 200q-68 82 -68 154q0 79 58.5 133t156.5 54q86 0 140 -49t54 -127q0 -111 -134 -199l81 -94q19 45 19 98h158q0 -116 -74 -217zM277 575q-26 0 -39 -16t-13 -37q0 -36 33 -80q61 41 61 85
q0 22 -11 35t-31 13zM260 128q39 0 69 22l-102 117q-43 -38 -43 -76q0 -29 20 -46t56 -17z" />
    <glyph glyph-name="quotesingle" unicode="'" horiz-adv-x="221" 
d="M38 435v265h157l-27 -265h-130z" />
    <glyph glyph-name="parenleft" unicode="(" horiz-adv-x="302" 
d="M299 760q-49 -97 -77 -218t-28 -242t28 -242t77 -218h-136q-60 90 -98 212t-38 248t38 248t98 212h136z" />
    <glyph glyph-name="parenright" unicode=")" horiz-adv-x="301" 
d="M2 760h135q61 -89 99 -211t38 -249t-38 -249t-99 -211h-135q49 97 77 218t28 242t-28 242t-77 218z" />
    <glyph glyph-name="asterisk" unicode="*" horiz-adv-x="369" 
d="M138 382l-93 66l68 71l-92 20l40 106l78 -39l-12 94h115l-12 -94l79 39l40 -106l-93 -20l68 -71l-92 -66l-47 85z" />
    <glyph glyph-name="plus" unicode="+" horiz-adv-x="470" 
d="M447 421v-142h-141v-140h-142v140h-140v142h140v141h142v-141h141z" />
    <glyph glyph-name="comma" unicode="," horiz-adv-x="234" 
d="M26 -152l14 279h165l-49 -279h-130z" />
    <glyph glyph-name="hyphen" unicode="-" horiz-adv-x="361" 
d="M320 314v-142h-279v142h279z" />
    <glyph glyph-name="period" unicode="." horiz-adv-x="231" 
d="M115 -13q-37 0 -63.5 23t-26.5 67t26.5 66.5t63.5 22.5q38 0 64.5 -22.5t26.5 -66.5t-26.5 -67t-64.5 -23z" />
    <glyph glyph-name="slash" unicode="/" horiz-adv-x="393" 
d="M137 -59h-122l241 818h121z" />
    <glyph glyph-name="zero" unicode="0" horiz-adv-x="581" 
d="M290 -14q-129 0 -194.5 91.5t-65.5 262.5t65.5 262.5t194.5 91.5q130 0 195 -91.5t65 -262.5t-65 -262.5t-195 -91.5zM290 157q43 0 62 44.5t19 138.5t-19 138.5t-62 44.5t-61.5 -44.5t-18.5 -138.5t18.5 -138.5t61.5 -44.5z" />
    <glyph glyph-name="one" unicode="1" horiz-adv-x="425" 
d="M36 0v164h106v325l-106 -46v174l145 63h134v-516h97v-164h-376z" />
    <glyph glyph-name="two" unicode="2" horiz-adv-x="489" 
d="M239 694q91 0 153 -54.5t62 -154.5t-86 -182q-22 -21 -61.5 -52.5t-59 -51t-19.5 -35.5h227v-164h-427v100q0 39 10.5 74.5t21.5 57t37.5 49t37.5 37t43 35.5q35 28 51 43t30.5 37t14.5 43q0 23 -18 37t-45 14q-73 0 -164 -57v173q93 51 192 51z" />
    <glyph glyph-name="three" unicode="3" horiz-adv-x="487" 
d="M209 -14q-96 0 -174 26v167q67 -23 145 -22q46 0 74 15.5t28 46.5q0 54 -67 54h-94v153h79q27 0 45 13.5t18 37.5q0 54 -79 54q-74 0 -148 -30v160q80 33 174 33q97 0 161 -49.5t64 -138.5q0 -49 -22 -87.5t-59 -58.5q46 -17 76.5 -61t30.5 -110q0 -101 -75 -152
t-177 -51z" />
    <glyph glyph-name="four" unicode="4" horiz-adv-x="557" 
d="M306 0v101h-289v145l284 434h165v-423h68v-159h-67v-98h-161zM183 250h125v193z" />
    <glyph glyph-name="five" unicode="5" horiz-adv-x="489" 
d="M209 -14q-100 0 -176 22v164q69 -23 152 -23q101 0 101 72q0 69 -114 69q-65 0 -124 -14l22 404h365v-160h-203l-5 -92q41 0 77 -8q74 -13 118 -62.5t44 -137.5q0 -79 -39.5 -133.5t-96 -77.5t-121.5 -23z" />
    <glyph glyph-name="six" unicode="6" horiz-adv-x="542" 
d="M324 437q85 2 141 -54.5t56 -161.5q0 -110 -63.5 -172.5t-161.5 -62.5q-136 0 -201.5 91t-65.5 242q0 189 83.5 282t211.5 93q79 0 151 -33v-157q-57 27 -118 27q-115 0 -141 -120q46 26 108 26zM289 146q33 0 49.5 21.5t16.5 55.5q0 76 -67 76q-41 0 -81 -26
q5 -66 24.5 -96.5t57.5 -30.5z" />
    <glyph glyph-name="seven" unicode="7" horiz-adv-x="460" 
d="M444 680v-124l-177 -556h-183l167 516h-236v164h429z" />
    <glyph glyph-name="eight" unicode="8" horiz-adv-x="556" 
d="M278 -14q-124 0 -188 58t-64 141q0 104 94 174q-72 58 -72 148q0 77 59.5 132t170.5 55t170.5 -54.5t59.5 -134.5t-75 -152q96 -59 96 -168q0 -82 -63 -140.5t-188 -58.5zM311 407q33 38 33 75q0 27 -16.5 43t-49.5 16q-31 0 -48 -14t-17 -37q0 -20 15 -36t32.5 -25
t50.5 -22zM278 139q37 0 56.5 15.5t19.5 43.5q0 35 -60 67q-11 6 -49 24q-43 -41 -43 -85q0 -29 20 -47t56 -18z" />
    <glyph glyph-name="nine" unicode="9" horiz-adv-x="541" 
d="M221 -14q-46 0 -77.5 7t-73.5 27v156q60 -27 118 -27q112 0 138 120q-47 -26 -109 -26q-85 -2 -140.5 54.5t-55.5 161.5q0 110 63.5 172.5t161.5 62.5q136 0 201 -91t65 -242q0 -188 -83 -281.5t-208 -93.5zM254 381q41 0 81 26q-5 66 -24.5 96.5t-57.5 30.5
q-33 0 -50 -21.5t-17 -55.5q0 -76 68 -76z" />
    <glyph glyph-name="colon" unicode=":" horiz-adv-x="249" 
d="M124 283q-37 0 -63.5 23.5t-26.5 67.5q0 43 26.5 66t63.5 23q38 0 64.5 -23t26.5 -66q0 -44 -26.5 -67.5t-64.5 -23.5zM124 -13q-37 0 -63.5 23t-26.5 67t26.5 66.5t63.5 22.5q38 0 64.5 -22.5t26.5 -66.5t-26.5 -67t-64.5 -23z" />
    <glyph glyph-name="semicolon" unicode=";" horiz-adv-x="260" 
d="M131 301q-38 0 -64.5 23t-26.5 67t26.5 67t64.5 23t64 -23t26 -67t-26 -67t-64 -23zM39 -152l13 279h166l-49 -279h-130z" />
    <glyph glyph-name="less" unicode="&#x3c;" horiz-adv-x="407" 
d="M360 128l-337 144v157l337 143v-157l-186 -65l186 -65v-157z" />
    <glyph glyph-name="equal" unicode="=" horiz-adv-x="459" 
d="M49 383v145h362v-145h-362zM49 172v145h362v-145h-362z" />
    <glyph glyph-name="greater" unicode="&#x3e;" horiz-adv-x="407" 
d="M47 128v157l186 65l-186 65v157l337 -143v-157z" />
    <glyph glyph-name="question" unicode="?" horiz-adv-x="423" 
d="M120 232q0 46 16.5 87.5t36 67t36 56.5t16.5 58q0 49 -65 49q-66 0 -136 -50v165q87 49 175 49q83 0 144.5 -43.5t61.5 -128.5q0 -48 -21 -94t-46.5 -76.5t-46.5 -68.5t-21 -71h-150zM195 -13q-37 0 -63.5 23t-26.5 67t26.5 66.5t63.5 22.5q38 0 64.5 -22.5t26.5 -66.5
t-26.5 -67t-64.5 -23z" />
    <glyph glyph-name="at" unicode="@" horiz-adv-x="921" 
d="M477 -233q-128 0 -229.5 52t-163.5 161t-62 260q0 124 50.5 230.5t154.5 175t243 68.5q86 0 158 -26.5t120 -70.5t81.5 -101t48.5 -116.5t15 -119.5q0 -136 -56 -205t-161 -69q-52 0 -91.5 22.5t-60.5 62.5q-23 -32 -48 -46.5t-62 -14.5q-75 0 -114.5 59.5t-39.5 148.5
t39.5 148.5t114.5 59.5q62 0 102 -52v40h138v-252q0 -50 38 -50q31 0 40.5 36t9.5 112q0 119 -69.5 203.5t-202.5 84.5t-214.5 -93t-81.5 -235q0 -153 82.5 -240t224.5 -87q112 0 211 28v-136q-99 -38 -215 -38zM459 153q25 0 45 27v116q-19 27 -45 27q-49 0 -49 -85t49 -85
z" />
    <glyph glyph-name="A" unicode="A" horiz-adv-x="610" 
d="M-4 0l222 700h174l222 -700h-180l-29 105h-199l-29 -105h-181zM241 247h128l-33 120q-21 80 -31 151q-11 -80 -30 -151z" />
    <glyph glyph-name="B" unicode="B" horiz-adv-x="583" 
d="M336 700q92 0 147.5 -48t55.5 -131q0 -105 -77 -151q42 -19 72 -63t30 -109q0 -68 -35.5 -114t-86.5 -65t-112 -19h-281v700h287zM301 557h-79v-135h83q30 0 47.5 18t17.5 49q0 68 -69 68zM311 289h-89v-144h86q80 0 80 72t-77 72z" />
    <glyph glyph-name="C" unicode="C" horiz-adv-x="503" 
d="M339 -14q-136 0 -226 92t-90 267q1 174 90 271.5t227 97.5q65 0 133 -27v-167q-43 23 -108 23q-74 0 -118 -51t-44 -147q0 -93 41.5 -141t115.5 -48q58 0 118 26v-171q-66 -25 -139 -25z" />
    <glyph glyph-name="D" unicode="D" horiz-adv-x="601" 
d="M278 700q155 0 226.5 -95.5t71.5 -254.5t-71.5 -254.5t-226.5 -95.5h-229v700h229zM278 536h-56v-372h56q64 0 94.5 43.5t30.5 142.5t-30.5 142.5t-94.5 43.5z" />
    <glyph glyph-name="E" unicode="E" horiz-adv-x="498" 
d="M49 0v700h413v-154h-240v-119h217v-150h-217v-121h246v-156h-419z" />
    <glyph glyph-name="F" unicode="F" horiz-adv-x="494" 
d="M468 700v-164h-246v-128h227v-164h-227v-244h-173v700h419z" />
    <glyph glyph-name="G" unicode="G" horiz-adv-x="560" 
d="M336 -14q-135 0 -224 88.5t-89 269.5q0 171 93.5 270.5t241.5 99.5q77 0 151 -28v-164q-60 24 -130 24q-81 0 -128.5 -53t-47.5 -152q0 -158 96 -183q28 -7 58 0v223h168v-350q-78 -45 -189 -45z" />
    <glyph glyph-name="H" unicode="H" horiz-adv-x="605" 
d="M555 700v-700h-172v268h-161v-268h-173v700h173v-268h161v268h172z" />
    <glyph glyph-name="I" unicode="I" horiz-adv-x="271" 
d="M222 700v-700h-173v700h173z" />
    <glyph glyph-name="J" unicode="J" horiz-adv-x="435" 
d="M164 -14q-79 0 -145 24v161q45 -21 105 -21q93 0 93 95v291h-135v164h307v-495q0 -113 -64.5 -166t-160.5 -53z" />
    <glyph glyph-name="K" unicode="K" horiz-adv-x="581" 
d="M49 0v700h173v-274h43l115 274h200l-165 -350l171 -350h-200l-120 273h-44v-273h-173z" />
    <glyph glyph-name="L" unicode="L" horiz-adv-x="473" 
d="M222 700v-536h239v-164h-412v700h173z" />
    <glyph glyph-name="M" unicode="M" horiz-adv-x="726" 
d="M49 0v700h149l165 -312l165 312h149v-700h-169v207q0 96 17 198l-132 -252h-59l-132 252q16 -96 16 -198v-207h-169z" />
    <glyph glyph-name="N" unicode="N" horiz-adv-x="619" 
d="M49 0v700h157l207 -396q-16 94 -16 183v213h172v-700h-156l-208 396q17 -91 17 -183v-213h-173z" />
    <glyph glyph-name="O" unicode="O" horiz-adv-x="617" 
d="M308 -14q-143 0 -213 97.5t-70 266.5q0 170 70 267t213 97t213 -97t70 -267q0 -169 -70 -266.5t-213 -97.5zM308 157q54 0 79 47.5t25 145.5t-25 145.5t-79 47.5q-103 0 -103 -193t103 -193z" />
    <glyph glyph-name="P" unicode="P" horiz-adv-x="565" 
d="M307 700q107 0 174 -61.5t67 -181.5t-67 -181.5t-174 -61.5h-85v-214h-173v700h258zM292 543h-70v-172h70q40 0 61.5 22.5t21.5 63.5t-21.5 63.5t-61.5 22.5z" />
    <glyph glyph-name="Q" unicode="Q" horiz-adv-x="617" 
d="M458 -97l-71 96q-33 -13 -75 -13q-143 0 -213 97.5t-70 266.5q0 170 70 267t213 97t213 -97t70 -267q0 -169 -67 -262l65 -88zM312 157q104 0 104 193t-104 193q-103 0 -103 -193t103 -193z" />
    <glyph glyph-name="R" unicode="R" horiz-adv-x="587" 
d="M49 0v700h260q107 0 177 -61t70 -175q0 -149 -108 -206l131 -258h-187l-111 228h-59v-228h-173zM222 382h80q37 0 59 20.5t22 58.5t-22 58.5t-59 20.5h-80v-158z" />
    <glyph glyph-name="S" unicode="S" horiz-adv-x="525" 
d="M257 -14q-118 0 -215 45v175q91 -56 197 -56q89 0 89 54q0 22 -22.5 38.5t-56.5 27t-73.5 28.5t-73.5 40t-56.5 63.5t-22.5 97.5q0 107 69.5 161t176.5 54q102 0 194 -49v-168q-97 57 -182 57q-82 0 -82 -52q0 -21 23 -37.5t57 -27.5t74.5 -30t74.5 -41.5t57 -65.5
t23 -99q0 -109 -72 -162t-179 -53z" />
    <glyph glyph-name="T" unicode="T" horiz-adv-x="514" 
d="M171 0v536h-160v164h492v-164h-160v-536h-172z" />
    <glyph glyph-name="U" unicode="U" horiz-adv-x="609" 
d="M304 -14q-123 0 -191.5 59t-68.5 179v476h173v-461q0 -89 87 -89q88 0 88 89v461h172v-476q0 -120 -68.5 -179t-191.5 -59z" />
    <glyph glyph-name="V" unicode="V" horiz-adv-x="597" 
d="M204 0l-204 700h184l89 -367q13 -60 26 -150q10 84 25 150l89 367h184l-204 -700h-189z" />
    <glyph glyph-name="W" unicode="W" horiz-adv-x="840" 
d="M171 0l-169 700h186l73 -433l101 430h117l100 -430l73 433h187l-170 -700h-163l-86 365l-86 -365h-163z" />
    <glyph glyph-name="X" unicode="X" horiz-adv-x="580" 
d="M-10 0l186 360l-171 340h189l96 -210l96 210h189l-172 -340l187 -360h-193l-107 226l-107 -226h-193z" />
    <glyph glyph-name="Y" unicode="Y" horiz-adv-x="587" 
d="M208 0v265l-209 435h188l107 -263l106 263h189l-209 -435v-265h-172z" />
    <glyph glyph-name="Z" unicode="Z" horiz-adv-x="502" 
d="M18 0v110l236 426h-223v164h442v-110l-235 -422h244v-168h-464z" />
    <glyph glyph-name="bracketleft" unicode="[" horiz-adv-x="323" 
d="M55 -160v920h245v-150h-87v-620h87v-150h-245z" />
    <glyph glyph-name="backslash" unicode="\" horiz-adv-x="393" 
d="M256 -59l-241 818h122l241 -818h-122z" />
    <glyph glyph-name="bracketright" unicode="]" horiz-adv-x="323" 
d="M269 -160h-245v150h86v620h-86v150h245v-920z" />
    <glyph glyph-name="asciicircum" unicode="^" horiz-adv-x="519" 
d="M20 338l156 362h168l155 -362h-173l-66 196l-67 -196h-173z" />
    <glyph glyph-name="underscore" unicode="_" horiz-adv-x="394" 
d="M0 -196v142h394v-142h-394z" />
    <glyph glyph-name="grave" unicode="`" horiz-adv-x="319" 
d="M138 756l-108 153h175l84 -153h-151z" />
    <glyph glyph-name="a" unicode="a" horiz-adv-x="476" 
d="M456 111q6 0 16 2v-110q-39 -11 -78 -11q-64 0 -96 35q-49 -41 -127 -41q-66 0 -110 39t-44 112t48.5 112.5t130.5 39.5q36 0 72 -9v21q0 58 -74 58q-75 0 -147 -29v135q84 29 164 29q107 0 162.5 -46.5t55.5 -156.5v-150q0 -30 27 -30zM218 89q31 0 50 18v83
q-20 5 -35 5q-60 0 -60 -55q0 -51 45 -51z" />
    <glyph glyph-name="b" unicode="b" horiz-adv-x="501" 
d="M306 -14q-80 0 -119 61v-47h-148v700h164v-253q42 47 108 47q83 0 124.5 -68t41.5 -186q0 -52 -8.5 -95t-27.5 -80t-53.5 -58t-81.5 -21zM258 127q31 0 44.5 28t13.5 85t-13.5 85t-44.5 28q-35 0 -55 -37v-152q20 -37 55 -37z" />
    <glyph glyph-name="c" unicode="c" horiz-adv-x="393" 
d="M250 -14q-99 0 -164 65t-65 183q0 124 66 192t171 68q61 0 106 -21v-134q-36 17 -78 17q-45 0 -72.5 -30t-27.5 -86q0 -55 26 -84t70 -29q47 0 87 19v-140q-47 -20 -119 -20z" />
    <glyph glyph-name="d" unicode="d" horiz-adv-x="501" 
d="M24 240q0 118 41.5 186t124.5 68q66 0 108 -47v253h164v-700h-148v47q-39 -61 -119 -61q-47 0 -81.5 21t-53.5 58t-27.5 80t-8.5 95zM298 164v152q-20 37 -55 37q-31 0 -44.5 -28t-13.5 -85t13.5 -85t44.5 -28q35 0 55 37z" />
    <glyph glyph-name="e" unicode="e" horiz-adv-x="471" 
d="M276 -14q-121 0 -187.5 67t-66.5 187q0 119 58.5 186.5t162.5 67.5t161.5 -81.5t45.5 -231.5h-258q18 -75 109 -75q65 0 121 21v-115q-60 -26 -146 -26zM185 280h115q-2 85 -53 85q-56 0 -62 -85z" />
    <glyph glyph-name="f" unicode="f" horiz-adv-x="340" 
d="M76 0v339h-59v141h59v53q0 50 15.5 87t42.5 56.5t57 28.5t64 9q53 0 94 -17v-133q-22 9 -50 9q-59 0 -59 -50v-43h89v-141h-89v-339h-164z" />
    <glyph glyph-name="g" unicode="g" horiz-adv-x="501" 
d="M212 -234q-91 0 -149 26v136q55 -21 124 -21q111 0 111 87v39q-43 -47 -108 -47q-84 0 -125 68t-41 186q0 110 40 182t130 72q81 0 120 -62v48h148v-486q0 -107 -64 -167.5t-186 -60.5zM243 127q35 0 55 37v152q-19 37 -55 37q-31 0 -44.5 -28t-13.5 -85t13.5 -85
t44.5 -28z" />
    <glyph glyph-name="h" unicode="h" 
d="M39 0v700h164v-247q44 41 112 41q58 0 101 -39.5t43 -110.5v-344h-164v303q0 39 -38 39q-33 0 -54 -34v-308h-164z" />
    <glyph glyph-name="i" unicode="i" horiz-adv-x="243" 
d="M122 539q-40 0 -66.5 23t-26.5 67t26.5 66t66.5 22t66 -22t26 -66t-26.5 -67t-65.5 -23zM40 0v480h164v-480h-164z" />
    <glyph glyph-name="j" unicode="j" horiz-adv-x="248" 
d="M126 539q-40 0 -66.5 23t-26.5 67t26.5 66t66.5 22t66.5 -22t26.5 -66t-26.5 -67t-66.5 -23zM43 -234q-51 0 -83 13v133q18 -5 35 -5q49 0 49 52v521h164v-547q0 -84 -46 -125.5t-119 -41.5z" />
    <glyph glyph-name="k" unicode="k" horiz-adv-x="494" 
d="M39 0v700h164v-391h36l74 171h182l-122 -239l127 -241h-183l-79 168h-35v-168h-164z" />
    <glyph glyph-name="l" unicode="l" horiz-adv-x="243" 
d="M204 730v-730h-164v730h164z" />
    <glyph glyph-name="m" unicode="m" horiz-adv-x="726" 
d="M549 494q69 0 105 -42.5t36 -108.5v-343h-160v303q0 39 -35 39q-28 0 -50 -30v-312h-161v303q0 39 -34 39q-28 0 -50 -31v-311h-161v480h148v-43q44 57 122 57q73 0 111 -56q52 56 129 56z" />
    <glyph glyph-name="n" unicode="n" 
d="M39 0v480h148v-43q48 57 128 57q58 0 101 -39.5t43 -110.5v-344h-164v303q0 39 -38 39q-33 0 -54 -34v-308h-164z" />
    <glyph glyph-name="o" unicode="o" horiz-adv-x="494" 
d="M247 494q107 0 165.5 -67.5t58.5 -186.5t-58.5 -186.5t-165.5 -67.5t-166 67.5t-59 186.5t59 186.5t166 67.5zM247 354q-32 0 -46 -27.5t-14 -86.5t14 -86t46 -27t46 27t14 86t-14 86.5t-46 27.5z" />
    <glyph glyph-name="p" unicode="p" horiz-adv-x="501" 
d="M477 240q0 -118 -41.5 -186t-124.5 -68q-66 0 -108 47v-253h-164v700h148v-47q39 61 119 61q47 0 81.5 -21t53.5 -58t27.5 -80t8.5 -95zM203 316v-152q20 -37 55 -37q31 0 44.5 28t13.5 85t-13.5 85t-44.5 28q-35 0 -55 -37z" />
    <glyph glyph-name="q" unicode="q" horiz-adv-x="501" 
d="M195 494q80 0 119 -61v47h148v-700h-164v253q-42 -47 -108 -47q-83 0 -124.5 68t-41.5 186q0 52 8.5 95t27.5 80t53.5 58t81.5 21zM243 353q-31 0 -44.5 -28t-13.5 -85t13.5 -85t44.5 -28q35 0 55 37v152q-20 37 -55 37z" />
    <glyph glyph-name="r" unicode="r" horiz-adv-x="345" 
d="M39 0v480h148v-67q41 86 147 77v-167q-93 13 -131 -66v-257h-164z" />
    <glyph glyph-name="s" unicode="s" horiz-adv-x="418" 
d="M221 494q79 0 146 -30v-130q-61 34 -122 34q-55 0 -55 -30q0 -15 21.5 -25.5t52 -20t61.5 -24.5t52.5 -47.5t21.5 -79.5q0 -78 -54.5 -117t-135.5 -38q-114 2 -178 35v137q62 -39 144 -39q60 0 60 29q0 15 -21.5 24.5t-52.5 19t-61.5 24t-52 46.5t-21.5 79q0 71 50 112
t145 41z" />
    <glyph glyph-name="t" unicode="t" horiz-adv-x="354" 
d="M235 -14q-28 0 -54 7.5t-51.5 24.5t-41 51t-15.5 81v189h-60v141h60v112l164 38v-150h95v-141h-95v-159q0 -53 47 -53q27 0 48 10v-134q-38 -17 -97 -17z" />
    <glyph glyph-name="u" unicode="u" 
d="M456 480v-480h-148v44q-48 -58 -128 -58q-57 0 -100.5 39.5t-43.5 110.5v344h164v-303q0 -39 38 -39q33 0 54 34v308h164z" />
    <glyph glyph-name="v" unicode="v" horiz-adv-x="498" 
d="M167 0l-165 480h181l49 -213q10 -48 17 -118q6 62 18 118l49 213h180l-164 -480h-165z" />
    <glyph glyph-name="w" unicode="w" horiz-adv-x="691" 
d="M133 0l-128 480h174l45 -276l60 276h123l60 -276l45 276h174l-128 -480h-158l-54 245l-55 -245h-158z" />
    <glyph glyph-name="x" unicode="x" horiz-adv-x="480" 
d="M1 0l124 245l-118 235h178l42 -105q10 -38 13 -51q6 27 14 51l42 105h177l-118 -235l124 -245h-181l-39 96q-11 30 -19 62q-8 -32 -19 -62l-39 -96h-181z" />
    <glyph glyph-name="y" unicode="y" horiz-adv-x="502" 
d="M68 -220v134q24 -4 45 4q27 7 47 33q13 15 25 43l-186 486h179l79 -276l62 276h180l-171 -537q-29 -93 -88 -137q-70 -49 -172 -26z" />
    <glyph glyph-name="z" unicode="z" horiz-adv-x="409" 
d="M377 480v-117l-151 -222h160v-141h-363v112l156 230h-147v138h345z" />
    <glyph glyph-name="braceleft" unicode="{" horiz-adv-x="346" 
d="M321 -160q-106 -24 -171.5 16.5t-65.5 126.5v180q0 40 -17.5 51t-56.5 11v150q20 0 31 1.5t22.5 7.5t16 19t4.5 34v180q0 86 65.5 126.5t171.5 16.5v-150q-44 7 -61.5 -9t-17.5 -61v-130q0 -50 -25 -79t-55 -31q30 -2 55 -31t25 -79v-130q0 -45 17.5 -61t61.5 -9v-150z
" />
    <glyph glyph-name="bar" unicode="|" horiz-adv-x="281" 
d="M55 -100v910h172v-910h-172z" />
    <glyph glyph-name="braceright" unicode="}" horiz-adv-x="346" 
d="M25 -160v150q44 -7 61 9t17 61v130q0 50 25.5 79t54.5 31q-29 2 -54.5 31t-25.5 79v130q0 45 -17 61t-61 9v150q105 24 170.5 -16.5t65.5 -126.5v-180q0 -21 5 -34.5t16 -19t22 -7t31 -1.5v-150q-39 0 -56.5 -11t-17.5 -51v-180q0 -86 -65.5 -126.5t-170.5 -16.5z" />
    <glyph glyph-name="asciitilde" unicode="~" horiz-adv-x="462" 
d="M322 253q-43 0 -93.5 21.5t-64.5 21.5q-26 0 -27 -36h-97q-11 85 16.5 131t87.5 46q44 0 94 -21.5t64 -21.5t20.5 8t6.5 28h97q12 -84 -15.5 -130.5t-88.5 -46.5z" />
    <glyph glyph-name="exclamdown" unicode="&#xa1;" horiz-adv-x="254" 
d="M217 403q0 -44 -26 -66.5t-64 -22.5q-37 0 -64 22.5t-27 66.5t27 67t64 23q38 0 64 -23t26 -67zM53 237h147l16 -457h-179z" />
    <glyph glyph-name="cent" unicode="&#xa2;" horiz-adv-x="406" 
d="M181 -117v113q-72 20 -115 81.5t-43 156.5q0 97 42 161.5t116 86.5v115h126v-106q33 -5 59 -18v-134q-36 17 -78 17q-45 0 -72.5 -30t-27.5 -86q0 -55 25.5 -84t69.5 -29q48 0 88 19v-140q-30 -13 -64 -17v-106h-126z" />
    <glyph glyph-name="sterling" unicode="&#xa3;" horiz-adv-x="503" 
d="M251 164h227v-164h-453v164h19q53 0 53 71v40h-56v128h56v76q0 107 61.5 161t160.5 54q72 0 135 -29v-164q-49 30 -101 30q-77 0 -77 -79v-49h144v-128h-144v-40q0 -54 -25 -71z" />
    <glyph glyph-name="currency" unicode="&#xa4;" horiz-adv-x="521" 
d="M120 104l-92 84l61 67q-20 42 -20 95t20 96l-61 66l92 85l59 -65q37 17 81 17q45 0 81 -17l60 65l92 -85l-61 -68q19 -39 19 -94q0 -51 -19 -94l61 -68l-92 -84l-60 64q-36 -17 -81 -17q-44 0 -81 17zM260 285q48 0 48 65t-48 65t-48 -65t48 -65z" />
    <glyph glyph-name="yen" unicode="&#xa5;" horiz-adv-x="590" 
d="M573 680l-155 -316h89v-98h-126v-45h126v-98h-126v-123h-172v123h-126v98h126v45h-126v98h89l-156 316h190l89 -243l89 243h189z" />
    <glyph glyph-name="brokenbar" unicode="&#xa6;" horiz-adv-x="281" 
d="M54 409v401h173v-401h-173zM54 -100v401h173v-401h-173z" />
    <glyph glyph-name="section" unicode="&#xa7;" horiz-adv-x="467" 
d="M221 -35q-92 0 -168 43v127q75 -46 154 -46q53 0 53 34q0 8 -5.5 15t-17.5 12.5t-23.5 9.5t-32 11t-34.5 13q-119 45 -119 146q0 70 60 121q-47 41 -47 112q0 76 55 113.5t137 37.5q89 0 162 -38v-128q-71 44 -136 44q-22 0 -36 -9t-14 -24q0 -10 5 -18t18 -15
t23.5 -11.5t32.5 -12.5t35 -13q55 -22 87.5 -53.5t32.5 -85.5q0 -65 -63 -119q48 -40 48 -108q0 -44 -17 -75.5t-47.5 -49t-65.5 -25.5t-77 -8zM257 286q36 21 36 50q0 28 -50 45q-22 7 -38 14q-28 -17 -28 -46q0 -22 18.5 -35t61.5 -28z" />
    <glyph glyph-name="dieresis" unicode="&#xa8;" horiz-adv-x="429" 
d="M113 750q-35 0 -59 24t-24 59t24 59t59 24t59 -24t24 -59t-24 -59t-59 -24zM316 750q-34 0 -58.5 24t-24.5 59t24.5 59t58.5 24t58.5 -24t24.5 -59t-24.5 -59t-58.5 -24z" />
    <glyph glyph-name="copyright" unicode="&#xa9;" horiz-adv-x="682" 
d="M341 -12q-134 0 -224 96t-90 266t90 266t224 96q135 0 224.5 -96t89.5 -266t-89.5 -266t-224.5 -96zM341 56q111 0 178 75t67 219t-67 219t-178 75q-110 0 -177 -75t-67 -219t67 -219t177 -75zM366 148q-82 0 -134.5 52t-52.5 144q0 98 54.5 153t139.5 55q50 0 87 -21
v-110q-29 17 -63 17q-38 0 -60.5 -22t-22.5 -66q0 -43 21.5 -64t57.5 -21q44 0 71 18v-115q-39 -20 -98 -20z" />
    <glyph glyph-name="guillemotleft" unicode="&#xab;" horiz-adv-x="523" 
d="M124 45l-102 182v26l102 182h159l-111 -195l111 -195h-159zM342 45l-102 182v26l102 182h159l-110 -195l110 -195h-159z" />
    <glyph glyph-name="logicalnot" unicode="&#xac;" horiz-adv-x="461" 
d="M276 224v103h-245v149h388v-252h-143z" />
    <glyph glyph-name="registered" unicode="&#xae;" horiz-adv-x="682" 
d="M341 -12q-134 0 -224 96t-90 266t90 266t224 96q135 0 224.5 -96t89.5 -266t-89.5 -266t-224.5 -96zM341 56q111 0 178 75t67 219t-67 219t-178 75q-110 0 -177 -75t-67 -219t67 -219t177 -75zM211 154v392h150q66 0 102.5 -34t36.5 -98q0 -78 -58 -112l59 -148h-106
l-53 127h-22v-127h-109zM320 368h32q39 0 39 41q0 39 -39 39h-32v-80z" />
    <glyph glyph-name="macron" unicode="&#xaf;" horiz-adv-x="362" 
d="M332 893v-127h-302v127h302z" />
    <glyph glyph-name="degree" unicode="&#xb0;" horiz-adv-x="384" 
d="M192 372q-75 0 -123.5 46t-48.5 125t48.5 125t123.5 46q77 0 125 -46t48 -125t-48 -125t-125 -46zM192 491q24 0 37 14t13 38t-13 38t-37 14q-49 0 -49 -52q0 -24 12.5 -38t36.5 -14z" />
    <glyph glyph-name="plusminus" unicode="&#xb1;" horiz-adv-x="504" 
d="M181 241v134h-140v142h140v133h142v-133h141v-142h-141v-134h-142zM41 50v141h423v-141h-423z" />
    <glyph glyph-name="acute" unicode="&#xb4;" horiz-adv-x="319" 
d="M30 756l83 153h176l-108 -153h-151z" />
    <glyph glyph-name="paragraph" unicode="&#xb6;" horiz-adv-x="669" 
d="M205 -220v486q-85 0 -136.5 57t-51.5 160t51.5 160t136.5 57h399v-920h-169v760h-61v-760h-169z" />
    <glyph glyph-name="periodcentered" unicode="&#xb7;" horiz-adv-x="238" 
d="M119 150q-38 0 -64.5 23t-26.5 67q0 43 26.5 66t64.5 23q37 0 63.5 -23t26.5 -66q0 -44 -26.5 -67t-63.5 -23z" />
    <glyph glyph-name="cedilla" unicode="&#xb8;" horiz-adv-x="289" 
d="M200 0l-13 -48q72 -15 72 -84q0 -48 -38 -75t-89 -27q-61 0 -102 17v100q30 -12 64 -12q44 0 44 25q0 14 -22.5 19.5t-57.5 -0.5l21 85h121z" />
    <glyph glyph-name="guillemotright" unicode="&#xbb;" horiz-adv-x="523" 
d="M181 45h-158l110 195l-110 195h158l103 -182v-26zM399 45h-158l110 195l-110 195h158l103 -182v-26z" />
    <glyph glyph-name="onequarter" unicode="&#xbc;" horiz-adv-x="781" 
d="M194 -14l357 728h46l-357 -728h-46zM29 272v118h66v162l-59 -23v115l90 36h93v-290h62v-118h-252zM603 0v56h-184v93l171 259h130v-253h42v-101h-42v-54h-117zM532 152h75v114z" />
    <glyph glyph-name="onehalf" unicode="&#xbd;" horiz-adv-x="780" 
d="M192 -14l357 728h46l-357 -728h-46zM27 272v118h66v162l-59 -23v115l90 36h93v-290h62v-118h-252zM615 417q61 0 101 -33t40 -97q0 -54 -46 -100q-14 -15 -36 -30.5t-36.5 -25.5t-15.5 -17h134v-114h-283l1 83q0 29 19.5 57t34.5 40t50 38q52 38 52 58q0 27 -35 27
q-52 0 -110 -35v118q59 31 130 31z" />
    <glyph glyph-name="threequarters" unicode="&#xbe;" horiz-adv-x="786" 
d="M202 -14l357 728h46l-357 -728h-46zM139 269q-63 0 -110 18v107q45 -15 92 -15q68 0 68 34q0 27 -46 27h-50v94h40q43 0 43 26q0 29 -53 29q-40 0 -93 -20v103q52 22 116 22q69 0 110 -29t41 -84q0 -60 -47 -87q64 -29 64 -102q0 -63 -49 -93t-126 -30zM609 0v56h-185v93
l171 259h131v-253h41v-101h-41v-54h-117zM537 152h75v114z" />
    <glyph glyph-name="questiondown" unicode="&#xbf;" horiz-adv-x="420" 
d="M226 494q37 0 64 -23t27 -67t-27 -66.5t-64 -22.5q-38 0 -64 22.5t-26 66.5t26 67t64 23zM302 249q0 -46 -16.5 -87.5t-36.5 -67t-36.5 -56.5t-16.5 -58q0 -49 66 -49t136 50v-165q-89 -49 -175 -49q-84 0 -145 43.5t-61 128.5q0 48 21 94.5t46.5 76.5t46.5 68t21 71h150
z" />
    <glyph glyph-name="Agrave" unicode="&#xc0;" horiz-adv-x="610" 
d="M250 756l-108 153h175l84 -153h-151zM-4 0l222 700h174l222 -700h-180l-29 105h-199l-29 -105h-181zM241 247h128l-33 120q-21 80 -31 151q-11 -80 -30 -151z" />
    <glyph glyph-name="Aacute" unicode="&#xc1;" horiz-adv-x="610" 
d="M210 756l83 153h175l-108 -153h-150zM-4 0l222 700h174l222 -700h-180l-29 105h-199l-29 -105h-181zM241 247h128l-33 120q-21 80 -31 151q-11 -80 -30 -151z" />
    <glyph glyph-name="Acircumflex" unicode="&#xc2;" horiz-adv-x="610" 
d="M382 909l101 -156h-138l-40 58l-40 -58h-139l101 156h155zM-4 0l222 700h174l222 -700h-180l-29 105h-199l-29 -105h-181zM241 247h128l-33 120q-21 80 -31 151q-11 -80 -30 -151z" />
    <glyph glyph-name="Atilde" unicode="&#xc3;" horiz-adv-x="610" 
d="M376 745q-33 0 -72.5 19t-52.5 19q-22 0 -24 -32h-81q-19 73 6 115.5t78 42.5q34 0 73.5 -18.5t52.5 -18.5q4 0 7.5 1t5.5 2t4 3.5t3 4t2 5t1.5 5.5l1.5 6t1 5h80q18 -73 -7 -116t-79 -43zM-4 0l222 700h174l222 -700h-180l-29 105h-199l-29 -105h-181zM241 247h128
l-33 120q-21 80 -31 151q-11 -80 -30 -151z" />
    <glyph glyph-name="Adieresis" unicode="&#xc4;" horiz-adv-x="610" 
d="M203 750q-35 0 -59 24t-24 59t24 59t59 24t59 -24t24 -59t-24 -59t-59 -24zM406 750q-34 0 -58.5 24t-24.5 59t24.5 59t58.5 24t58.5 -24t24.5 -59t-24.5 -59t-58.5 -24zM-4 0l222 700h174l222 -700h-180l-29 105h-199l-29 -105h-181zM241 247h128l-33 120
q-21 80 -31 151q-11 -80 -30 -151z" />
    <glyph glyph-name="Aring" unicode="&#xc5;" horiz-adv-x="610" 
d="M305 736q-57 0 -94 34t-37 92t37 91.5t94 33.5q58 0 94.5 -33.5t36.5 -91.5q0 -59 -36.5 -92.5t-94.5 -33.5zM305 827q32 0 32 35q0 34 -32 34t-32 -34q0 -35 32 -35zM-4 0l222 700h174l222 -700h-180l-29 105h-199l-29 -105h-181zM241 247h128l-33 120q-21 80 -31 151
q-11 -80 -30 -151z" />
    <glyph glyph-name="AE" unicode="&#xc6;" horiz-adv-x="790" 
d="M541 156h220v-156h-389v100h-157l-44 -100h-182l318 700h448v-154h-214v-119h191v-150h-191v-121zM273 242h99v228z" />
    <glyph glyph-name="Ccedilla" unicode="&#xc7;" horiz-adv-x="503" 
d="M478 11q-48 -19 -102 -23l-10 -36q72 -15 72 -84q0 -48 -37.5 -75t-88.5 -27q-62 0 -103 17v100q30 -12 64 -12q44 0 44 25q0 14 -22.5 19.5t-57.5 -0.5l21 80q-106 25 -170.5 114t-64.5 236q1 174 90 271.5t227 97.5q65 0 133 -27v-167q-43 23 -108 23q-74 0 -118 -51
t-44 -147q0 -93 41.5 -141t115.5 -48q58 0 118 26v-171z" />
    <glyph glyph-name="Egrave" unicode="&#xc8;" horiz-adv-x="498" 
d="M201 756l-108 153h175l84 -153h-151zM49 0v700h413v-154h-240v-119h217v-150h-217v-121h246v-156h-419z" />
    <glyph glyph-name="Eacute" unicode="&#xc9;" horiz-adv-x="498" 
d="M161 756l83 153h175l-108 -153h-150zM49 0v700h413v-154h-240v-119h217v-150h-217v-121h246v-156h-419z" />
    <glyph glyph-name="Ecircumflex" unicode="&#xca;" horiz-adv-x="498" 
d="M333 909l101 -156h-138l-40 58l-40 -58h-139l101 156h155zM49 0v700h413v-154h-240v-119h217v-150h-217v-121h246v-156h-419z" />
    <glyph glyph-name="Edieresis" unicode="&#xcb;" horiz-adv-x="498" 
d="M154 750q-34 0 -58.5 24t-24.5 59t24.5 59t58.5 24t58.5 -24t24.5 -59t-24.5 -59t-58.5 -24zM357 750q-35 0 -59 24t-24 59t24 59t59 24t59 -24t24 -59t-24 -59t-59 -24zM49 0v700h413v-154h-240v-119h217v-150h-217v-121h246v-156h-419z" />
    <glyph glyph-name="Igrave" unicode="&#xcc;" horiz-adv-x="271" 
d="M72 756l-108 153h175l84 -153h-151zM222 700v-700h-173v700h173z" />
    <glyph glyph-name="Iacute" unicode="&#xcd;" horiz-adv-x="271" 
d="M32 756l83 153h175l-108 -153h-150zM222 700v-700h-173v700h173z" />
    <glyph glyph-name="Icircumflex" unicode="&#xce;" horiz-adv-x="271" 
d="M205 909l101 -156h-138l-40 58l-40 -58h-139l101 156h155zM222 700v-700h-173v700h173z" />
    <glyph glyph-name="Idieresis" unicode="&#xcf;" horiz-adv-x="271" 
d="M25 750q-35 0 -59 24t-24 59t24 59t59 24t59 -24t24 -59t-24 -59t-59 -24zM228 750q-34 0 -58.5 24t-24.5 59t24.5 59t58.5 24t58.5 -24t24.5 -59t-24.5 -59t-58.5 -24zM222 700v-700h-173v700h173z" />
    <glyph glyph-name="Eth" unicode="&#xd0;" horiz-adv-x="629" 
d="M306 700q80 0 139 -26.5t93 -75.5t50 -110.5t16 -137.5t-16 -137.5t-50 -110.5t-93 -75.5t-139 -26.5h-228v279h-63v142h63v279h228zM306 164q64 0 95 43.5t31 142.5t-31 142.5t-95 43.5h-56v-115h86v-142h-86v-115h56z" />
    <glyph glyph-name="Ntilde" unicode="&#xd1;" horiz-adv-x="619" 
d="M384 745q-33 0 -72.5 19t-52.5 19q-22 0 -24 -32h-81q-19 73 6 115.5t78 42.5q34 0 73.5 -18.5t52.5 -18.5q4 0 7.5 1t5.5 2t4 3.5t3 4t2 5t1.5 5.5l1.5 6t1 5h80q18 -73 -7 -116t-79 -43zM49 0v700h157l207 -396q-16 94 -16 183v213h172v-700h-156l-208 396
q17 -91 17 -183v-213h-173z" />
    <glyph glyph-name="Ograve" unicode="&#xd2;" horiz-adv-x="617" 
d="M253 756l-108 153h175l84 -153h-151zM308 -14q-143 0 -213 97.5t-70 266.5q0 170 70 267t213 97t213 -97t70 -267q0 -169 -70 -266.5t-213 -97.5zM308 157q54 0 79 47.5t25 145.5t-25 145.5t-79 47.5q-103 0 -103 -193t103 -193z" />
    <glyph glyph-name="Oacute" unicode="&#xd3;" horiz-adv-x="617" 
d="M214 756l83 153h175l-108 -153h-150zM308 -14q-143 0 -213 97.5t-70 266.5q0 170 70 267t213 97t213 -97t70 -267q0 -169 -70 -266.5t-213 -97.5zM308 157q54 0 79 47.5t25 145.5t-25 145.5t-79 47.5q-103 0 -103 -193t103 -193z" />
    <glyph glyph-name="Ocircumflex" unicode="&#xd4;" horiz-adv-x="617" 
d="M386 909l101 -156h-138l-40 58l-40 -58h-139l101 156h155zM308 -14q-143 0 -213 97.5t-70 266.5q0 170 70 267t213 97t213 -97t70 -267q0 -169 -70 -266.5t-213 -97.5zM308 157q54 0 79 47.5t25 145.5t-25 145.5t-79 47.5q-103 0 -103 -193t103 -193z" />
    <glyph glyph-name="Otilde" unicode="&#xd5;" horiz-adv-x="617" 
d="M380 745q-33 0 -72.5 19t-52.5 19q-22 0 -24 -32h-81q-19 73 6 115.5t78 42.5q34 0 73.5 -18.5t52.5 -18.5q4 0 7.5 1t5.5 2t4 3.5t3 4t2 5t1.5 5.5l1.5 6t1 5h80q18 -73 -7 -116t-79 -43zM308 -14q-143 0 -213 97.5t-70 266.5q0 170 70 267t213 97t213 -97t70 -267
q0 -169 -70 -266.5t-213 -97.5zM308 157q54 0 79 47.5t25 145.5t-25 145.5t-79 47.5q-103 0 -103 -193t103 -193z" />
    <glyph glyph-name="Odieresis" unicode="&#xd6;" horiz-adv-x="617" 
d="M207 750q-35 0 -59 24t-24 59t24 59t59 24t59 -24t24 -59t-24 -59t-59 -24zM410 750q-34 0 -58.5 24t-24.5 59t24.5 59t58.5 24t58.5 -24t24.5 -59t-24.5 -59t-58.5 -24zM308 -14q-143 0 -213 97.5t-70 266.5q0 170 70 267t213 97t213 -97t70 -267q0 -169 -70 -266.5
t-213 -97.5zM308 157q54 0 79 47.5t25 145.5t-25 145.5t-79 47.5q-103 0 -103 -193t103 -193z" />
    <glyph glyph-name="multiply" unicode="&#xd7;" horiz-adv-x="457" 
d="M127 150l-99 99l101 102l-101 101l99 99l102 -101l101 101l99 -99l-101 -101l101 -102l-99 -99l-101 101z" />
    <glyph glyph-name="Oslash" unicode="&#xd8;" horiz-adv-x="617" 
d="M492 650q99 -92 99 -300q0 -169 -70 -266.5t-213 -97.5q-70 0 -122 24l-28 -58h-77l46 96q-102 93 -102 302q0 170 70 267t213 97q71 0 125 -26l29 60h77zM205 350q0 -68 16 -109l136 289q-20 13 -49 13q-103 0 -103 -193zM308 157q54 0 79 47.5t25 145.5q0 67 -14 105
l-135 -286q17 -12 45 -12z" />
    <glyph glyph-name="Ugrave" unicode="&#xd9;" horiz-adv-x="609" 
d="M248 756l-108 153h175l84 -153h-151zM304 -14q-123 0 -191.5 59t-68.5 179v476h173v-461q0 -89 87 -89q88 0 88 89v461h172v-476q0 -120 -68.5 -179t-191.5 -59z" />
    <glyph glyph-name="Uacute" unicode="&#xda;" horiz-adv-x="609" 
d="M208 756l83 153h175l-108 -153h-150zM304 -14q-123 0 -191.5 59t-68.5 179v476h173v-461q0 -89 87 -89q88 0 88 89v461h172v-476q0 -120 -68.5 -179t-191.5 -59z" />
    <glyph glyph-name="Ucircumflex" unicode="&#xdb;" horiz-adv-x="609" 
d="M381 909l101 -156h-138l-40 58l-40 -58h-139l101 156h155zM304 -14q-123 0 -191.5 59t-68.5 179v476h173v-461q0 -89 87 -89q88 0 88 89v461h172v-476q0 -120 -68.5 -179t-191.5 -59z" />
    <glyph glyph-name="Udieresis" unicode="&#xdc;" horiz-adv-x="609" 
d="M201 750q-35 0 -59 24t-24 59t24 59t59 24t59 -24t24 -59t-24 -59t-59 -24zM404 750q-34 0 -58.5 24t-24.5 59t24.5 59t58.5 24t58.5 -24t24.5 -59t-24.5 -59t-58.5 -24zM304 -14q-123 0 -191.5 59t-68.5 179v476h173v-461q0 -89 87 -89q88 0 88 89v461h172v-476
q0 -120 -68.5 -179t-191.5 -59z" />
    <glyph glyph-name="Yacute" unicode="&#xdd;" horiz-adv-x="587" 
d="M198 756l83 153h175l-108 -153h-150zM208 0v265l-209 435h188l107 -263l106 263h189l-209 -435v-265h-172z" />
    <glyph glyph-name="Thorn" unicode="&#xde;" horiz-adv-x="565" 
d="M49 0v700h173v-107h85q110 0 175.5 -63t65.5 -180t-65.5 -180t-175.5 -63h-85v-107h-173zM222 264h70q40 0 61.5 22.5t21.5 63.5t-21.5 63.5t-61.5 22.5h-70v-172z" />
    <glyph glyph-name="germandbls" unicode="&#xdf;" horiz-adv-x="516" 
d="M402 0q-60 -23 -151 -4v134q32 -9 51 -2q33 5 33 44q0 32 -41 109t-41 110q0 27 22.5 73t22.5 68t-10.5 35t-30.5 13q-54 0 -54 -82v-498h-164v488q0 109 58 167t163 59q95 1 148.5 -49t53.5 -108q0 -49 -29.5 -101t-29.5 -73q0 -20 15 -46t33 -50.5t33 -65t15 -84.5
q0 -52 -25.5 -87.5t-71.5 -49.5z" />
    <glyph glyph-name="agrave" unicode="&#xe0;" horiz-adv-x="476" 
d="M172 543l-108 153h175l84 -153h-151zM456 111q6 0 16 2v-110q-39 -11 -78 -11q-64 0 -96 35q-49 -41 -127 -41q-66 0 -110 39t-44 112t48.5 112.5t130.5 39.5q36 0 72 -9v21q0 58 -74 58q-75 0 -147 -29v135q84 29 164 29q107 0 162.5 -46.5t55.5 -156.5v-150
q0 -30 27 -30zM218 89q31 0 50 18v83q-20 5 -35 5q-60 0 -60 -55q0 -51 45 -51z" />
    <glyph glyph-name="aacute" unicode="&#xe1;" horiz-adv-x="476" 
d="M133 543l83 153h175l-108 -153h-150zM456 111q6 0 16 2v-110q-39 -11 -78 -11q-64 0 -96 35q-49 -41 -127 -41q-66 0 -110 39t-44 112t48.5 112.5t130.5 39.5q36 0 72 -9v21q0 58 -74 58q-75 0 -147 -29v135q84 29 164 29q107 0 162.5 -46.5t55.5 -156.5v-150
q0 -30 27 -30zM218 89q31 0 50 18v83q-20 5 -35 5q-60 0 -60 -55q0 -51 45 -51z" />
    <glyph glyph-name="acircumflex" unicode="&#xe2;" horiz-adv-x="476" 
d="M305 696l101 -156h-138l-40 58l-40 -58h-139l101 156h155zM456 111q6 0 16 2v-110q-39 -11 -78 -11q-64 0 -96 35q-49 -41 -127 -41q-66 0 -110 39t-44 112t48.5 112.5t130.5 39.5q36 0 72 -9v21q0 58 -74 58q-75 0 -147 -29v135q84 29 164 29q107 0 162.5 -46.5
t55.5 -156.5v-150q0 -30 27 -30zM218 89q31 0 50 18v83q-20 5 -35 5q-60 0 -60 -55q0 -51 45 -51z" />
    <glyph glyph-name="atilde" unicode="&#xe3;" horiz-adv-x="476" 
d="M299 532q-33 0 -72.5 19t-52.5 19q-22 0 -24 -32h-81q-19 73 6 115.5t78 42.5q34 0 73.5 -18.5t52.5 -18.5q4 0 7.5 1t5.5 2t4 3.5t3 4t2 5t1.5 5.5l1.5 6t1 5h80q18 -73 -7 -116t-79 -43zM456 111q6 0 16 2v-110q-39 -11 -78 -11q-64 0 -96 35q-49 -41 -127 -41
q-66 0 -110 39t-44 112t48.5 112.5t130.5 39.5q36 0 72 -9v21q0 58 -74 58q-75 0 -147 -29v135q84 29 164 29q107 0 162.5 -46.5t55.5 -156.5v-150q0 -30 27 -30zM218 89q31 0 50 18v83q-20 5 -35 5q-60 0 -60 -55q0 -51 45 -51z" />
    <glyph glyph-name="adieresis" unicode="&#xe4;" horiz-adv-x="476" 
d="M126 537q-34 0 -58.5 24.5t-24.5 58.5t24.5 58.5t58.5 24.5t58.5 -24.5t24.5 -58.5t-24.5 -58.5t-58.5 -24.5zM329 537q-35 0 -59 24.5t-24 58.5t24 58.5t59 24.5t59 -24.5t24 -58.5t-24 -58.5t-59 -24.5zM456 111q6 0 16 2v-110q-39 -11 -78 -11q-64 0 -96 35
q-49 -41 -127 -41q-66 0 -110 39t-44 112t48.5 112.5t130.5 39.5q36 0 72 -9v21q0 58 -74 58q-75 0 -147 -29v135q84 29 164 29q107 0 162.5 -46.5t55.5 -156.5v-150q0 -30 27 -30zM218 89q31 0 50 18v83q-20 5 -35 5q-60 0 -60 -55q0 -51 45 -51z" />
    <glyph glyph-name="aring" unicode="&#xe5;" horiz-adv-x="476" 
d="M227 523q-57 0 -94 34t-37 92t37 91.5t94 33.5q58 0 94.5 -33.5t36.5 -91.5q0 -59 -36.5 -92.5t-94.5 -33.5zM227 614q32 0 32 35q0 34 -32 34t-32 -34q0 -35 32 -35zM456 111q6 0 16 2v-110q-39 -11 -78 -11q-64 0 -96 35q-49 -41 -127 -41q-66 0 -110 39t-44 112
t48.5 112.5t130.5 39.5q36 0 72 -9v21q0 58 -74 58q-75 0 -147 -29v135q84 29 164 29q107 0 162.5 -46.5t55.5 -156.5v-150q0 -30 27 -30zM218 89q31 0 50 18v83q-20 5 -35 5q-60 0 -60 -55q0 -51 45 -51z" />
    <glyph glyph-name="ae" unicode="&#xe6;" horiz-adv-x="707" 
d="M187 -14q-74 0 -122 40.5t-48 110.5q0 73 48.5 112.5t128.5 39.5q37 0 73 -9v24q0 55 -74 55t-146 -29v135q84 29 154 29q101 0 150 -56q50 56 138 56q99 0 154 -78.5t43 -224.5h-258q8 -43 34 -60.5t75 -17.5q65 0 121 21v-122q-60 -26 -146 -26q-105 0 -165 45
q-66 -45 -160 -45zM423 276h114q-3 85 -52 85q-53 0 -62 -85zM223 104q35 0 55 21q-8 32 -11 61q-15 5 -35 5q-59 0 -59 -44q0 -43 50 -43z" />
    <glyph glyph-name="ccedilla" unicode="&#xe7;" horiz-adv-x="393" 
d="M369 6q-28 -12 -66 -17l-10 -37q72 -15 72 -84q0 -48 -37.5 -75t-88.5 -27q-62 0 -103 17v100q30 -12 64 -12q44 0 44 25q0 14 -22.5 19.5t-57.5 -0.5l20 79q-73 20 -118 81.5t-45 158.5q0 124 66 192t171 68q61 0 106 -21v-134q-36 17 -78 17q-45 0 -72.5 -30t-27.5 -86
q0 -55 26 -84t70 -29q47 0 87 19v-140z" />
    <glyph glyph-name="egrave" unicode="&#xe8;" horiz-adv-x="471" 
d="M181 536l-108 153h175l84 -153h-151zM276 -14q-121 0 -187.5 67t-66.5 187q0 119 58.5 186.5t162.5 67.5t161.5 -81.5t45.5 -231.5h-258q18 -75 109 -75q65 0 121 21v-115q-60 -26 -146 -26zM185 280h115q-2 85 -53 85q-56 0 -62 -85z" />
    <glyph glyph-name="eacute" unicode="&#xe9;" horiz-adv-x="471" 
d="M141 536l83 153h175l-108 -153h-150zM276 -14q-121 0 -187.5 67t-66.5 187q0 119 58.5 186.5t162.5 67.5t161.5 -81.5t45.5 -231.5h-258q18 -75 109 -75q65 0 121 21v-115q-60 -26 -146 -26zM185 280h115q-2 85 -53 85q-56 0 -62 -85z" />
    <glyph glyph-name="ecircumflex" unicode="&#xea;" horiz-adv-x="471" 
d="M313 689l101 -156h-138l-40 58l-40 -58h-139l101 156h155zM276 -14q-121 0 -187.5 67t-66.5 187q0 119 58.5 186.5t162.5 67.5t161.5 -81.5t45.5 -231.5h-258q18 -75 109 -75q65 0 121 21v-115q-60 -26 -146 -26zM185 280h115q-2 85 -53 85q-56 0 -62 -85z" />
    <glyph glyph-name="edieresis" unicode="&#xeb;" horiz-adv-x="471" 
d="M134 530q-34 0 -58.5 24t-24.5 59t24.5 59t58.5 24t58.5 -24t24.5 -59t-24.5 -59t-58.5 -24zM337 530q-35 0 -59 24t-24 59t24 59t59 24t59 -24t24 -59t-24 -59t-59 -24zM276 -14q-121 0 -187.5 67t-66.5 187q0 119 58.5 186.5t162.5 67.5t161.5 -81.5t45.5 -231.5h-258
q18 -75 109 -75q65 0 121 21v-115q-60 -26 -146 -26zM185 280h115q-2 85 -53 85q-56 0 -62 -85z" />
    <glyph glyph-name="igrave" unicode="&#xec;" horiz-adv-x="243" 
d="M76 536l-91 163h170l64 -163h-143zM40 0v480h164v-480h-164z" />
    <glyph glyph-name="iacute" unicode="&#xed;" horiz-adv-x="243" 
d="M25 536l63 163h170l-91 -163h-142zM40 0v480h164v-480h-164z" />
    <glyph glyph-name="icircumflex" unicode="&#xee;" horiz-adv-x="243" 
d="M-27 529l78 167h141l79 -167h-117l-32 71l-32 -71h-117zM40 0v480h164v-480h-164z" />
    <glyph glyph-name="idieresis" unicode="&#xef;" horiz-adv-x="243" 
d="M108 599q0 -31 -21.5 -53t-52.5 -22t-53 22t-22 53t22 52.5t53 21.5t52.5 -21.5t21.5 -52.5zM210 673q31 0 52.5 -21.5t21.5 -52.5t-21.5 -53t-52.5 -22t-53 22t-22 53t22 52.5t53 21.5zM40 0v480h164v-480h-164z" />
    <glyph glyph-name="eth" unicode="&#xf0;" horiz-adv-x="483" 
d="M328 625q128 -113 128 -354q0 -285 -219 -285q-100 0 -158 60t-58 171q0 96 50.5 153t131.5 57q48 0 80 -20q-17 73 -56 111l-66 -69l-60 57l50 52q-39 12 -89 12v141q112 0 195 -40l59 62l60 -58zM240 121q37 0 47.5 35.5t7.5 117.5q-18 26 -51 26q-62 0 -62 -87
q0 -92 58 -92z" />
    <glyph glyph-name="ntilde" unicode="&#xf1;" 
d="M319 525q-33 0 -72.5 19t-52.5 19q-22 0 -24 -32h-81q-19 73 6 115.5t78 42.5q34 0 73.5 -18.5t52.5 -18.5q4 0 7.5 1t5.5 2t4 3.5t3 4t2 5t1.5 5.5l1.5 6t1 5h80q18 -73 -7 -116t-79 -43zM39 0v480h148v-43q48 57 128 57q58 0 101 -39.5t43 -110.5v-344h-164v303
q0 39 -38 39q-33 0 -54 -34v-308h-164z" />
    <glyph glyph-name="ograve" unicode="&#xf2;" horiz-adv-x="494" 
d="M192 529l-108 153h175l84 -153h-151zM247 494q107 0 165.5 -67.5t58.5 -186.5t-58.5 -186.5t-165.5 -67.5t-166 67.5t-59 186.5t59 186.5t166 67.5zM247 354q-32 0 -46 -27.5t-14 -86.5t14 -86t46 -27t46 27t14 86t-14 86.5t-46 27.5z" />
    <glyph glyph-name="oacute" unicode="&#xf3;" horiz-adv-x="494" 
d="M152 529l83 153h175l-108 -153h-150zM247 494q107 0 165.5 -67.5t58.5 -186.5t-58.5 -186.5t-165.5 -67.5t-166 67.5t-59 186.5t59 186.5t166 67.5zM247 354q-32 0 -46 -27.5t-14 -86.5t14 -86t46 -27t46 27t14 86t-14 86.5t-46 27.5z" />
    <glyph glyph-name="ocircumflex" unicode="&#xf4;" horiz-adv-x="494" 
d="M324 682l101 -156h-138l-40 58l-40 -58h-139l101 156h155zM247 494q107 0 165.5 -67.5t58.5 -186.5t-58.5 -186.5t-165.5 -67.5t-166 67.5t-59 186.5t59 186.5t166 67.5zM247 354q-32 0 -46 -27.5t-14 -86.5t14 -86t46 -27t46 27t14 86t-14 86.5t-46 27.5z" />
    <glyph glyph-name="otilde" unicode="&#xf5;" horiz-adv-x="494" 
d="M318 518q-33 0 -72.5 19t-52.5 19q-22 0 -24 -32h-81q-19 73 6 115.5t78 42.5q34 0 73.5 -18.5t52.5 -18.5q4 0 7.5 1t5.5 2t4 3.5t3 4t2 5t1.5 5.5l1.5 6t1 5h80q18 -73 -7 -116t-79 -43zM247 494q107 0 165.5 -67.5t58.5 -186.5t-58.5 -186.5t-165.5 -67.5t-166 67.5
t-59 186.5t59 186.5t166 67.5zM247 354q-32 0 -46 -27.5t-14 -86.5t14 -86t46 -27t46 27t14 86t-14 86.5t-46 27.5z" />
    <glyph glyph-name="odieresis" unicode="&#xf6;" horiz-adv-x="494" 
d="M145 523q-35 0 -59 24.5t-24 58.5t24 58.5t59 24.5t59 -24.5t24 -58.5t-24 -58.5t-59 -24.5zM348 523q-34 0 -58.5 24.5t-24.5 58.5t24.5 58.5t58.5 24.5t58.5 -24.5t24.5 -58.5t-24.5 -58.5t-58.5 -24.5zM247 494q107 0 165.5 -67.5t58.5 -186.5t-58.5 -186.5
t-165.5 -67.5t-166 67.5t-59 186.5t59 186.5t166 67.5zM247 354q-32 0 -46 -27.5t-14 -86.5t14 -86t46 -27t46 27t14 86t-14 86.5t-46 27.5z" />
    <glyph glyph-name="divide" unicode="&#xf7;" horiz-adv-x="446" 
d="M223 463q-37 0 -63.5 22.5t-26.5 65.5q0 44 26.5 67t63.5 23q38 0 64 -23t26 -67q0 -43 -26 -65.5t-64 -22.5zM25 277v145h395v-145h-395zM223 58q-37 0 -63.5 23t-26.5 67q0 43 26.5 65.5t63.5 22.5q38 0 64 -22.5t26 -65.5q0 -44 -26 -67t-64 -23z" />
    <glyph glyph-name="oslash" unicode="&#xf8;" horiz-adv-x="493" 
d="M384 451q87 -66 87 -211q0 -118 -58.5 -185t-165.5 -67q-54 0 -96 18l-36 -68h-54l48 92q-87 66 -87 210q0 117 59 184.5t166 67.5q54 0 96 -18l36 69h54zM180 240q0 -40 9 -61l88 172q-14 7 -30 7q-67 0 -67 -118zM247 123q67 0 67 117q0 36 -9 62l-89 -172q13 -7 31 -7
z" />
    <glyph glyph-name="ugrave" unicode="&#xf9;" 
d="M187 536l-108 153h175l84 -153h-151zM456 480v-480h-148v44q-48 -58 -128 -58q-57 0 -100.5 39.5t-43.5 110.5v344h164v-303q0 -39 38 -39q33 0 54 34v308h164z" />
    <glyph glyph-name="uacute" unicode="&#xfa;" 
d="M148 536l83 153h175l-108 -153h-150zM456 480v-480h-148v44q-48 -58 -128 -58q-57 0 -100.5 39.5t-43.5 110.5v344h164v-303q0 -39 38 -39q33 0 54 34v308h164z" />
    <glyph glyph-name="ucircumflex" unicode="&#xfb;" 
d="M320 689l101 -156h-138l-40 58l-40 -58h-139l101 156h155zM456 480v-480h-148v44q-48 -58 -128 -58q-57 0 -100.5 39.5t-43.5 110.5v344h164v-303q0 -39 38 -39q33 0 54 34v308h164z" />
    <glyph glyph-name="udieresis" unicode="&#xfc;" 
d="M141 530q-35 0 -59 24t-24 59t24 59t59 24t59 -24t24 -59t-24 -59t-59 -24zM344 530q-34 0 -58.5 24t-24.5 59t24.5 59t58.5 24t58.5 -24t24.5 -59t-24.5 -59t-58.5 -24zM456 480v-480h-148v44q-48 -58 -128 -58q-57 0 -100.5 39.5t-43.5 110.5v344h164v-303
q0 -39 38 -39q33 0 54 34v308h164z" />
    <glyph glyph-name="yacute" unicode="&#xfd;" horiz-adv-x="502" 
d="M148 536l83 153h175l-108 -153h-150zM68 -220v134q24 -4 45 4q27 7 47 33q13 15 25 43l-186 486h179l79 -276l62 276h180l-171 -537q-29 -93 -88 -137q-70 -49 -172 -26z" />
    <glyph glyph-name="thorn" unicode="&#xfe;" horiz-adv-x="501" 
d="M39 -220v920h164v-253q42 47 108 47q83 0 124.5 -68t41.5 -186t-41.5 -186t-124.5 -68q-66 0 -108 47v-253h-164zM258 127q31 0 44.5 28t13.5 85t-13.5 85t-44.5 28q-35 0 -55 -37v-152q20 -37 55 -37z" />
    <glyph glyph-name="ydieresis" unicode="&#xff;" horiz-adv-x="502" 
d="M141 530q-35 0 -59 24t-24 59t24 59t59 24t59 -24t24 -59t-24 -59t-59 -24zM344 530q-34 0 -58.5 24t-24.5 59t24.5 59t58.5 24t58.5 -24t24.5 -59t-24.5 -59t-58.5 -24zM68 -220v134q24 -4 45 4q27 7 47 33q13 15 25 43l-186 486h179l79 -276l62 276h180l-171 -537
q-29 -93 -88 -137q-70 -49 -172 -26z" />
    <glyph glyph-name="Amacron" unicode="&#x100;" horiz-adv-x="610" 
d="M456 893v-127h-302v127h302zM-4 0l222 700h174l222 -700h-180l-29 105h-199l-29 -105h-181zM241 247h128l-33 120q-21 80 -31 151q-11 -80 -30 -151z" />
    <glyph glyph-name="amacron" unicode="&#x101;" horiz-adv-x="476" 
d="M378 680v-127h-302v127h302zM456 111q6 0 16 2v-110q-39 -11 -78 -11q-64 0 -96 35q-49 -41 -127 -41q-66 0 -110 39t-44 112t48.5 112.5t130.5 39.5q36 0 72 -9v21q0 58 -74 58q-75 0 -147 -29v135q84 29 164 29q107 0 162.5 -46.5t55.5 -156.5v-150q0 -30 27 -30z
M218 89q31 0 50 18v83q-20 5 -35 5q-60 0 -60 -55q0 -51 45 -51z" />
    <glyph glyph-name="Abreve" unicode="&#x102;" horiz-adv-x="610" 
d="M305 752q-82 0 -145 35v117q61 -31 145 -31q85 0 144 31v-117q-63 -35 -144 -35zM-4 0l222 700h174l222 -700h-180l-29 105h-199l-29 -105h-181zM241 247h128l-33 120q-21 80 -31 151q-11 -80 -30 -151z" />
    <glyph glyph-name="abreve" unicode="&#x103;" horiz-adv-x="476" 
d="M228 538q-82 0 -145 35v117q61 -31 145 -31q85 0 144 31v-117q-63 -35 -144 -35zM456 111q6 0 16 2v-110q-39 -11 -78 -11q-64 0 -96 35q-49 -41 -127 -41q-66 0 -110 39t-44 112t48.5 112.5t130.5 39.5q36 0 72 -9v21q0 58 -74 58q-75 0 -147 -29v135q84 29 164 29
q107 0 162.5 -46.5t55.5 -156.5v-150q0 -30 27 -30zM218 89q31 0 50 18v83q-20 5 -35 5q-60 0 -60 -55q0 -51 45 -51z" />
    <glyph glyph-name="Aogonek" unicode="&#x104;" horiz-adv-x="610" 
d="M559 -93q0 -26 28 -26q13 0 27 7v-105q-31 -16 -80 -16q-61 0 -91 26.5t-30 68.5q0 75 68 138h-47l-29 105h-199l-29 -105h-181l222 700h174l222 -700q-55 -51 -55 -93zM241 247h128l-33 120q-21 80 -31 151q-11 -80 -30 -151z" />
    <glyph glyph-name="aogonek" unicode="&#x105;" horiz-adv-x="476" 
d="M392 -231q-61 0 -91 26.5t-30 69.5q0 71 65 136q-24 10 -38 26q-49 -41 -127 -41q-66 0 -110 39t-44 112t48.5 112.5t130.5 39.5q36 0 72 -9v21q0 58 -74 58q-75 0 -147 -29v135q84 29 164 29q107 0 162.5 -46.5t55.5 -156.5v-150q0 -30 27 -30q6 0 16 2v-110
q-55 -52 -55 -88q0 -31 28 -31q13 0 27 7v-105q-32 -17 -80 -17zM218 89q31 0 50 18v83q-20 5 -35 5q-60 0 -60 -55q0 -51 45 -51z" />
    <glyph glyph-name="Cacute" unicode="&#x106;" horiz-adv-x="503" 
d="M223 756l83 153h175l-108 -153h-150zM339 -14q-136 0 -226 92t-90 267q1 174 90 271.5t227 97.5q65 0 133 -27v-167q-43 23 -108 23q-74 0 -118 -51t-44 -147q0 -93 41.5 -141t115.5 -48q58 0 118 26v-171q-66 -25 -139 -25z" />
    <glyph glyph-name="cacute" unicode="&#x107;" horiz-adv-x="393" 
d="M126 536l83 153h175l-108 -153h-150zM250 -14q-99 0 -164 65t-65 183q0 124 66 192t171 68q61 0 106 -21v-134q-36 17 -78 17q-45 0 -72.5 -30t-27.5 -86q0 -55 26 -84t70 -29q47 0 87 19v-140q-47 -20 -119 -20z" />
    <glyph glyph-name="Cdotaccent" unicode="&#x10a;" horiz-adv-x="503" 
d="M318 750q-39 0 -65 24t-26 67q0 41 26 65.5t65 24.5t65 -24t26 -66q0 -43 -25.5 -67t-65.5 -24zM339 -14q-136 0 -226 92t-90 267q1 174 90 271.5t227 97.5q65 0 133 -27v-167q-43 23 -108 23q-74 0 -118 -51t-44 -147q0 -93 41.5 -141t115.5 -48q58 0 118 26v-171
q-66 -25 -139 -25z" />
    <glyph glyph-name="cdotaccent" unicode="&#x10b;" horiz-adv-x="393" 
d="M221 530q-39 0 -65 24t-26 67q0 41 26 65.5t65 24.5t65 -24t26 -66q0 -43 -25.5 -67t-65.5 -24zM250 -14q-99 0 -164 65t-65 183q0 124 66 192t171 68q61 0 106 -21v-134q-36 17 -78 17q-45 0 -72.5 -30t-27.5 -86q0 -55 26 -84t70 -29q47 0 87 19v-140q-47 -20 -119 -20
z" />
    <glyph glyph-name="Ccaron" unicode="&#x10c;" horiz-adv-x="503" 
d="M396 753h-155l-101 156h139l40 -58l40 58h138zM339 -14q-136 0 -226 92t-90 267q1 174 90 271.5t227 97.5q65 0 133 -27v-167q-43 23 -108 23q-74 0 -118 -51t-44 -147q0 -93 41.5 -141t115.5 -48q58 0 118 26v-171q-66 -25 -139 -25z" />
    <glyph glyph-name="ccaron" unicode="&#x10d;" horiz-adv-x="393" 
d="M299 533h-155l-101 156h139l40 -58l40 58h138zM250 -14q-99 0 -164 65t-65 183q0 124 66 192t171 68q61 0 106 -21v-134q-36 17 -78 17q-45 0 -72.5 -30t-27.5 -86q0 -55 26 -84t70 -29q47 0 87 19v-140q-47 -20 -119 -20z" />
    <glyph glyph-name="Dcaron" unicode="&#x10e;" horiz-adv-x="601" 
d="M352 753h-155l-101 156h139l40 -58l40 58h138zM278 700q155 0 226.5 -95.5t71.5 -254.5t-71.5 -254.5t-226.5 -95.5h-229v700h229zM278 536h-56v-372h56q64 0 94.5 43.5t30.5 142.5t-30.5 142.5t-94.5 43.5z" />
    <glyph glyph-name="dcaron" unicode="&#x10f;" horiz-adv-x="604" 
d="M24 240q0 118 41.5 186t124.5 68q66 0 108 -47v253h164v-700h-148v47q-39 -61 -119 -61q-47 0 -81.5 21t-53.5 58t-27.5 80t-8.5 95zM659 700l-33 -224h-119l9 224h143zM298 164v152q-20 37 -55 37q-31 0 -44.5 -28t-13.5 -85t13.5 -85t44.5 -28q35 0 55 37z" />
    <glyph glyph-name="Dcroat" unicode="&#x110;" horiz-adv-x="629" 
d="M306 700q80 0 139 -26.5t93 -75.5t50 -110.5t16 -137.5t-16 -137.5t-50 -110.5t-93 -75.5t-139 -26.5h-228v279h-63v142h63v279h228zM306 164q64 0 95 43.5t31 142.5t-31 142.5t-95 43.5h-56v-115h86v-142h-86v-115h56z" />
    <glyph glyph-name="dcroat" unicode="&#x111;" horiz-adv-x="501" 
d="M518 641v-96h-56v-545h-148v48q-39 -62 -120 -62q-90 0 -130 72t-40 182q0 118 41 186t125 68q65 0 108 -47v98h-135v96h135v59h164v-59h56zM298 164v152q-20 37 -55 37q-31 0 -44.5 -28t-13.5 -85t13.5 -85t44.5 -28q36 0 55 37z" />
    <glyph glyph-name="Emacron" unicode="&#x112;" horiz-adv-x="498" 
d="M407 893v-127h-302v127h302zM49 0v700h413v-154h-240v-119h217v-150h-217v-121h246v-156h-419z" />
    <glyph glyph-name="emacron" unicode="&#x113;" horiz-adv-x="471" 
d="M387 673v-127h-302v127h302zM276 -14q-121 0 -187.5 67t-66.5 187q0 119 58.5 186.5t162.5 67.5t161.5 -81.5t45.5 -231.5h-258q18 -75 109 -75q65 0 121 21v-115q-60 -26 -146 -26zM185 280h115q-2 85 -53 85q-56 0 -62 -85z" />
    <glyph glyph-name="Edotaccent" unicode="&#x116;" horiz-adv-x="498" 
d="M256 750q-39 0 -65 24t-26 67q0 41 26 65.5t65 24.5t65 -24t26 -66q0 -43 -25.5 -67t-65.5 -24zM49 0v700h413v-154h-240v-119h217v-150h-217v-121h246v-156h-419z" />
    <glyph glyph-name="edotaccent" unicode="&#x117;" horiz-adv-x="471" 
d="M236 530q-39 0 -65 24t-26 67q0 41 26 65.5t65 24.5t65 -24t26 -66q0 -43 -25.5 -67t-65.5 -24zM276 -14q-121 0 -187.5 67t-66.5 187q0 119 58.5 186.5t162.5 67.5t161.5 -81.5t45.5 -231.5h-258q18 -75 109 -75q65 0 121 21v-115q-60 -26 -146 -26zM185 280h115
q-2 85 -53 85q-56 0 -62 -85z" />
    <glyph glyph-name="Eogonek" unicode="&#x118;" horiz-adv-x="498" 
d="M414 -92q0 -27 28 -27q13 0 27 7v-105q-31 -16 -80 -16q-61 0 -91 26.5t-30 68.5q0 75 68 138h-287v700h413v-154h-240v-119h217v-150h-217v-121h246v-156h1q-55 -51 -55 -92z" />
    <glyph glyph-name="eogonek" unicode="&#x119;" horiz-adv-x="472" 
d="M331 -233q-58 0 -87.5 26.5t-29.5 68.5q0 65 60 124q-4 0 -13 0.5t-13 0.5q-107 8 -166.5 74t-59.5 179q0 119 58.5 186.5t162.5 67.5t161.5 -81.5t45.5 -231.5h-258q18 -75 109 -75q65 0 121 21v-115q-66 -61 -66 -100q0 -31 28 -31q14 0 27 7v-105q-31 -16 -80 -16z
M185 280h115q-2 85 -53 85q-56 0 -62 -85z" />
    <glyph glyph-name="Ecaron" unicode="&#x11a;" horiz-adv-x="498" 
d="M333 753h-155l-101 156h139l40 -58l40 58h138zM49 0v700h413v-154h-240v-119h217v-150h-217v-121h246v-156h-419z" />
    <glyph glyph-name="ecaron" unicode="&#x11b;" horiz-adv-x="471" 
d="M313 533h-155l-101 156h139l40 -58l40 58h138zM276 -14q-121 0 -187.5 67t-66.5 187q0 119 58.5 186.5t162.5 67.5t161.5 -81.5t45.5 -231.5h-258q18 -75 109 -75q65 0 121 21v-115q-60 -26 -146 -26zM185 280h115q-2 85 -53 85q-56 0 -62 -85z" />
    <glyph glyph-name="Gbreve" unicode="&#x11e;" horiz-adv-x="560" 
d="M333 752q-82 0 -145 35v117q61 -31 145 -31q85 0 144 31v-117q-63 -35 -144 -35zM336 -14q-135 0 -224 88.5t-89 269.5q0 171 93.5 270.5t241.5 99.5q77 0 151 -28v-164q-60 24 -130 24q-81 0 -128.5 -53t-47.5 -152q0 -158 96 -183q28 -7 58 0v223h168v-350
q-78 -45 -189 -45z" />
    <glyph glyph-name="gbreve" unicode="&#x11f;" horiz-adv-x="501" 
d="M252 531q-82 0 -145 35v117q61 -31 145 -31q85 0 144 31v-117q-63 -35 -144 -35zM212 -234q-91 0 -149 26v136q55 -21 124 -21q111 0 111 87v39q-43 -47 -108 -47q-84 0 -125 68t-41 186q0 110 40 182t130 72q81 0 120 -62v48h148v-486q0 -107 -64 -167.5t-186 -60.5z
M243 127q35 0 55 37v152q-19 37 -55 37q-31 0 -44.5 -28t-13.5 -85t13.5 -85t44.5 -28z" />
    <glyph glyph-name="Gdotaccent" unicode="&#x120;" horiz-adv-x="560" 
d="M333 750q-39 0 -65 24t-26 67q0 41 26 65.5t65 24.5t65 -24t26 -66q0 -43 -25.5 -67t-65.5 -24zM336 -14q-135 0 -224 88.5t-89 269.5q0 171 93.5 270.5t241.5 99.5q77 0 151 -28v-164q-60 24 -130 24q-81 0 -128.5 -53t-47.5 -152q0 -158 96 -183q28 -7 58 0v223h168
v-350q-78 -45 -189 -45z" />
    <glyph glyph-name="gdotaccent" unicode="&#x121;" horiz-adv-x="501" 
d="M252 530q-39 0 -65 24t-26 67q0 41 26 65.5t65 24.5t65 -24t26 -66q0 -43 -25.5 -67t-65.5 -24zM212 -234q-91 0 -149 26v136q55 -21 124 -21q111 0 111 87v39q-43 -47 -108 -47q-84 0 -125 68t-41 186q0 110 40 182t130 72q81 0 120 -62v48h148v-486q0 -107 -64 -167.5
t-186 -60.5zM243 127q35 0 55 37v152q-19 37 -55 37q-31 0 -44.5 -28t-13.5 -85t13.5 -85t44.5 -28z" />
    <glyph glyph-name="Gcommaaccent" unicode="&#x122;" horiz-adv-x="560" 
d="M336 -14q-135 0 -224 88.5t-89 269.5q0 171 93.5 270.5t241.5 99.5q77 0 151 -28v-164q-60 24 -130 24q-81 0 -128.5 -53t-47.5 -152q0 -158 96 -183q28 -7 58 0v223h168v-350q-78 -45 -189 -45zM248 -302l15 232h157l-46 -232h-126z" />
    <glyph glyph-name="gcommaaccent" unicode="&#x123;" horiz-adv-x="501" 
d="M331 747l-13 -211h-151l42 211h122zM212 -234q-91 0 -149 26v136q55 -21 124 -21q111 0 111 87v39q-43 -47 -108 -47q-84 0 -125 68t-41 186q0 110 40 182t130 72q81 0 120 -62v48h148v-486q0 -107 -64 -167.5t-186 -60.5zM243 127q35 0 55 37v152q-19 37 -55 37
q-31 0 -44.5 -28t-13.5 -85t13.5 -85t44.5 -28z" />
    <glyph glyph-name="Hbar" unicode="&#x126;" horiz-adv-x="653" 
d="M641 606v-84h-62v-522h-172v268h-161v-268h-173v522h-61v84h61v94h173v-94h161v94h172v-94h62zM407 432v90h-161v-90h161z" />
    <glyph glyph-name="hbar" unicode="&#x127;" 
d="M315 494q58 0 101 -39.5t43 -110.5v-344h-164v303q0 39 -38 39q-33 0 -54 -34v-308h-164v545h-57v96h57v59h164v-59h134v-96h-134v-92q44 41 112 41z" />
    <glyph glyph-name="Imacron" unicode="&#x12a;" horiz-adv-x="271" 
d="M278 893v-127h-302v127h302zM222 700v-700h-173v700h173z" />
    <glyph glyph-name="imacron" unicode="&#x12b;" horiz-adv-x="243" 
d="M-3 542v127h249v-127h-249zM40 0v480h164v-480h-164z" />
    <glyph glyph-name="Iogonek" unicode="&#x12e;" horiz-adv-x="271" 
d="M148 -233q-58 0 -87.5 26t-29.5 69q0 74 61 138h-43v700h173v-700q-46 -52 -46 -88q0 -31 27 -31q14 0 28 7v-105q-31 -16 -83 -16z" />
    <glyph glyph-name="iogonek" unicode="&#x12f;" horiz-adv-x="243" 
d="M122 539q-40 0 -66.5 23t-26.5 67t26.5 66t66.5 22t66 -22t26 -66t-26.5 -67t-65.5 -23zM131 -233q-61 0 -91 26.5t-30 68.5q0 71 62 138l-32 2v478h164v-480q-48 -52 -48 -88q0 -31 28 -31q13 0 27 7v-105q-31 -16 -80 -16z" />
    <glyph glyph-name="Idotaccent" unicode="&#x130;" horiz-adv-x="271" 
d="M127 750q-39 0 -65 24t-26 67q0 41 26 65.5t65 24.5t65 -24t26 -66q0 -43 -25.5 -67t-65.5 -24zM222 700v-700h-173v700h173z" />
    <glyph glyph-name="dotlessi" unicode="&#x131;" horiz-adv-x="243" 
d="M40 0v480h164v-480h-164z" />
    <glyph glyph-name="IJ" unicode="&#x132;" horiz-adv-x="705" 
d="M222 700v-700h-173v700h173zM435 -14q-79 0 -145 24v161q45 -21 105 -21q93 0 93 95v291h-135v164h307v-495q0 -113 -64.5 -166t-160.5 -53z" />
    <glyph glyph-name="ij" unicode="&#x133;" horiz-adv-x="491" 
d="M122 539q-40 0 -66.5 23t-26.5 67t26.5 66t66.5 22t66 -22t26 -66t-26.5 -67t-65.5 -23zM369 539q-40 0 -66.5 23t-26.5 67t26.5 66t66.5 22t66.5 -22t26.5 -66t-26.5 -67t-66.5 -23zM40 0v480h164v-480h-164zM286 -234q-51 0 -83 13v133q18 -5 35 -5q49 0 49 52v521h164
v-547q0 -84 -46 -125.5t-119 -41.5z" />
    <glyph glyph-name="Kcommaaccent" unicode="&#x136;" horiz-adv-x="581" 
d="M49 0v700h173v-274h43l115 274h200l-165 -350l171 -350h-200l-120 273h-44v-273h-173zM221 -292l15 232h157l-46 -232h-126z" />
    <glyph glyph-name="kcommaaccent" unicode="&#x137;" horiz-adv-x="494" 
d="M39 0v700h164v-391h36l74 171h182l-122 -239l127 -241h-183l-79 168h-35v-168h-164zM172 -292l15 232h157l-46 -232h-126z" />
    <glyph glyph-name="Lacute" unicode="&#x139;" horiz-adv-x="473" 
d="M54 756l83 153h175l-108 -153h-150zM222 700v-536h239v-164h-412v700h173z" />
    <glyph glyph-name="lacute" unicode="&#x13a;" horiz-adv-x="243" 
d="M17 776l83 153h175l-108 -153h-150zM204 730v-730h-164v730h164z" />
    <glyph glyph-name="Lcommaaccent" unicode="&#x13b;" horiz-adv-x="473" 
d="M222 700v-536h239v-164h-412v700h173zM192 -292l15 232h157l-46 -232h-126z" />
    <glyph glyph-name="lcommaaccent" unicode="&#x13c;" horiz-adv-x="243" 
d="M204 730v-730h-164v730h164zM33 -292l15 232h157l-46 -232h-126z" />
    <glyph glyph-name="Lcaron" unicode="&#x13d;" horiz-adv-x="493" 
d="M222 700v-536h239v-164h-412v700h173zM452 700l-34 -224h-126l5 224h155z" />
    <glyph glyph-name="lcaron" unicode="&#x13e;" horiz-adv-x="280" 
d="M204 730v-730h-164v730h164zM404 730l-33 -224h-119l9 224h143z" />
    <glyph glyph-name="Ldot" unicode="&#x13f;" horiz-adv-x="478" 
d="M49 0v700h173v-536h239v-164h-412zM340 306q-31 0 -53 19.5t-22 56.5q0 35 22 54t53 19q30 0 52.5 -19t22.5 -54q0 -37 -22 -56.5t-53 -19.5z" />
    <glyph glyph-name="ldot" unicode="&#x140;" horiz-adv-x="403" 
d="M204 730v-730h-164v730h164zM322 309q-31 0 -53 19t-22 56q0 35 22.5 54t52.5 19q31 0 53 -19t22 -54q0 -37 -22 -56t-53 -19z" />
    <glyph glyph-name="Lslash" unicode="&#x141;" horiz-adv-x="507" 
d="M255 164h240v-164h-412v220l-66 -31v158l66 31v322h172v-244l108 51v-158l-108 -50v-135z" />
    <glyph glyph-name="lslash" unicode="&#x142;" horiz-adv-x="313" 
d="M294 492v-135l-55 -24v-333h-164v263l-54 -24v135l54 24v332h164v-262z" />
    <glyph glyph-name="Nacute" unicode="&#x143;" horiz-adv-x="619" 
d="M218 756l83 153h175l-108 -153h-150zM49 0v700h157l207 -396q-16 94 -16 183v213h172v-700h-156l-208 396q17 -91 17 -183v-213h-173z" />
    <glyph glyph-name="nacute" unicode="&#x144;" 
d="M153 536l83 153h175l-108 -153h-150zM39 0v480h148v-43q48 57 128 57q58 0 101 -39.5t43 -110.5v-344h-164v303q0 39 -38 39q-33 0 -54 -34v-308h-164z" />
    <glyph glyph-name="Ncommaaccent" unicode="&#x145;" horiz-adv-x="619" 
d="M49 0v700h157l207 -396q-16 94 -16 183v213h172v-700h-156l-208 396q17 -91 17 -183v-213h-173zM237 -292l15 232h157l-46 -232h-126z" />
    <glyph glyph-name="ncommaaccent" unicode="&#x146;" 
d="M39 0v480h148v-43q48 57 128 57q58 0 101 -39.5t43 -110.5v-344h-164v303q0 39 -38 39q-33 0 -54 -34v-308h-164zM173 -292l15 232h157l-46 -232h-126z" />
    <glyph glyph-name="Ncaron" unicode="&#x147;" horiz-adv-x="619" 
d="M390 753h-155l-101 156h139l40 -58l40 58h138zM49 0v700h157l207 -396q-16 94 -16 183v213h172v-700h-156l-208 396q17 -91 17 -183v-213h-173z" />
    <glyph glyph-name="ncaron" unicode="&#x148;" 
d="M325 533h-155l-101 156h139l40 -58l40 58h138zM39 0v480h148v-43q48 57 128 57q58 0 101 -39.5t43 -110.5v-344h-164v303q0 39 -38 39q-33 0 -54 -34v-308h-164z" />
    <glyph glyph-name="Eng" unicode="&#x14a;" horiz-adv-x="619" 
d="M404 -234q-51 0 -83 13v133q18 -5 35 -5q46 0 46 52v62l-197 375q17 -91 17 -183v-213h-173v700h157l207 -396q-16 94 -16 183v213h172v-767q0 -84 -46 -125.5t-119 -41.5z" />
    <glyph glyph-name="eng" unicode="&#x14b;" 
d="M294 -234q-37 0 -69 8v135q24 -5 39 0q31 6 31 50v344q0 39 -38 39q-33 0 -54 -34v-308h-164v480h148v-43q48 57 128 57q58 0 101 -39.5t43 -110.5v-411q0 -84 -46 -125.5t-119 -41.5z" />
    <glyph glyph-name="Omacron" unicode="&#x14c;" horiz-adv-x="617" 
d="M459 893v-127h-302v127h302zM308 -14q-143 0 -213 97.5t-70 266.5q0 170 70 267t213 97t213 -97t70 -267q0 -169 -70 -266.5t-213 -97.5zM308 157q54 0 79 47.5t25 145.5t-25 145.5t-79 47.5q-103 0 -103 -193t103 -193z" />
    <glyph glyph-name="omacron" unicode="&#x14d;" horiz-adv-x="494" 
d="M398 666v-127h-302v127h302zM247 494q107 0 165.5 -67.5t58.5 -186.5t-58.5 -186.5t-165.5 -67.5t-166 67.5t-59 186.5t59 186.5t166 67.5zM247 354q-32 0 -46 -27.5t-14 -86.5t14 -86t46 -27t46 27t14 86t-14 86.5t-46 27.5z" />
    <glyph glyph-name="Ohungarumlaut" unicode="&#x150;" horiz-adv-x="617" 
d="M125 766l66 158h159l-81 -158h-144zM317 766l74 158h159l-89 -158h-144zM308 -14q-143 0 -213 97.5t-70 266.5q0 170 70 267t213 97t213 -97t70 -267q0 -169 -70 -266.5t-213 -97.5zM308 157q54 0 79 47.5t25 145.5t-25 145.5t-79 47.5q-103 0 -103 -193t103 -193z" />
    <glyph glyph-name="ohungarumlaut" unicode="&#x151;" horiz-adv-x="494" 
d="M64 539l66 158h159l-81 -158h-144zM256 539l74 158h159l-89 -158h-144zM247 494q107 0 165.5 -67.5t58.5 -186.5t-58.5 -186.5t-165.5 -67.5t-166 67.5t-59 186.5t59 186.5t166 67.5zM247 354q-32 0 -46 -27.5t-14 -86.5t14 -86t46 -27t46 27t14 86t-14 86.5t-46 27.5z
" />
    <glyph glyph-name="OE" unicode="&#x152;" horiz-adv-x="783" 
d="M286 -14q-124 0 -192 96t-68 268q0 173 67.5 268.5t191.5 95.5q47 0 86 -14h376v-154h-207v-119h184v-150h-184v-121h213v-156h-382q-37 -14 -85 -14zM316 157q31 0 55 11v364q-24 11 -55 11q-110 0 -110 -193t110 -193z" />
    <glyph glyph-name="oe" unicode="&#x153;" horiz-adv-x="738" 
d="M231 -14q-101 0 -154.5 68.5t-53.5 185.5t53.5 185.5t154.5 68.5q99 0 144 -77q53 77 152 77q100 0 150 -78.5t38 -224.5h-259q9 -42 35.5 -60t74.5 -18q66 0 121 21v-122q-58 -26 -125 -26q-129 0 -186 76q-45 -76 -145 -76zM453 276h113q-3 85 -52 85q-54 0 -61 -85z
M242 127q31 0 44 27t13 86t-13 86.5t-44 27.5t-44 -27t-13 -87q0 -59 13 -86t44 -27z" />
    <glyph glyph-name="Racute" unicode="&#x154;" horiz-adv-x="587" 
d="M184 756l83 153h175l-108 -153h-150zM49 0v700h260q107 0 177 -61t70 -175q0 -149 -108 -206l131 -258h-187l-111 228h-59v-228h-173zM222 382h80q37 0 59 20.5t22 58.5t-22 58.5t-59 20.5h-80v-158z" />
    <glyph glyph-name="racute" unicode="&#x155;" horiz-adv-x="345" 
d="M87 536l83 153h175l-108 -153h-150zM39 0v480h148v-67q41 86 147 77v-167q-93 13 -131 -66v-257h-164z" />
    <glyph glyph-name="Rcommaaccent" unicode="&#x156;" horiz-adv-x="587" 
d="M49 0v700h260q107 0 177 -61t70 -175q0 -149 -108 -206l131 -258h-187l-111 228h-59v-228h-173zM222 382h80q37 0 59 20.5t22 58.5t-22 58.5t-59 20.5h-80v-158zM222 -292l15 232h157l-46 -232h-126z" />
    <glyph glyph-name="rcommaaccent" unicode="&#x157;" horiz-adv-x="345" 
d="M39 0v480h148v-67q41 86 147 77v-167q-93 13 -131 -66v-257h-164zM27 -292l15 232h157l-46 -232h-126z" />
    <glyph glyph-name="Rcaron" unicode="&#x158;" horiz-adv-x="587" 
d="M356 753h-155l-101 156h139l40 -58l40 58h138zM49 0v700h260q107 0 177 -61t70 -175q0 -149 -108 -206l131 -258h-187l-111 228h-59v-228h-173zM222 382h80q37 0 59 20.5t22 58.5t-22 58.5t-59 20.5h-80v-158z" />
    <glyph glyph-name="rcaron" unicode="&#x159;" horiz-adv-x="345" 
d="M259 533h-155l-101 156h139l40 -58l40 58h138zM39 0v480h148v-67q41 86 147 77v-167q-93 13 -131 -66v-257h-164z" />
    <glyph glyph-name="Sacute" unicode="&#x15a;" horiz-adv-x="525" 
d="M152 756l83 153h175l-108 -153h-150zM257 -14q-118 0 -215 45v175q91 -56 197 -56q89 0 89 54q0 22 -22.5 38.5t-56.5 27t-73.5 28.5t-73.5 40t-56.5 63.5t-22.5 97.5q0 107 69.5 161t176.5 54q102 0 194 -49v-168q-97 57 -182 57q-82 0 -82 -52q0 -21 23 -37.5t57 -27.5
t74.5 -30t74.5 -41.5t57 -65.5t23 -99q0 -109 -72 -162t-179 -53z" />
    <glyph glyph-name="sacute" unicode="&#x15b;" horiz-adv-x="418" 
d="M115 536l83 153h175l-108 -153h-150zM221 494q79 0 146 -30v-130q-61 34 -122 34q-55 0 -55 -30q0 -15 21.5 -25.5t52 -20t61.5 -24.5t52.5 -47.5t21.5 -79.5q0 -78 -54.5 -117t-135.5 -38q-114 2 -178 35v137q62 -39 144 -39q60 0 60 29q0 15 -21.5 24.5t-52.5 19
t-61.5 24t-52 46.5t-21.5 79q0 71 50 112t145 41z" />
    <glyph glyph-name="Scedilla" unicode="&#x15e;" horiz-adv-x="525" 
d="M508 201q0 -87 -47 -138.5t-125 -68.5l-11 -42q72 -15 72 -84q0 -48 -37.5 -75t-88.5 -27q-62 0 -103 17v100q30 -12 64 -12q44 0 44 25q0 14 -22.5 19.5t-57.5 -0.5l19 72q-91 6 -173 44v175q91 -56 197 -56q89 0 89 54q0 22 -22.5 38.5t-56.5 27t-73.5 28.5t-73.5 40
t-56.5 63.5t-22.5 97.5q0 107 69.5 161t176.5 54q102 0 194 -49v-168q-97 57 -182 57q-82 0 -82 -52q0 -21 23 -37.5t57 -27.5t74.5 -30t74.5 -41.5t57 -65.5t23 -99z" />
    <glyph glyph-name="scedilla" unicode="&#x15f;" horiz-adv-x="418" 
d="M399 141q0 -60 -33.5 -97t-89.5 -51l-11 -41q72 -15 72 -84q0 -48 -37.5 -75t-88.5 -27q-62 0 -103 17v100q30 -12 64 -12q44 0 44 25q0 14 -22.5 19.5t-57.5 -0.5l19 73q-76 8 -124 33v137q62 -39 144 -39q60 0 60 29q0 15 -21.5 24.5t-52.5 19t-61.5 24t-52 46.5
t-21.5 79q0 71 50 112t145 41q79 0 146 -30v-130q-61 34 -122 34q-55 0 -55 -30q0 -15 21.5 -25.5t52 -20t61.5 -24.5t52.5 -47.5t21.5 -79.5z" />
    <glyph glyph-name="Scaron" unicode="&#x160;" horiz-adv-x="525" 
d="M324 753h-155l-101 156h139l40 -58l40 58h138zM257 -14q-118 0 -215 45v175q91 -56 197 -56q89 0 89 54q0 22 -22.5 38.5t-56.5 27t-73.5 28.5t-73.5 40t-56.5 63.5t-22.5 97.5q0 107 69.5 161t176.5 54q102 0 194 -49v-168q-97 57 -182 57q-82 0 -82 -52q0 -21 23 -37.5
t57 -27.5t74.5 -30t74.5 -41.5t57 -65.5t23 -99q0 -109 -72 -162t-179 -53z" />
    <glyph glyph-name="scaron" unicode="&#x161;" horiz-adv-x="418" 
d="M287 533h-155l-101 156h139l40 -58l40 58h138zM221 494q79 0 146 -30v-130q-61 34 -122 34q-55 0 -55 -30q0 -15 21.5 -25.5t52 -20t61.5 -24.5t52.5 -47.5t21.5 -79.5q0 -78 -54.5 -117t-135.5 -38q-114 2 -178 35v137q62 -39 144 -39q60 0 60 29q0 15 -21.5 24.5
t-52.5 19t-61.5 24t-52 46.5t-21.5 79q0 71 50 112t145 41z" />
    <glyph glyph-name="uni0162" unicode="&#x162;" horiz-adv-x="514" 
d="M171 0v536h-160v164h492v-164h-160v-536h-172zM167 -292l15 232h157l-46 -232h-126z" />
    <glyph glyph-name="uni0163" unicode="&#x163;" horiz-adv-x="354" 
d="M235 -14q-28 0 -54 7.5t-51.5 24.5t-41 51t-15.5 81v189h-60v141h60v112l164 38v-150h95v-141h-95v-159q0 -53 47 -53q27 0 48 10v-134q-38 -17 -97 -17zM126 -292l15 232h157l-46 -232h-126z" />
    <glyph glyph-name="Tcaron" unicode="&#x164;" horiz-adv-x="514" 
d="M326 753h-155l-101 156h139l40 -58l40 58h138zM171 0v536h-160v164h492v-164h-160v-536h-172z" />
    <glyph glyph-name="tcaron" unicode="&#x165;" horiz-adv-x="354" 
d="M440 741l-40 -200h-119l16 200h143zM235 -14q-28 0 -54 7.5t-51.5 24.5t-41 51t-15.5 81v189h-60v141h60v112l164 38v-150h95v-141h-95v-159q0 -53 47 -53q27 0 48 10v-134q-38 -17 -97 -17z" />
    <glyph glyph-name="Tbar" unicode="&#x166;" horiz-adv-x="521" 
d="M507 536h-160v-151h89v-133h-89v-252h-172v252h-90v133h90v151h-160v164h492v-164z" />
    <glyph glyph-name="tbar" unicode="&#x167;" horiz-adv-x="355" 
d="M235 -14q-28 0 -54 7.5t-51.5 24.5t-41 51t-15.5 81v53h-43v77h43v66h-60v134h60v112l164 38v-150h95v-134h-95v-66h83v-77h-83v-23q0 -53 47 -53q23 0 48 10v-134q-38 -17 -97 -17z" />
    <glyph glyph-name="Umacron" unicode="&#x16a;" horiz-adv-x="609" 
d="M454 893v-127h-302v127h302zM304 -14q-123 0 -191.5 59t-68.5 179v476h173v-461q0 -89 87 -89q88 0 88 89v461h172v-476q0 -120 -68.5 -179t-191.5 -59z" />
    <glyph glyph-name="umacron" unicode="&#x16b;" 
d="M393 673v-127h-302v127h302zM456 480v-480h-148v44q-48 -58 -128 -58q-57 0 -100.5 39.5t-43.5 110.5v344h164v-303q0 -39 38 -39q33 0 54 34v308h164z" />
    <glyph glyph-name="Uring" unicode="&#x16e;" horiz-adv-x="609" 
d="M303 736q-57 0 -94 34t-37 92t37 91.5t94 33.5q58 0 94.5 -33.5t36.5 -91.5q0 -59 -36.5 -92.5t-94.5 -33.5zM303 827q32 0 32 35q0 34 -32 34t-32 -34q0 -35 32 -35zM304 -14q-123 0 -191.5 59t-68.5 179v476h173v-461q0 -89 87 -89q88 0 88 89v461h172v-476
q0 -120 -68.5 -179t-191.5 -59z" />
    <glyph glyph-name="uring" unicode="&#x16f;" 
d="M242 516q-57 0 -94 34t-37 92t37 91.5t94 33.5q58 0 94.5 -33.5t36.5 -91.5q0 -59 -36.5 -92.5t-94.5 -33.5zM242 607q32 0 32 35q0 34 -32 34t-32 -34q0 -35 32 -35zM456 480v-480h-148v44q-48 -58 -128 -58q-57 0 -100.5 39.5t-43.5 110.5v344h164v-303q0 -39 38 -39
q33 0 54 34v308h164z" />
    <glyph glyph-name="Uhungarumlaut" unicode="&#x170;" horiz-adv-x="609" 
d="M120 766l66 158h159l-81 -158h-144zM312 766l74 158h159l-89 -158h-144zM304 -14q-123 0 -191.5 59t-68.5 179v476h173v-461q0 -89 87 -89q88 0 88 89v461h172v-476q0 -120 -68.5 -179t-191.5 -59z" />
    <glyph glyph-name="uhungarumlaut" unicode="&#x171;" 
d="M60 546l66 158h159l-81 -158h-144zM252 546l74 158h159l-89 -158h-144zM456 480v-480h-148v44q-48 -58 -128 -58q-57 0 -100.5 39.5t-43.5 110.5v344h164v-303q0 -39 38 -39q33 0 54 34v308h164z" />
    <glyph glyph-name="Uogonek" unicode="&#x172;" horiz-adv-x="609" 
d="M389 -233q-63 0 -93.5 26t-30.5 69q0 66 58 125q-6 -1 -19 -1q-123 0 -191.5 59t-68.5 179v476h173v-461q0 -89 87 -89q88 0 88 89v461h172v-476q0 -112 -63 -175q-87 -87 -87 -137q0 -31 28 -31q13 0 27 7v-105q-31 -16 -80 -16z" />
    <glyph glyph-name="uogonek" unicode="&#x173;" 
d="M377 -233q-61 0 -91 26t-30 69q0 74 71 141l-18 2v39q-49 -58 -129 -58q-57 0 -100.5 39.5t-43.5 110.5v344h164v-303q0 -39 38 -39q33 0 54 34v308h164v-480q-55 -52 -55 -88q0 -31 28 -31q14 0 27 7v-105q-31 -16 -79 -16z" />
    <glyph glyph-name="Wcircumflex" unicode="&#x174;" horiz-adv-x="840" 
d="M498 909l101 -156h-138l-40 58l-40 -58h-139l101 156h155zM171 0l-169 700h186l73 -433l101 430h117l100 -430l73 433h187l-170 -700h-163l-86 365l-86 -365h-163z" />
    <glyph glyph-name="wcircumflex" unicode="&#x175;" horiz-adv-x="691" 
d="M422 689l101 -156h-138l-40 58l-40 -58h-139l101 156h155zM133 0l-128 480h174l45 -276l60 276h123l60 -276l45 276h174l-128 -480h-158l-54 245l-55 -245h-158z" />
    <glyph glyph-name="Ycircumflex" unicode="&#x176;" horiz-adv-x="587" 
d="M370 909l101 -156h-138l-40 58l-40 -58h-139l101 156h155zM208 0v265l-209 435h188l107 -263l106 263h189l-209 -435v-265h-172z" />
    <glyph glyph-name="ycircumflex" unicode="&#x177;" horiz-adv-x="502" 
d="M321 689l101 -156h-138l-40 58l-40 -58h-139l101 156h155zM68 -220v134q24 -4 45 4q27 7 47 33q13 15 25 43l-186 486h179l79 -276l62 276h180l-171 -537q-29 -93 -88 -137q-70 -49 -172 -26z" />
    <glyph glyph-name="Ydieresis" unicode="&#x178;" horiz-adv-x="587" 
d="M191 750q-35 0 -59 24t-24 59t24 59t59 24t59 -24t24 -59t-24 -59t-59 -24zM394 750q-34 0 -58.5 24t-24.5 59t24.5 59t58.5 24t58.5 -24t24.5 -59t-24.5 -59t-58.5 -24zM208 0v265l-209 435h188l107 -263l106 263h189l-209 -435v-265h-172z" />
    <glyph glyph-name="Zacute" unicode="&#x179;" horiz-adv-x="502" 
d="M158 756l83 153h175l-108 -153h-150zM18 0v110l236 426h-223v164h442v-110l-235 -422h244v-168h-464z" />
    <glyph glyph-name="zacute" unicode="&#x17a;" horiz-adv-x="409" 
d="M113 536l83 153h175l-108 -153h-150zM377 480v-117l-151 -222h160v-141h-363v112l156 230h-147v138h345z" />
    <glyph glyph-name="Zdotaccent" unicode="&#x17b;" horiz-adv-x="502" 
d="M253 750q-39 0 -65 24t-26 67q0 41 26 65.5t65 24.5t65 -24t26 -66q0 -43 -25.5 -67t-65.5 -24zM18 0v110l236 426h-223v164h442v-110l-235 -422h244v-168h-464z" />
    <glyph glyph-name="zdotaccent" unicode="&#x17c;" horiz-adv-x="409" 
d="M208 530q-39 0 -65 24t-26 67q0 41 26 65.5t65 24.5t65 -24t26 -66q0 -43 -25.5 -67t-65.5 -24zM377 480v-117l-151 -222h160v-141h-363v112l156 230h-147v138h345z" />
    <glyph glyph-name="Zcaron" unicode="&#x17d;" horiz-adv-x="502" 
d="M331 753h-155l-101 156h139l40 -58l40 58h138zM18 0v110l236 426h-223v164h442v-110l-235 -422h244v-168h-464z" />
    <glyph glyph-name="zcaron" unicode="&#x17e;" horiz-adv-x="409" 
d="M286 533h-155l-101 156h139l40 -58l40 58h138zM377 480v-117l-151 -222h160v-141h-363v112l156 230h-147v138h345z" />
    <glyph glyph-name="Scommaaccent" unicode="&#x218;" horiz-adv-x="525" 
d="M257 -14q-118 0 -215 45v175q91 -56 197 -56q89 0 89 54q0 22 -22.5 38.5t-56.5 27t-73.5 28.5t-73.5 40t-56.5 63.5t-22.5 97.5q0 107 69.5 161t176.5 54q102 0 194 -49v-168q-97 57 -182 57q-82 0 -82 -52q0 -21 23 -37.5t57 -27.5t74.5 -30t74.5 -41.5t57 -65.5
t23 -99q0 -109 -72 -162t-179 -53zM193 -292l15 232h157l-46 -232h-126z" />
    <glyph glyph-name="scommaaccent" unicode="&#x219;" horiz-adv-x="418" 
d="M221 494q79 0 146 -30v-130q-61 34 -122 34q-55 0 -55 -30q0 -15 21.5 -25.5t52 -20t61.5 -24.5t52.5 -47.5t21.5 -79.5q0 -78 -54.5 -117t-135.5 -38q-114 2 -178 35v137q62 -39 144 -39q60 0 60 29q0 15 -21.5 24.5t-52.5 19t-61.5 24t-52 46.5t-21.5 79q0 71 50 112
t145 41zM133 -292l15 232h157l-46 -232h-126z" />
    <glyph glyph-name="uni021A" unicode="&#x21a;" horiz-adv-x="514" 
d="M171 0v536h-160v164h492v-164h-160v-536h-172zM167 -292l15 232h157l-46 -232h-126z" />
    <glyph glyph-name="uni021B" unicode="&#x21b;" horiz-adv-x="354" 
d="M235 -14q-28 0 -54 7.5t-51.5 24.5t-41 51t-15.5 81v189h-60v141h60v112l164 38v-150h95v-141h-95v-159q0 -53 47 -53q27 0 48 10v-134q-38 -17 -97 -17zM126 -292l15 232h157l-46 -232h-126z" />
    <glyph glyph-name="circumflex" unicode="&#x2c6;" horiz-adv-x="417" 
d="M286 909l101 -156h-138l-40 58l-41 -58h-138l101 156h155z" />
    <glyph glyph-name="caron" unicode="&#x2c7;" horiz-adv-x="417" 
d="M286 753h-155l-101 156h138l41 -58l40 58h138z" />
    <glyph glyph-name="breve" unicode="&#x2d8;" horiz-adv-x="349" 
d="M175 748q-82 0 -145 35v117q61 -31 145 -31q85 0 144 31v-117q-63 -35 -144 -35z" />
    <glyph glyph-name="dotaccent" unicode="&#x2d9;" horiz-adv-x="241" 
d="M121 754q-39 0 -65 24t-26 67q0 41 26 65.5t65 24.5t64.5 -24t25.5 -66q0 -43 -25.5 -67t-64.5 -24z" />
    <glyph glyph-name="ring" unicode="&#x2da;" horiz-adv-x="322" 
d="M161 736q-57 0 -94 34t-37 92t37 91.5t94 33.5q58 0 94.5 -33.5t36.5 -91.5q0 -59 -36.5 -92.5t-94.5 -33.5zM161 827q32 0 32 35q0 34 -32 34t-32 -34q0 -35 32 -35z" />
    <glyph glyph-name="ogonek" unicode="&#x2db;" horiz-adv-x="261" 
d="M151 -233q-61 0 -91 26.5t-30 68.5q0 75 68 138h132q-54 -51 -54 -92q0 -27 27 -27q14 0 27 7v-105q-29 -16 -79 -16z" />
    <glyph glyph-name="tilde" unicode="&#x2dc;" horiz-adv-x="392" 
d="M269 745q-34 0 -73 19t-53 19q-10 0 -15.5 -6.5t-6 -10.5t-2.5 -15h-81q-18 73 6.5 115.5t78.5 42.5q33 0 72.5 -18.5t53.5 -18.5t18.5 8.5t6.5 23.5h80q19 -73 -6.5 -116t-78.5 -43z" />
    <glyph glyph-name="hungarumlaut" unicode="&#x2dd;" horiz-adv-x="485" 
d="M30 766l66 158h159l-81 -158h-144zM222 766l74 158h159l-89 -158h-144z" />
    <glyph glyph-name="gravecomb" unicode="&#x300;" horiz-adv-x="0" 
d="M-361 756l-108 153h175l84 -153h-151z" />
    <glyph glyph-name="acutecomb" unicode="&#x301;" horiz-adv-x="0" 
d="M-408 756l83 153h175l-108 -153h-150z" />
    <glyph glyph-name="uni0302" unicode="&#x302;" horiz-adv-x="0" 
d="M-227 909l101 -156h-138l-40 58l-41 -58h-138l101 156h155z" />
    <glyph glyph-name="tildecomb" unicode="&#x303;" horiz-adv-x="0" 
d="M-244 745q-33 0 -72.5 19t-52.5 19q-22 0 -24 -32h-81q-19 73 6 115.5t78 42.5q34 0 73.5 -18.5t52.5 -18.5q10 0 16 6t6.5 10.5t2.5 15.5h81q18 -73 -7 -116t-79 -43z" />
    <glyph glyph-name="uni0304" unicode="&#x304;" horiz-adv-x="0" 
d="M-158 893v-127h-302v127h302z" />
    <glyph glyph-name="uni0306" unicode="&#x306;" horiz-adv-x="0" 
d="M-318 748q-81 0 -144 35v117q59 -31 144 -31q84 0 145 31v-117q-63 -35 -145 -35z" />
    <glyph glyph-name="uni0307" unicode="&#x307;" horiz-adv-x="0" 
d="M-311 754q-39 0 -65 24t-26 67q0 41 26 65.5t65 24.5t65 -24.5t26 -65.5q0 -43 -26 -67t-65 -24z" />
    <glyph glyph-name="uni0308" unicode="&#x308;" horiz-adv-x="0" 
d="M-413 750q-35 0 -59 24t-24 59t24 59t59 24t59 -24t24 -59t-24 -59t-59 -24zM-210 750q-34 0 -58.5 24t-24.5 59t24.5 59t58.5 24t58.5 -24t24.5 -59t-24.5 -59t-58.5 -24z" />
    <glyph glyph-name="uni030A" unicode="&#x30a;" horiz-adv-x="0" 
d="M-310 736q-57 0 -94 34t-37 92t37 91.5t94 33.5q58 0 94.5 -33.5t36.5 -91.5q0 -59 -36.5 -92.5t-94.5 -33.5zM-310 827q32 0 32 35q0 34 -32 34t-32 -34q0 -35 32 -35z" />
    <glyph glyph-name="uni030B" unicode="&#x30b;" horiz-adv-x="0" 
d="M-489 766l65 158h160l-81 -158h-144zM-297 766l74 158h159l-89 -158h-144z" />
    <glyph glyph-name="uni030C" unicode="&#x30c;" horiz-adv-x="0" 
d="M-234 753h-155l-101 156h138l41 -58l40 58h138z" />
    <glyph glyph-name="uni0312" unicode="&#x312;" horiz-adv-x="0" 
d="M-231 967l-13 -211h-151l42 211h122z" />
    <glyph glyph-name="uni0326" unicode="&#x326;" horiz-adv-x="0" 
d="M-395 -292l15 232h157l-46 -232h-126z" />
    <glyph glyph-name="uni0327" unicode="&#x327;" horiz-adv-x="0" 
d="M-241 0l-13 -48q72 -15 72 -84q0 -48 -38 -75t-89 -27q-61 0 -102 17v100q30 -12 64 -12q44 0 44 25q0 14 -22.5 19.5t-57.5 -0.5l21 85h121z" />
    <glyph glyph-name="uni0328" unicode="&#x328;" horiz-adv-x="0" 
d="M-272 -233q-61 0 -91 26.5t-30 68.5q0 75 68 138h133q-55 -51 -55 -92q0 -27 27 -27q14 0 28 7v-105q-31 -16 -80 -16z" />
    <glyph glyph-name="uni0401" unicode="&#x401;" horiz-adv-x="498" 
d="M154 750q-34 0 -58.5 24t-24.5 59t24.5 59t58.5 24t58.5 -24t24.5 -59t-24.5 -59t-58.5 -24zM357 750q-35 0 -59 24t-24 59t24 59t59 24t59 -24t24 -59t-24 -59t-59 -24zM49 0v700h413v-154h-240v-119h217v-150h-217v-121h246v-156h-419z" />
    <glyph glyph-name="uni0402" unicode="&#x402;" horiz-adv-x="621" 
d="M444 466q64 0 109.5 -42t45.5 -115v-170q0 -82 -43 -117.5t-108 -35.5q-35 0 -67 8v136q17 -2 24 2q22 3 22 35v94q0 41 -41 41q-25 0 -51 -19v-283h-172v536h-152v164h492v-164h-168v-98q51 28 109 28z" />
    <glyph glyph-name="uni0403" unicode="&#x403;" horiz-adv-x="471" 
d="M154 756l83 153h175l-108 -153h-150zM49 0v700h412v-164h-239v-536h-173z" />
    <glyph glyph-name="uni0404" unicode="&#x404;" horiz-adv-x="505" 
d="M24 345q0 176 89 272.5t228 96.5q65 0 133 -27v-167q-43 23 -108 23q-112 0 -144 -114h170v-157h-174q26 -116 142 -116q57 0 119 26v-171q-66 -25 -140 -25q-138 0 -226.5 90.5t-88.5 268.5z" />
    <glyph glyph-name="uni0405" unicode="&#x405;" horiz-adv-x="525" 
d="M257 -14q-118 0 -215 45v175q91 -56 197 -56q89 0 89 54q0 22 -22.5 38.5t-56.5 27t-73.5 28.5t-73.5 40t-56.5 63.5t-22.5 97.5q0 107 69.5 161t176.5 54q102 0 194 -49v-168q-97 57 -182 57q-82 0 -82 -52q0 -21 23 -37.5t57 -27.5t74.5 -30t74.5 -41.5t57 -65.5
t23 -99q0 -109 -72 -162t-179 -53z" />
    <glyph glyph-name="uni0406" unicode="&#x406;" horiz-adv-x="271" 
d="M222 700v-700h-173v700h173z" />
    <glyph glyph-name="uni0407" unicode="&#x407;" horiz-adv-x="271" 
d="M25 750q-35 0 -59 24t-24 59t24 59t59 24t59 -24t24 -59t-24 -59t-59 -24zM228 750q-34 0 -58.5 24t-24.5 59t24.5 59t58.5 24t58.5 -24t24.5 -59t-24.5 -59t-58.5 -24zM222 700v-700h-173v700h173z" />
    <glyph glyph-name="uni0408" unicode="&#x408;" horiz-adv-x="435" 
d="M164 -14q-79 0 -145 24v161q45 -21 105 -21q93 0 93 95v291h-135v164h307v-495q0 -113 -64.5 -166t-160.5 -53z" />
    <glyph glyph-name="uni0409" unicode="&#x409;" horiz-adv-x="903" 
d="M665 443q100 0 161.5 -57.5t61.5 -164.5q0 -106 -61.5 -163t-161.5 -58h-259v536h-103q-9 -196 -24 -304t-53 -163q-66 -102 -223 -69v155q28 -6 49 0t34 30q34 56 49 515h444v-257h86zM646 157q69 0 69 64q0 65 -69 65h-67v-129h67z" />
    <glyph glyph-name="uni040A" unicode="&#x40a;" horiz-adv-x="867" 
d="M629 443q100 0 161 -57.5t61 -164.5q0 -106 -61 -163t-161 -58h-259v279h-148v-279h-173v700h173v-257h148v257h172v-257h87zM610 157q69 0 69 64q0 65 -69 65h-68v-129h68z" />
    <glyph glyph-name="uni040B" unicode="&#x40b;" horiz-adv-x="626" 
d="M444 466q64 0 109.5 -42t45.5 -115v-309h-172v261q0 41 -41 41q-25 0 -51 -19v-283h-172v536h-152v164h492v-164h-168v-98q51 28 109 28z" />
    <glyph glyph-name="uni040C" unicode="&#x40c;" horiz-adv-x="581" 
d="M198 756l83 153h175l-108 -153h-150zM49 0v700h173v-274h43l115 274h200l-165 -350l171 -350h-200l-120 273h-44v-273h-173z" />
    <glyph glyph-name="uni040E" unicode="&#x40e;" horiz-adv-x="575" 
d="M287 752q-82 0 -145 35v117q61 -31 145 -31q85 0 144 31v-117q-63 -35 -144 -35zM393 700h184l-189 -528q-38 -105 -91.5 -145.5t-121.5 -40.5q-49 0 -94 14v153q42 -10 75 -4q35 4 62 48l-222 503h183l121 -314z" />
    <glyph glyph-name="uni040F" unicode="&#x40f;" horiz-adv-x="609" 
d="M559 700v-700h-169v-151h-171v151h-170v700h173v-536h165v536h172z" />
    <glyph glyph-name="uni0410" unicode="&#x410;" horiz-adv-x="610" 
d="M-4 0l222 700h174l222 -700h-180l-29 105h-199l-29 -105h-181zM241 247h128l-33 120q-21 80 -31 151q-11 -80 -30 -151z" />
    <glyph glyph-name="uni0411" unicode="&#x411;" horiz-adv-x="559" 
d="M49 0v700h449v-160h-276v-98h106q96 0 156.5 -58.5t60.5 -162.5t-60.5 -162.5t-156.5 -58.5h-279zM222 150h81q34 0 52 19t18 52t-18.5 52t-51.5 19h-81v-142z" />
    <glyph glyph-name="uni0412" unicode="&#x412;" horiz-adv-x="583" 
d="M336 700q92 0 147.5 -48t55.5 -131q0 -105 -77 -151q42 -19 72 -63t30 -109q0 -68 -35.5 -114t-86.5 -65t-112 -19h-281v700h287zM301 557h-79v-135h83q30 0 47.5 18t17.5 49q0 68 -69 68zM311 289h-89v-144h86q80 0 80 72t-77 72z" />
    <glyph glyph-name="uni0413" unicode="&#x413;" horiz-adv-x="471" 
d="M49 0v700h412v-164h-239v-536h-173z" />
    <glyph glyph-name="uni0414" unicode="&#x414;" horiz-adv-x="687" 
d="M8 -151v315h72q56 207 54 536h457v-536h79v-315h-171v151h-320v-151h-171zM260 164h159v372h-118q-4 -209 -41 -372z" />
    <glyph glyph-name="uni0415" unicode="&#x415;" horiz-adv-x="498" 
d="M49 0v700h413v-154h-240v-119h217v-150h-217v-121h246v-156h-419z" />
    <glyph glyph-name="uni0416" unicode="&#x416;" horiz-adv-x="864" 
d="M-4 0l160 353l-153 347h197l104 -281h42v281h172v-281h43l104 281h196l-152 -347l159 -353h-197l-110 269h-43v-269h-172v269h-43l-110 -269h-197z" />
    <glyph glyph-name="uni0417" unicode="&#x417;" horiz-adv-x="522" 
d="M239 -14q-120 0 -214 29v172q88 -37 180 -37q116 0 116 68q0 62 -76 62h-113v157h98q67 0 67 56q0 59 -92 61q-86 0 -173 -37v161q94 36 191 36q116 0 183 -49.5t67 -148.5q0 -100 -88 -146q47 -17 81.5 -61.5t34.5 -111.5q0 -74 -41 -123.5t-97.5 -68.5t-123.5 -19z" />
    <glyph glyph-name="uni0418" unicode="&#x418;" horiz-adv-x="619" 
d="M570 0h-172v213q0 97 16 183l-208 -396h-156v700h172v-213q0 -89 -16 -183l208 396h156v-700z" />
    <glyph glyph-name="uni0419" unicode="&#x419;" horiz-adv-x="619" 
d="M309 738q-96 0 -158 42v122q67 -34 158 -34t159 34v-122q-64 -42 -159 -42zM569 0h-172v213q0 89 16 183l-207 -396h-157v700h173v-213q0 -92 -17 -183l208 396h156v-700z" />
    <glyph glyph-name="uni041A" unicode="&#x41a;" horiz-adv-x="581" 
d="M49 0v700h173v-274h43l115 274h200l-165 -350l171 -350h-200l-120 273h-44v-273h-173z" />
    <glyph glyph-name="uni041B" unicode="&#x41b;" horiz-adv-x="641" 
d="M3 0v155q28 -6 49 0t34 30q34 56 49 515h457v-700h-173v536h-116q-9 -196 -24 -304t-53 -163q-66 -102 -223 -69z" />
    <glyph glyph-name="uni041C" unicode="&#x41c;" horiz-adv-x="726" 
d="M49 0v700h149l165 -312l165 312h149v-700h-169v207q0 96 17 198l-132 -252h-59l-132 252q16 -96 16 -198v-207h-169z" />
    <glyph glyph-name="uni041D" unicode="&#x41d;" horiz-adv-x="605" 
d="M555 700v-700h-172v268h-161v-268h-173v700h173v-268h161v268h172z" />
    <glyph glyph-name="uni041E" unicode="&#x41e;" horiz-adv-x="617" 
d="M308 -14q-143 0 -213 97.5t-70 266.5q0 170 70 267t213 97t213 -97t70 -267q0 -169 -70 -266.5t-213 -97.5zM308 157q54 0 79 47.5t25 145.5t-25 145.5t-79 47.5q-103 0 -103 -193t103 -193z" />
    <glyph glyph-name="uni041F" unicode="&#x41f;" horiz-adv-x="612" 
d="M49 0v700h513v-700h-172v536h-168v-536h-173z" />
    <glyph glyph-name="uni0420" unicode="&#x420;" horiz-adv-x="565" 
d="M307 700q107 0 174 -61.5t67 -181.5t-67 -181.5t-174 -61.5h-85v-214h-173v700h258zM292 543h-70v-172h70q40 0 61.5 22.5t21.5 63.5t-21.5 63.5t-61.5 22.5z" />
    <glyph glyph-name="uni0421" unicode="&#x421;" horiz-adv-x="503" 
d="M339 -14q-136 0 -226 92t-90 267q1 174 90 271.5t227 97.5q65 0 133 -27v-167q-43 23 -108 23q-74 0 -118 -51t-44 -147q0 -93 41.5 -141t115.5 -48q58 0 118 26v-171q-66 -25 -139 -25z" />
    <glyph glyph-name="uni0422" unicode="&#x422;" horiz-adv-x="514" 
d="M171 0v536h-160v164h492v-164h-160v-536h-172z" />
    <glyph glyph-name="uni0423" unicode="&#x423;" horiz-adv-x="575" 
d="M393 700h184l-189 -528q-38 -105 -91.5 -145.5t-121.5 -40.5q-49 0 -94 14v153q42 -10 75 -4q35 4 62 48l-222 503h183l121 -314z" />
    <glyph glyph-name="uni0424" unicode="&#x424;" horiz-adv-x="756" 
d="M297 -39v86q-126 10 -205 91.5t-79 211.5q0 126 79.5 209.5t204.5 93.5v86h165v-86q124 -11 202.5 -94.5t78.5 -208.5t-78.5 -208.5t-202.5 -94.5v-86h-165zM301 197v306q-112 -13 -112 -153q0 -66 28 -106t84 -47zM459 197q108 14 108 153t-108 153v-306z" />
    <glyph glyph-name="uni0425" unicode="&#x425;" horiz-adv-x="580" 
d="M-10 0l186 360l-171 340h189l96 -210l96 210h189l-172 -340l187 -360h-193l-107 226l-107 -226h-193z" />
    <glyph glyph-name="uni0426" unicode="&#x426;" horiz-adv-x="651" 
d="M464 -151v151h-415v700h173v-536h165v536h172v-536h69v-315h-164z" />
    <glyph glyph-name="uni0427" unicode="&#x427;" horiz-adv-x="588" 
d="M367 0v237q-64 -24 -130 -24q-89 1 -145 51.5t-56 149.5v286h172v-255q0 -68 73 -68q45 0 86 23v300h172v-700h-172z" />
    <glyph glyph-name="uni0428" unicode="&#x428;" horiz-adv-x="880" 
d="M49 0v700h173v-536h132v536h172v-536h133v536h172v-700h-782z" />
    <glyph glyph-name="uni0429" unicode="&#x429;" horiz-adv-x="910" 
d="M723 -151v151h-674v700h173v-536h126v536h172v-536h126v536h172v-536h69v-315h-164z" />
    <glyph glyph-name="uni042A" unicode="&#x42a;" horiz-adv-x="654" 
d="M147 0v536h-136v164h308v-234h78q106 0 173.5 -59.5t67.5 -173.5t-67.5 -173.5t-173.5 -59.5h-250zM319 157h65q38 0 60 19.5t22 56.5q0 36 -22.5 56t-59.5 20h-65v-152z" />
    <glyph glyph-name="uni042B" unicode="&#x42b;" horiz-adv-x="828" 
d="M49 0v700h173v-234h78q106 0 173.5 -59.5t67.5 -173.5t-67.5 -173.5t-173.5 -59.5h-251zM779 700v-700h-173v700h173zM222 157h64q38 0 60 19.5t22 56.5q0 36 -22.5 56t-59.5 20h-64v-152z" />
    <glyph glyph-name="uni042C" unicode="&#x42c;" horiz-adv-x="557" 
d="M49 0v700h173v-234h78q106 0 173.5 -59.5t67.5 -173.5t-67.5 -173.5t-173.5 -59.5h-251zM222 157h64q38 0 60 19.5t22 56.5q0 36 -22.5 56t-59.5 20h-64v-152z" />
    <glyph glyph-name="uni042D" unicode="&#x42d;" horiz-adv-x="505" 
d="M166 -14q-74 0 -140 25v171q62 -26 119 -26q116 0 142 116h-174v157h170q-32 114 -144 114q-65 0 -108 -23v167q68 27 133 27q139 0 228 -96.5t89 -272.5q0 -178 -88.5 -268.5t-226.5 -90.5z" />
    <glyph glyph-name="uni042E" unicode="&#x42e;" horiz-adv-x="870" 
d="M561 -14q-121 0 -187.5 74.5t-81.5 207.5h-70v-268h-173v700h173v-268h70q15 133 81.5 207.5t187.5 74.5q143 0 213 -97t70 -267q0 -169 -70 -266.5t-213 -97.5zM561 157q54 0 79 47.5t25 145.5t-25 145.5t-79 47.5q-103 0 -103 -193t103 -193z" />
    <glyph glyph-name="uni042F" unicode="&#x42f;" horiz-adv-x="591" 
d="M281 700h260v-700h-172v228h-49h-6l-117 -228h-189l137 257q-110 54 -110 207q0 115 69.5 175.5t176.5 60.5zM369 382v158h-81q-37 0 -59 -20.5t-22 -58.5t22 -58.5t59 -20.5h81z" />
    <glyph glyph-name="uni0430" unicode="&#x430;" horiz-adv-x="476" 
d="M456 111q6 0 16 2v-110q-39 -11 -78 -11q-64 0 -96 35q-49 -41 -127 -41q-66 0 -110 39t-44 112t48.5 112.5t130.5 39.5q36 0 72 -9v21q0 58 -74 58q-75 0 -147 -29v135q84 29 164 29q107 0 162.5 -46.5t55.5 -156.5v-150q0 -30 27 -30zM218 89q31 0 50 18v83
q-20 5 -35 5q-60 0 -60 -55q0 -51 45 -51z" />
    <glyph glyph-name="uni0431" unicode="&#x431;" horiz-adv-x="498" 
d="M259 -14q-233 0 -233 291q0 252 162 334q44 22 125 49.5t121 53.5v-153q-20 -17 -87.5 -40t-89.5 -35q-57 -29 -61 -80q41 44 109 44q74 0 122 -62t48 -170q0 -112 -58.5 -172t-157.5 -60zM253 121q34 0 48 23.5t14 73.5t-13.5 73.5t-45.5 23.5q-62 0 -62 -97t59 -97z
" />
    <glyph glyph-name="uni0432" unicode="&#x432;" horiz-adv-x="475" 
d="M39 0v480h247q82 0 120.5 -36.5t38.5 -89.5q0 -81 -67 -111q78 -31 78 -113q0 -57 -38 -93.5t-124 -36.5h-255zM194 286h54q19 0 30.5 11t11.5 32t-12 32t-30 11h-54v-86zM195 108h57q46 0 46 43q0 44 -46 44h-57v-87z" />
    <glyph glyph-name="uni0433" unicode="&#x433;" horiz-adv-x="379" 
d="M39 0v480h328v-141h-164v-339h-164z" />
    <glyph glyph-name="uni0434" unicode="&#x434;" horiz-adv-x="547" 
d="M7 -127v261h54q40 136 40 346h373v-346h56v-261h-156v127h-211v-127h-156zM220 134h101v216h-73q-5 -116 -28 -216z" />
    <glyph glyph-name="uni0435" unicode="&#x435;" horiz-adv-x="471" 
d="M276 -14q-121 0 -187.5 67t-66.5 187q0 119 58.5 186.5t162.5 67.5t161.5 -81.5t45.5 -231.5h-258q18 -75 109 -75q65 0 121 21v-115q-60 -26 -146 -26zM185 280h115q-2 85 -53 85q-56 0 -62 -85z" />
    <glyph glyph-name="uni0436" unicode="&#x436;" horiz-adv-x="715" 
d="M599 238l110 -238h-178l-62 168h-32v-168h-159v168h-32l-61 -168h-178l110 238l-107 242h176l59 -171h33v171h159v-171h33l60 171h175z" />
    <glyph glyph-name="uni0437" unicode="&#x437;" horiz-adv-x="409" 
d="M173 -13q-89 0 -150 22v128q66 -24 118 -24q83 0 83 38q0 35 -57 35h-75v115h75q49 0 49 33q0 35 -67 35q-51 0 -117 -25v128q65 23 149 23q101 0 148.5 -42t47.5 -101q0 -40 -20.5 -67.5t-49.5 -37.5q37 -13 59 -43t22 -71q0 -62 -53 -104t-162 -42z" />
    <glyph glyph-name="uni0438" unicode="&#x438;" horiz-adv-x="501" 
d="M39 0v480h164v-108q0 -65 -9 -115l154 223h114v-480h-164v108q0 65 9 115l-154 -223h-114z" />
    <glyph glyph-name="uni0439" unicode="&#x439;" horiz-adv-x="501" 
d="M251 525q-82 0 -148 37v122q64 -34 148 -34q83 0 148 34v-122q-66 -37 -148 -37zM39 0v480h164v-108q0 -65 -9 -115l154 223h114v-480h-164v108q0 65 9 115l-154 -223h-114z" />
    <glyph glyph-name="uni043A" unicode="&#x43a;" horiz-adv-x="494" 
d="M39 0v480h164v-171h36l74 171h182l-122 -239l127 -241h-183l-79 168h-35v-168h-164z" />
    <glyph glyph-name="uni043B" unicode="&#x43b;" horiz-adv-x="522" 
d="M10 0v143q40 -8 56 16q15 27 21 94.5t12 226.5h384v-480h-164v339h-62q-4 -116 -16 -184t-41 -106q-56 -76 -190 -49z" />
    <glyph glyph-name="uni043C" unicode="&#x43c;" horiz-adv-x="598" 
d="M39 0v480h149l111 -201l112 201h148v-480h-156v123q0 75 14 131l-93 -169h-49l-94 169q14 -56 14 -131v-123h-156z" />
    <glyph glyph-name="uni043D" unicode="&#x43d;" horiz-adv-x="502" 
d="M39 0v480h164v-170h96v170h164v-480h-164v170h-96v-170h-164z" />
    <glyph glyph-name="uni043E" unicode="&#x43e;" horiz-adv-x="494" 
d="M247 494q107 0 165.5 -67.5t58.5 -186.5t-58.5 -186.5t-165.5 -67.5t-166 67.5t-59 186.5t59 186.5t166 67.5zM247 354q-32 0 -46 -27.5t-14 -86.5t14 -86t46 -27t46 27t14 86t-14 86.5t-46 27.5z" />
    <glyph glyph-name="uni043F" unicode="&#x43f;" horiz-adv-x="498" 
d="M39 0v480h420v-480h-164v339h-92v-339h-164z" />
    <glyph glyph-name="uni0440" unicode="&#x440;" horiz-adv-x="501" 
d="M477 240q0 -118 -41.5 -186t-124.5 -68q-66 0 -108 47v-253h-164v700h148v-47q39 61 119 61q47 0 81.5 -21t53.5 -58t27.5 -80t8.5 -95zM203 316v-152q20 -37 55 -37q31 0 44.5 28t13.5 85t-13.5 85t-44.5 28q-35 0 -55 -37z" />
    <glyph glyph-name="uni0441" unicode="&#x441;" horiz-adv-x="393" 
d="M250 -14q-99 0 -164 65t-65 183q0 124 66 192t171 68q61 0 106 -21v-134q-36 17 -78 17q-45 0 -72.5 -30t-27.5 -86q0 -55 26 -84t70 -29q47 0 87 19v-140q-47 -20 -119 -20z" />
    <glyph glyph-name="uni0442" unicode="&#x442;" horiz-adv-x="402" 
d="M119 0v339h-105v141h375v-141h-106v-339h-164z" />
    <glyph glyph-name="uni0443" unicode="&#x443;" horiz-adv-x="502" 
d="M68 -220v134q24 -4 45 4q27 7 47 33q13 15 25 43l-186 486h179l79 -276l62 276h180l-171 -537q-29 -93 -88 -137q-70 -49 -172 -26z" />
    <glyph glyph-name="uni0444" unicode="&#x444;" horiz-adv-x="670" 
d="M257 -220v206q-96 11 -166 77t-70 177t70 177t166 77v206h157v-206q95 -11 165 -77t70 -177t-70 -177t-165 -77v-206h-157zM260 127v226q-38 -3 -58 -32.5t-20 -80.5t20 -80.5t58 -32.5zM410 127q38 3 58.5 32.5t20.5 80.5t-20.5 80.5t-58.5 32.5v-226z" />
    <glyph glyph-name="uni0445" unicode="&#x445;" horiz-adv-x="480" 
d="M1 0l124 245l-118 235h178l42 -105q10 -38 13 -51q6 27 14 51l42 105h177l-118 -235l124 -245h-181l-39 96q-11 30 -19 62q-8 -32 -19 -62l-39 -96h-181z" />
    <glyph glyph-name="uni0446" unicode="&#x446;" horiz-adv-x="526" 
d="M353 -127v127h-314v480h164v-346h86v346h164v-346h56v-261h-156z" />
    <glyph glyph-name="uni0447" unicode="&#x447;" horiz-adv-x="481" 
d="M278 0v144q-48 -19 -101 -19q-63 0 -106.5 38t-43.5 115v202h164v-176q0 -38 40 -38q26 0 47 13v201h164v-480h-164z" />
    <glyph glyph-name="uni0448" unicode="&#x448;" horiz-adv-x="723" 
d="M39 0v480h164v-346h77v346h164v-346h76v346h164v-480h-645z" />
    <glyph glyph-name="uni0449" unicode="&#x449;" horiz-adv-x="752" 
d="M578 -127v127h-539v480h164v-346h74v346h164v-346h73v346h164v-346h56v-261h-156z" />
    <glyph glyph-name="uni044A" unicode="&#x44a;" horiz-adv-x="554" 
d="M113 0v340h-99v140h263v-134h82q85 0 131 -50.5t46 -122.5q0 -80 -45 -126.5t-132 -46.5h-246zM277 116h43q52 0 52 57t-52 57h-43v-114z" />
    <glyph glyph-name="uni044B" unicode="&#x44b;" horiz-adv-x="719" 
d="M39 0v480h164v-134h82q85 0 131.5 -50.5t46.5 -122.5q0 -80 -45.5 -126.5t-132.5 -46.5h-246zM516 0v480h164v-480h-164zM203 116h43q52 0 52 57t-52 57h-43v-114z" />
    <glyph glyph-name="uni044C" unicode="&#x44c;" horiz-adv-x="481" 
d="M39 0v480h164v-134h82q85 0 131.5 -50.5t46.5 -122.5q0 -80 -45.5 -126.5t-132.5 -46.5h-246zM203 116h43q52 0 52 57t-52 57h-43v-114z" />
    <glyph glyph-name="uni044D" unicode="&#x44d;" horiz-adv-x="412" 
d="M144 494q109 0 177.5 -65.5t68.5 -195.5q0 -125 -66 -186t-173 -61q-73 0 -126 20v133q47 -19 90 -19q81 0 102 67h-132v106h134q-22 69 -107 69q-40 0 -82 -17v128q50 21 114 21z" />
    <glyph glyph-name="uni044E" unicode="&#x44e;" horiz-adv-x="703" 
d="M456 494q107 0 165.5 -68t58.5 -186t-58.5 -186t-165.5 -68q-86 0 -140 48t-70 135h-43v-169h-164v480h164v-169h43q16 87 70 135t140 48zM456 127q32 0 46 27t14 86t-14 86.5t-46 27.5t-46 -27.5t-14 -86.5t14 -86t46 -27z" />
    <glyph glyph-name="uni044F" unicode="&#x44f;" horiz-adv-x="491" 
d="M8 0l102 169q-77 41 -77 142q0 73 45.5 121t133.5 48h240v-480h-161v141h-22h-5l-75 -141h-181zM245 251h46v106h-46q-51 0 -51 -53t51 -53z" />
    <glyph glyph-name="uni0451" unicode="&#x451;" horiz-adv-x="471" 
d="M134 530q-34 0 -58.5 24t-24.5 59t24.5 59t58.5 24t58.5 -24t24.5 -59t-24.5 -59t-58.5 -24zM337 530q-35 0 -59 24t-24 59t24 59t59 24t59 -24t24 -59t-24 -59t-59 -24zM276 -14q-121 0 -187.5 67t-66.5 187q0 119 58.5 186.5t162.5 67.5t161.5 -81.5t45.5 -231.5h-258
q18 -75 109 -75q65 0 121 21v-115q-60 -26 -146 -26zM185 280h115q-2 85 -53 85q-56 0 -62 -85z" />
    <glyph glyph-name="uni0452" unicode="&#x452;" 
d="M315 494q58 0 101 -39.5t43 -110.5v-411q0 -84 -46 -125.5t-119 -41.5q-37 0 -69 8v135q24 -5 39 0q31 6 31 50v344q0 39 -38 39q-33 0 -54 -34v-308h-164v545h-57v96h57v59h164v-59h134v-96h-134v-92q44 41 112 41z" />
    <glyph glyph-name="uni0453" unicode="&#x453;" horiz-adv-x="379" 
d="M99 536l83 153h175l-108 -153h-150zM39 0v480h328v-141h-164v-339h-164z" />
    <glyph glyph-name="uni0454" unicode="&#x454;" horiz-adv-x="412" 
d="M382 473v-128q-42 17 -82 17q-84 0 -106 -69h133v-106h-132q22 -67 102 -67q45 0 90 19v-133q-53 -20 -125 -20q-108 0 -174 61t-66 186q0 130 68.5 195.5t178.5 65.5q63 0 113 -21z" />
    <glyph glyph-name="uni0455" unicode="&#x455;" horiz-adv-x="418" 
d="M221 494q79 0 146 -30v-130q-61 34 -122 34q-55 0 -55 -30q0 -15 21.5 -25.5t52 -20t61.5 -24.5t52.5 -47.5t21.5 -79.5q0 -78 -54.5 -117t-135.5 -38q-114 2 -178 35v137q62 -39 144 -39q60 0 60 29q0 15 -21.5 24.5t-52.5 19t-61.5 24t-52 46.5t-21.5 79q0 71 50 112
t145 41z" />
    <glyph glyph-name="uni0456" unicode="&#x456;" horiz-adv-x="243" 
d="M122 539q-40 0 -66.5 23t-26.5 67t26.5 66t66.5 22t66 -22t26 -66t-26.5 -67t-65.5 -23zM40 0v480h164v-480h-164z" />
    <glyph glyph-name="uni0457" unicode="&#x457;" horiz-adv-x="243" 
d="M23 530q-35 0 -59 24t-24 59t24 59t59 24t59 -24t24 -59t-24 -59t-59 -24zM226 530q-34 0 -58.5 24t-24.5 59t24.5 59t58.5 24t58.5 -24t24.5 -59t-24.5 -59t-58.5 -24zM40 0v480h164v-480h-164z" />
    <glyph glyph-name="uni0458" unicode="&#x458;" horiz-adv-x="248" 
d="M126 539q-40 0 -66.5 23t-26.5 67t26.5 66t66.5 22t66.5 -22t26.5 -66t-26.5 -67t-66.5 -23zM43 -234q-51 0 -83 13v133q18 -5 35 -5q49 0 49 52v521h164v-547q0 -84 -46 -125.5t-119 -41.5z" />
    <glyph glyph-name="uni0459" unicode="&#x459;" horiz-adv-x="747" 
d="M558 319q84 0 128 -44.5t44 -115.5q0 -72 -44 -115.5t-128 -43.5h-245v339h-56q-4 -116 -16 -184t-41 -106q-56 -76 -190 -49v143q22 -4 35 0t22 20q15 25 20.5 87.5t11.5 229.5h378v-161h81zM520 116q45 0 45 43q0 44 -45 44h-43v-87h43z" />
    <glyph glyph-name="uni045A" unicode="&#x45a;" horiz-adv-x="726" 
d="M538 319q84 0 127.5 -44.5t43.5 -115.5q0 -73 -43.5 -116t-127.5 -43h-246v192h-89v-192h-164v480h164v-161h89v161h164v-161h82zM499 116q46 0 46 43q0 44 -46 44h-43v-87h43z" />
    <glyph glyph-name="uni045B" unicode="&#x45b;" 
d="M315 494q58 0 101 -39.5t43 -110.5v-344h-164v303q0 39 -38 39q-33 0 -54 -34v-308h-164v545h-57v96h57v59h164v-59h134v-96h-134v-92q44 41 112 41z" />
    <glyph glyph-name="uni045C" unicode="&#x45c;" horiz-adv-x="494" 
d="M157 536l83 153h175l-108 -153h-150zM39 0v480h164v-171h36l74 171h182l-122 -239l127 -241h-183l-79 168h-35v-168h-164z" />
    <glyph glyph-name="uni045E" unicode="&#x45e;" horiz-adv-x="502" 
d="M252 531q-82 0 -145 35v117q61 -31 145 -31q85 0 144 31v-117q-63 -35 -144 -35zM68 -220v134q24 -4 45 4q27 7 47 33q13 15 25 43l-186 486h179l79 -276l62 276h180l-171 -537q-29 -93 -88 -137q-70 -49 -172 -26z" />
    <glyph glyph-name="uni045F" unicode="&#x45f;" horiz-adv-x="492" 
d="M453 480v-480h-129v-127h-156v127h-129v480h164v-346h86v346h164z" />
    <glyph glyph-name="uni0490" unicode="&#x490;" horiz-adv-x="471" 
d="M291 840h170v-304h-239v-536h-173v700h241z" />
    <glyph glyph-name="uni0491" unicode="&#x491;" horiz-adv-x="379" 
d="M211 600h156v-261h-164v-339h-164v480h172v120z" />
    <glyph glyph-name="Wgrave" unicode="&#x1e80;" horiz-adv-x="840" 
d="M365 756l-108 153h175l84 -153h-151zM171 0l-169 700h186l73 -433l101 430h117l100 -430l73 433h187l-170 -700h-163l-86 365l-86 -365h-163z" />
    <glyph glyph-name="wgrave" unicode="&#x1e81;" horiz-adv-x="691" 
d="M289 536l-108 153h175l84 -153h-151zM133 0l-128 480h174l45 -276l60 276h123l60 -276l45 276h174l-128 -480h-158l-54 245l-55 -245h-158z" />
    <glyph glyph-name="Wacute" unicode="&#x1e82;" horiz-adv-x="840" 
d="M325 756l83 153h175l-108 -153h-150zM171 0l-169 700h186l73 -433l101 430h117l100 -430l73 433h187l-170 -700h-163l-86 365l-86 -365h-163z" />
    <glyph glyph-name="wacute" unicode="&#x1e83;" horiz-adv-x="691" 
d="M249 536l83 153h175l-108 -153h-150zM133 0l-128 480h174l45 -276l60 276h123l60 -276l45 276h174l-128 -480h-158l-54 245l-55 -245h-158z" />
    <glyph glyph-name="Wdieresis" unicode="&#x1e84;" horiz-adv-x="840" 
d="M318 750q-34 0 -58.5 24t-24.5 59t24.5 59t58.5 24t58.5 -24t24.5 -59t-24.5 -59t-58.5 -24zM521 750q-35 0 -59 24t-24 59t24 59t59 24t59 -24t24 -59t-24 -59t-59 -24zM171 0l-169 700h186l73 -433l101 430h117l100 -430l73 433h187l-170 -700h-163l-86 365l-86 -365
h-163z" />
    <glyph glyph-name="wdieresis" unicode="&#x1e85;" horiz-adv-x="691" 
d="M242 530q-34 0 -58.5 24t-24.5 59t24.5 59t58.5 24t58.5 -24t24.5 -59t-24.5 -59t-58.5 -24zM445 530q-35 0 -59 24t-24 59t24 59t59 24t59 -24t24 -59t-24 -59t-59 -24zM133 0l-128 480h174l45 -276l60 276h123l60 -276l45 276h174l-128 -480h-158l-54 245l-55 -245
h-158z" />
    <glyph glyph-name="Ygrave" unicode="&#x1ef2;" horiz-adv-x="587" 
d="M237 756l-108 153h175l84 -153h-151zM208 0v265l-209 435h188l107 -263l106 263h189l-209 -435v-265h-172z" />
    <glyph glyph-name="ygrave" unicode="&#x1ef3;" horiz-adv-x="502" 
d="M188 536l-108 153h175l84 -153h-151zM68 -220v134q24 -4 45 4q27 7 47 33q13 15 25 43l-186 486h179l79 -276l62 276h180l-171 -537q-29 -93 -88 -137q-70 -49 -172 -26z" />
    <glyph glyph-name="endash" unicode="&#x2013;" horiz-adv-x="457" 
d="M41 172v142h376v-142h-376z" />
    <glyph glyph-name="emdash" unicode="&#x2014;" horiz-adv-x="654" 
d="M41 172v142h572v-142h-572z" />
    <glyph glyph-name="quoteleft" unicode="&#x2018;" horiz-adv-x="234" 
d="M22 421l49 279h130l-13 -279h-166z" />
    <glyph glyph-name="quoteright" unicode="&#x2019;" horiz-adv-x="231" 
d="M34 421l13 279h166l-49 -279h-130z" />
    <glyph glyph-name="quotesinglbase" unicode="&#x201a;" horiz-adv-x="234" 
d="M26 -152l14 279h165l-49 -279h-130z" />
    <glyph glyph-name="quotedblleft" unicode="&#x201c;" horiz-adv-x="423" 
d="M22 421l49 279h123l-13 -279h-159zM218 421l49 279h123l-13 -279h-159z" />
    <glyph glyph-name="quotedblright" unicode="&#x201d;" horiz-adv-x="420" 
d="M34 421l13 279h159l-49 -279h-123zM230 421l13 279h159l-49 -279h-123z" />
    <glyph glyph-name="quotedblbase" unicode="&#x201e;" horiz-adv-x="422" 
d="M26 -152l14 279h158l-49 -279h-123zM222 -152l14 279h158l-49 -279h-123z" />
    <glyph glyph-name="dagger" unicode="&#x2020;" horiz-adv-x="458" 
d="M143 -220v536h-108v164h108v220h172v-220h108v-164h-108v-536h-172z" />
    <glyph glyph-name="daggerdbl" unicode="&#x2021;" horiz-adv-x="458" 
d="M143 -220v242h-108v164h108v130h-108v164h108v220h172v-220h108v-164h-108v-130h108v-164h-108v-242h-172z" />
    <glyph glyph-name="bullet" unicode="&#x2022;" horiz-adv-x="347" 
d="M173 228q-52 0 -89 31.5t-37 91.5t37 91.5t89 31.5t89 -31.5t37 -91.5t-37 -91.5t-89 -31.5z" />
    <glyph glyph-name="ellipsis" unicode="&#x2026;" horiz-adv-x="703" 
d="M115 -13q-37 0 -63.5 23t-26.5 67t26.5 66.5t63.5 22.5q38 0 64.5 -22.5t26.5 -66.5t-26.5 -67t-64.5 -23zM351 -13q-37 0 -63.5 23t-26.5 67t26.5 66.5t63.5 22.5q38 0 64.5 -22.5t26.5 -66.5t-26.5 -67t-64.5 -23zM587 -13q-37 0 -63.5 23t-26.5 67t26.5 66.5
t63.5 22.5q38 0 64.5 -22.5t26.5 -66.5t-26.5 -67t-64.5 -23z" />
    <glyph glyph-name="perthousand" unicode="&#x2030;" horiz-adv-x="1109" 
d="M191 357q-75 0 -123 46t-48 129t48 129t123 46t122.5 -46t47.5 -129t-47.5 -129t-122.5 -46zM95 0l451 700h103l-451 -700h-103zM191 474q39 0 39 58t-39 58t-39 -58t39 -58zM553 -7q-75 0 -122.5 46t-47.5 129t47.5 129t122.5 46q76 0 123.5 -46t47.5 -129t-47.5 -129
t-123.5 -46zM920 -7q-75 0 -122.5 46t-47.5 129t47.5 129t122.5 46q76 0 123.5 -46t47.5 -129t-47.5 -129t-123.5 -46zM553 110q40 0 40 58t-40 58q-39 0 -39 -58t39 -58zM920 110q40 0 40 58t-40 58q-39 0 -39 -58t39 -58z" />
    <glyph glyph-name="guilsinglleft" unicode="&#x2039;" horiz-adv-x="305" 
d="M124 45l-102 182v26l102 182h159l-111 -195l111 -195h-159z" />
    <glyph glyph-name="guilsinglright" unicode="&#x203a;" horiz-adv-x="305" 
d="M181 45h-158l110 195l-110 195h158l103 -182v-26z" />
    <glyph glyph-name="fraction" unicode="&#x2044;" horiz-adv-x="134" 
d="M-134 -14l357 728h47l-358 -728h-46z" />
    <glyph glyph-name="Euro" unicode="&#x20ac;" horiz-adv-x="539" 
d="M392 156q57 0 112 25v-171q-62 -24 -129 -24q-112 0 -190 64t-101 188h-61v84h53q-1 4 -1 13q0 16 1 23h-53v84h62q25 121 101.5 186.5t186.5 65.5q67 0 126 -24v-167q-40 20 -94 20q-91 0 -126 -81h140v-84h-163q-1 -7 -1 -23v-13h164v-84h-146q31 -82 119 -82z" />
    <glyph glyph-name="trademark" unicode="&#x2122;" horiz-adv-x="571" 
d="M78 446v171h-55v83h201v-83h-55v-171h-91zM256 446v254h76l60 -102l61 102h76v-254h-84v125l-43 -71h-20l-42 71v-125h-84z" />
    <glyph glyph-name="oneeighth" unicode="&#x215b;" horiz-adv-x="805" 
d="M194 -14l358 728h46l-357 -728h-47zM29 272v118h67v162l-60 -23v115l91 36h93v-290h62v-118h-253zM624 -9q-81 0 -121.5 35t-40.5 86q0 61 54 103q-41 36 -41 88q0 48 38 81t111 33t110.5 -33.5t37.5 -81.5q0 -49 -44 -90q57 -36 57 -100q0 -49 -40 -85t-121 -36z
M641 249q16 20 16 39q0 32 -34 32q-15 0 -23.5 -7.5t-8.5 -18.5q0 -25 50 -45zM624 89q38 0 38 29q0 10 -9 19.5t-18 14.5t-30 15q-20 -20 -20 -45q0 -33 39 -33z" />
    <glyph glyph-name="threeeighths" unicode="&#x215c;" horiz-adv-x="813" 
d="M203 -14l357 728h46l-357 -728h-46zM140 269q-64 0 -111 18v107q47 -15 92 -15q69 0 69 34q0 27 -46 27h-50v94h40q43 0 43 26q0 29 -53 29q-40 0 -93 -20v103q52 22 116 22q69 0 110 -29t41 -84q0 -59 -47 -87q64 -29 64 -102q0 -63 -49 -93t-126 -30zM632 -9
q-81 0 -121.5 35t-40.5 86q0 61 55 103q-42 35 -42 88q0 48 38 81t111 33q74 0 111.5 -33t37.5 -82q0 -48 -45 -90q57 -36 57 -100q0 -49 -40 -85t-121 -36zM649 249q16 18 16 39q0 32 -34 32q-15 0 -23.5 -7.5t-8.5 -18.5q0 -25 50 -45zM633 89q38 0 38 29q0 10 -9.5 19.5
t-18 14t-30.5 15.5q-20 -22 -20 -45q0 -33 40 -33z" />
    <glyph glyph-name="fiveeighths" unicode="&#x215d;" horiz-adv-x="805" 
d="M195 -14l357 728h46l-357 -728h-46zM134 263q-61 0 -107 15v107q38 -15 91 -15q67 0 67 39q0 40 -76 40q-34 0 -71 -8l13 239h241v-112h-124l-3 -43q24 1 46 -3q46 -8 73 -37.5t27 -79.5q0 -72 -50.5 -107t-126.5 -35zM624 -9q-81 0 -121.5 35t-40.5 86q0 61 55 103
q-42 35 -42 88q0 48 38 81t111 33q74 0 111.5 -33t37.5 -82q0 -48 -45 -90q57 -35 57 -100q0 -49 -40 -85t-121 -36zM641 249q16 18 16 39q0 32 -34 32q-15 0 -23.5 -7.5t-8.5 -18.5q0 -25 50 -45zM625 89q38 0 38 29q0 10 -9.5 19.5t-18 14t-30.5 15.5q-20 -22 -20 -45
q0 -33 40 -33z" />
    <glyph glyph-name="seveneighths" unicode="&#x215e;" horiz-adv-x="745" 
d="M492 714h46l-357 -728h-46zM182 271h-130l105 291h-135v118h278v-80zM725 112q0 -49 -40 -85t-121 -36t-121.5 35t-40.5 86q0 61 55 103q-42 35 -42 88q0 48 38 81t111 33q74 0 111.5 -33t37.5 -82q0 -48 -45 -90q57 -35 57 -100zM563 320q-15 0 -23.5 -7.5t-8.5 -18.5
q0 -25 50 -45q16 18 16 39q0 32 -34 32zM565 89q38 0 38 29q0 10 -9.5 19.5t-18 14t-30.5 15.5q-20 -22 -20 -45q0 -33 40 -33z" />
    <glyph glyph-name="partialdiff" unicode="&#x2202;" horiz-adv-x="499" 
d="M244 -14q-106 0 -164.5 62.5t-58.5 175.5q0 98 49 157.5t131 59.5q70 0 106 -43q-46 168 -245 142v153q199 13 305 -94.5t106 -321.5q0 -291 -229 -291zM246 128q31 0 45 23t16 68q-3 92 -63 92q-59 0 -59 -91q0 -40 14.5 -66t46.5 -26z" />
    <glyph glyph-name="emptyset" unicode="&#x2205;" horiz-adv-x="615" 
d="M514 594q70 -94 70 -254q0 -157 -71 -254.5t-206 -97.5q-90 0 -153 47l-24 -35h-84l56 85q-72 96 -72 255q0 157 71 254.5t206 97.5q89 0 155 -48l23 36h84zM125 340q0 -106 31 -169l258 398q-42 33 -107 33q-182 0 -182 -262zM307 78q183 0 183 262q0 105 -31 168
l-257 -396q42 -34 105 -34z" />
    <glyph glyph-name="product" unicode="&#x220f;" horiz-adv-x="667" 
d="M97 -220v756h-77v164h628v-164h-78v-756h-172v756h-129v-756h-172z" />
    <glyph glyph-name="summation" unicode="&#x2211;" horiz-adv-x="484" 
d="M25 0v98l163 252l-163 252v98h424v-164h-196l111 -172v-28l-111 -172h200v-164h-428z" />
    <glyph glyph-name="minus" unicode="&#x2212;" horiz-adv-x="451" 
d="M42 274v149h368v-149h-368z" />
    <glyph glyph-name="radical" unicode="&#x221a;" horiz-adv-x="665" 
d="M239 0l-123 320h-104v160h218l80 -255l181 555h180l-292 -780h-140z" />
    <glyph glyph-name="infinity" unicode="&#x221e;" horiz-adv-x="758" 
d="M549 560q77 0 127.5 -54.5t50.5 -147.5t-50.5 -147.5t-127.5 -54.5q-91 0 -170 103q-79 -103 -170 -103q-77 0 -127.5 54.5t-50.5 147.5t50.5 147.5t127.5 54.5q95 0 170 -103q75 103 170 103zM226 305q32 0 69 53q-13 17 -21.5 26.5t-21.5 18t-26 8.5q-20 0 -32.5 -14
t-12.5 -39t12.5 -39t32.5 -14zM532 305q20 0 32.5 14t12.5 39t-12.5 39t-32.5 14q-13 0 -26 -8.5t-21.5 -18t-21.5 -26.5q37 -53 69 -53z" />
    <glyph glyph-name="integral" unicode="&#x222b;" horiz-adv-x="395" 
d="M100 -234q-51 0 -95 13v156q21 -6 49 -6q29 0 43.5 15t14.5 55v616q0 95 53.5 137t130.5 42q51 0 95 -13v-156q-23 6 -49 6q-29 0 -44 -15t-15 -55v-616q0 -50 -16 -86.5t-43 -55.5t-58 -28t-66 -9z" />
    <glyph glyph-name="approxequal" unicode="&#x2248;" horiz-adv-x="473" 
d="M326 356q-43 0 -93.5 21.5t-64.5 21.5q-26 0 -27 -36h-97q-11 85 16.5 131t88.5 46q43 0 93 -21.5t65 -21.5q26 0 27 36h96q12 -85 -15 -131t-89 -46zM326 160q-43 0 -93.5 21.5t-64.5 21.5q-26 0 -27 -36h-97q-11 85 16.5 131t88.5 46q43 0 93 -21.5t65 -21.5
q26 0 27 36h96q12 -85 -15 -131t-89 -46z" />
    <glyph glyph-name="notequal" unicode="&#x2260;" horiz-adv-x="459" 
d="M411 383h-127l-29 -66h156v-145h-220l-36 -83h-80l37 83h-63v145h126l30 66h-156v145h219l37 83h79l-36 -83h63v-145z" />
    <glyph glyph-name="lessequal" unicode="&#x2264;" horiz-adv-x="424" 
d="M377 227l-337 130v157l337 130v-154l-187 -54l187 -55v-154zM377 58h-337v142h337v-142z" />
    <glyph glyph-name="greaterequal" unicode="&#x2265;" horiz-adv-x="424" 
d="M47 227v154l187 55l-187 54v154l337 -130v-157zM47 58v142h337v-142h-337z" />
    <glyph glyph-name="lozenge" unicode="&#x25ca;" horiz-adv-x="518" 
d="M193 0l-177 350l177 350h132l177 -350l-177 -350h-132zM259 203l74 147l-74 147l-73 -147z" />
    <glyph glyph-name="f_i" unicode="&#xfb01;" horiz-adv-x="561" 
d="M521 480v-480h-164v343h-117v-343h-164v343h-59v137h59v49q0 89 60.5 137t153.5 48q87 0 157 -31v-136q-60 26 -117 26q-90 0 -90 -61v-32h281z" />
    <glyph glyph-name="f_l" unicode="&#xfb02;" horiz-adv-x="568" 
d="M76 0v343h-59v137h59v53q0 93 57 137t135 44q67 0 122 -23l14 3l124 20v-714h-164v559q-28 14 -60 14q-64 0 -64 -53v-40h68v-137h-68v-343h-164z" />
    <glyph glyph-name="glyph6" horiz-adv-x="500" 
d="M410 780v-1000h-317v1000h317zM333 713h-165v-33h65v-37h-66v-33h166v33h-66v37h66v33zM267 584h-100v-104h166v34h-66v70zM233 550v-36h-33v36h33zM333 453h-166v-33h66v-37h-66v-33h100v70h66v33zM333 393h-33v-66h-133v-34h166v100zM333 271h-100v-56h34v23h33v-47
h-100v80h-33v-113h166v113zM333 98h-166v-113h166v113zM300 65v-47h-100v47h100zM333 -38h-166v-33h70l-70 -47v-33h166v33h-102l70 47h32v33z" />
    <glyph glyph-name="i.loclTRK" horiz-adv-x="243" 
d="M125 530q-39 0 -65 24t-26 67q0 41 26 65.5t65 24.5t65 -24t26 -66q0 -43 -25.5 -67t-65.5 -24zM40 0v480h164v-480h-164z" />
    <glyph glyph-name="a.ss01" horiz-adv-x="501" 
d="M194 -14q-90 0 -130 72t-40 182t40 182t130 72q81 0 120 -62v48h148v-480h-148v48q-39 -62 -120 -62zM243 127q36 0 55 37v152q-19 37 -55 37q-31 0 -44.5 -28t-13.5 -85t13.5 -85t44.5 -28z" />
    <glyph glyph-name="aacute.ss01" horiz-adv-x="501" 
d="M157 536l83 153h175l-108 -153h-150zM194 -14q-90 0 -130 72t-40 182t40 182t130 72q81 0 120 -62v48h148v-480h-148v48q-39 -62 -120 -62zM243 127q36 0 55 37v152q-19 37 -55 37q-31 0 -44.5 -28t-13.5 -85t13.5 -85t44.5 -28z" />
    <glyph glyph-name="abreve.ss01" horiz-adv-x="501" 
d="M252 531q-82 0 -145 35v117q61 -31 145 -31q85 0 144 31v-117q-63 -35 -144 -35zM194 -14q-90 0 -130 72t-40 182t40 182t130 72q81 0 120 -62v48h148v-480h-148v48q-39 -62 -120 -62zM243 127q36 0 55 37v152q-19 37 -55 37q-31 0 -44.5 -28t-13.5 -85t13.5 -85
t44.5 -28z" />
    <glyph glyph-name="acircumflex.ss01" horiz-adv-x="501" 
d="M329 689l101 -156h-138l-40 58l-40 -58h-139l101 156h155zM194 -14q-90 0 -130 72t-40 182t40 182t130 72q81 0 120 -62v48h148v-480h-148v48q-39 -62 -120 -62zM243 127q36 0 55 37v152q-19 37 -55 37q-31 0 -44.5 -28t-13.5 -85t13.5 -85t44.5 -28z" />
    <glyph glyph-name="adieresis.ss01" horiz-adv-x="501" 
d="M150 530q-34 0 -58.5 24t-24.5 59t24.5 59t58.5 24t58.5 -24t24.5 -59t-24.5 -59t-58.5 -24zM353 530q-35 0 -59 24t-24 59t24 59t59 24t59 -24t24 -59t-24 -59t-59 -24zM194 -14q-90 0 -130 72t-40 182t40 182t130 72q81 0 120 -62v48h148v-480h-148v48
q-39 -62 -120 -62zM243 127q36 0 55 37v152q-19 37 -55 37q-31 0 -44.5 -28t-13.5 -85t13.5 -85t44.5 -28z" />
    <glyph glyph-name="agrave.ss01" horiz-adv-x="501" 
d="M197 536l-108 153h175l84 -153h-151zM194 -14q-90 0 -130 72t-40 182t40 182t130 72q81 0 120 -62v48h148v-480h-148v48q-39 -62 -120 -62zM243 127q36 0 55 37v152q-19 37 -55 37q-31 0 -44.5 -28t-13.5 -85t13.5 -85t44.5 -28z" />
    <glyph glyph-name="amacron.ss01" horiz-adv-x="501" 
d="M403 673v-127h-302v127h302zM194 -14q-90 0 -130 72t-40 182t40 182t130 72q81 0 120 -62v48h148v-480h-148v48q-39 -62 -120 -62zM243 127q36 0 55 37v152q-19 37 -55 37q-31 0 -44.5 -28t-13.5 -85t13.5 -85t44.5 -28z" />
    <glyph glyph-name="aogonek.ss01" horiz-adv-x="501" 
d="M382 -233q-61 0 -91 26.5t-30 68.5q0 73 71 141l-18 3v42q-39 -62 -120 -62q-90 0 -130 72t-40 182t40 182t130 72q81 0 120 -62v48h148v-480q-55 -51 -55 -88q0 -31 28 -31q13 0 27 7v-105q-31 -16 -80 -16zM243 127q36 0 55 37v152q-19 37 -55 37q-31 0 -44.5 -28
t-13.5 -85t13.5 -85t44.5 -28z" />
    <glyph glyph-name="aring.ss01" horiz-adv-x="501" 
d="M252 516q-57 0 -94 34t-37 92t37 91.5t94 33.5q58 0 94.5 -33.5t36.5 -91.5q0 -59 -36.5 -92.5t-94.5 -33.5zM252 607q32 0 32 35q0 34 -32 34t-32 -34q0 -35 32 -35zM194 -14q-90 0 -130 72t-40 182t40 182t130 72q81 0 120 -62v48h148v-480h-148v48q-39 -62 -120 -62z
M243 127q36 0 55 37v152q-19 37 -55 37q-31 0 -44.5 -28t-13.5 -85t13.5 -85t44.5 -28z" />
    <glyph glyph-name="atilde.ss01" horiz-adv-x="501" 
d="M323 525q-33 0 -72.5 19t-52.5 19q-22 0 -24 -32h-81q-19 73 6 115.5t78 42.5q34 0 73.5 -18.5t52.5 -18.5q4 0 7.5 1t5.5 2t4 3.5t3 4t2 5t1.5 5.5l1.5 6t1 5h80q18 -73 -7 -116t-79 -43zM194 -14q-90 0 -130 72t-40 182t40 182t130 72q81 0 120 -62v48h148v-480h-148
v48q-39 -62 -120 -62zM243 127q36 0 55 37v152q-19 37 -55 37q-31 0 -44.5 -28t-13.5 -85t13.5 -85t44.5 -28z" />
    <glyph glyph-name="ae.ss01" horiz-adv-x="748" 
d="M191 -14q-88 0 -127.5 72t-39.5 182t39.5 182t127.5 72q45 0 76 -18.5t46 -46.5v51h130v-52q40 66 120 66q86 0 129.5 -78.5t31.5 -224.5h-256q20 -78 118 -78q55 0 111 21v-122q-55 -26 -108 -26q-103 0 -146 70v-56h-130v51q-37 -65 -122 -65zM462 276h114
q-3 85 -53 85q-54 0 -61 -85zM240 127q37 0 56 38v150q-19 38 -56 38q-55 0 -55 -113t55 -113z" />
    <glyph glyph-name="y.ss01" 
d="M206 -234q-94 0 -152 26v136q55 -21 127 -21q111 0 111 87v33q-44 -41 -112 -41q-57 0 -100.5 39.5t-43.5 110.5v344h164v-303q0 -39 38 -39q33 0 54 34v308h164v-486q0 -107 -64 -167.5t-186 -60.5z" />
    <glyph glyph-name="yacute.ss01" 
d="M152 536l83 153h175l-108 -153h-150zM206 -234q-94 0 -152 26v136q55 -21 127 -21q111 0 111 87v33q-44 -41 -112 -41q-57 0 -100.5 39.5t-43.5 110.5v344h164v-303q0 -39 38 -39q33 0 54 34v308h164v-486q0 -107 -64 -167.5t-186 -60.5z" />
    <glyph glyph-name="ycircumflex.ss01" 
d="M324 689l101 -156h-138l-40 58l-40 -58h-139l101 156h155zM206 -234q-94 0 -152 26v136q55 -21 127 -21q111 0 111 87v33q-44 -41 -112 -41q-57 0 -100.5 39.5t-43.5 110.5v344h164v-303q0 -39 38 -39q33 0 54 34v308h164v-486q0 -107 -64 -167.5t-186 -60.5z" />
    <glyph glyph-name="ydieresis.ss01" 
d="M145 530q-35 0 -59 24t-24 59t24 59t59 24t59 -24t24 -59t-24 -59t-59 -24zM348 530q-34 0 -58.5 24t-24.5 59t24.5 59t58.5 24t58.5 -24t24.5 -59t-24.5 -59t-58.5 -24zM206 -234q-94 0 -152 26v136q55 -21 127 -21q111 0 111 87v33q-44 -41 -112 -41q-57 0 -100.5 39.5
t-43.5 110.5v344h164v-303q0 -39 38 -39q33 0 54 34v308h164v-486q0 -107 -64 -167.5t-186 -60.5z" />
    <glyph glyph-name="ygrave.ss01" 
d="M192 536l-108 153h175l84 -153h-151zM206 -234q-94 0 -152 26v136q55 -21 127 -21q111 0 111 87v33q-44 -41 -112 -41q-57 0 -100.5 39.5t-43.5 110.5v344h164v-303q0 -39 38 -39q33 0 54 34v308h164v-486q0 -107 -64 -167.5t-186 -60.5z" />
    <glyph glyph-name="f_b" horiz-adv-x="826" 
d="M636 494q84 0 125 -68t41 -186q0 -52 -8.5 -95t-27.5 -80t-53.5 -58t-81.5 -21q-80 0 -119 62v-48h-148v559q-28 14 -60 14q-64 0 -64 -53v-40h68v-137h-68v-343h-164v343h-59v137h59v53q0 93 57 137t135 44q67 0 122 -23l13 3l125 20v-267q43 47 108 47zM583 127
q31 0 44.5 28t13.5 85t-13.5 85t-44.5 28q-35 0 -55 -37v-152q19 -37 55 -37z" />
    <glyph glyph-name="f_f_b" horiz-adv-x="1114" 
d="M924 494q84 0 125 -68t41 -186q0 -52 -8.5 -95t-27.5 -80t-53.5 -58t-81.5 -21q-80 0 -119 62v-48h-148v566q-28 14 -60 14q-64 0 -64 -53v-47h68v-137h-68v-343h-164v343h-124v-343h-164v343h-59v137h59v49q0 97 52.5 139.5t126.5 42.5q40 0 77 -16v-134q-19 9 -42 9
q-50 0 -50 -47v-43h124v60q0 93 57 137t135 44q74 0 133 -28l127 21v-267q43 47 108 47zM871 127q31 0 44.5 28t13.5 85t-13.5 85t-44.5 28q-35 0 -55 -37v-152q19 -37 55 -37z" />
    <glyph glyph-name="f_f_h" horiz-adv-x="1108" 
d="M928 494q58 0 101 -39.5t43 -110.5v-344h-164v303q0 39 -37 39q-34 0 -55 -34v-308h-164v566q-28 14 -60 14q-64 0 -64 -53v-47h68v-137h-68v-343h-164v343h-124v-343h-164v343h-59v137h59v49q0 97 52.5 139.5t126.5 42.5q40 0 77 -16v-134q-19 9 -42 9q-50 0 -50 -47
v-43h124v60q0 93 57 137t135 44q74 0 133 -28l127 21v-261q44 41 112 41z" />
    <glyph glyph-name="f_f_j" horiz-adv-x="849" 
d="M809 480v-547q0 -84 -46 -125.5t-119 -41.5q-51 0 -83 13v133q18 -5 35 -5q49 0 49 52v384h-117v-343h-164v343h-124v-343h-164v343h-59v137h59v49q0 97 52.5 139.5t126.5 42.5q40 0 77 -16v-134q-19 9 -42 9q-50 0 -50 -47v-43h124v56q0 89 60.5 137t153.5 48
q87 0 157 -31v-136q-60 26 -117 26q-90 0 -90 -61v-39h281z" />
    <glyph glyph-name="f_f_k" horiz-adv-x="1108" 
d="M986 241l127 -241h-183l-79 168h-35v-168h-164v566q-28 14 -60 14q-64 0 -64 -53v-47h68v-137h-68v-343h-164v343h-124v-343h-164v343h-59v137h59v49q0 97 52.5 139.5t126.5 42.5q40 0 77 -16v-134q-19 9 -42 9q-50 0 -50 -47v-43h124v60q0 93 57 137t135 44
q74 0 133 -28l14 2l113 19v-405h36l74 171h182z" />
    <glyph glyph-name="f_h" horiz-adv-x="820" 
d="M640 494q58 0 101 -39.5t43 -110.5v-344h-164v303q0 39 -37 39q-34 0 -55 -34v-308h-164v559q-28 14 -60 14q-64 0 -64 -53v-40h68v-137h-68v-343h-164v343h-59v137h59v53q0 93 57 137t135 44q67 0 122 -23l138 23v-261q44 41 112 41z" />
    <glyph glyph-name="f_j" horiz-adv-x="561" 
d="M521 480v-547q0 -84 -46 -125.5t-119 -41.5q-51 0 -83 13v133q18 -5 35 -5q49 0 49 52v384h-117v-343h-164v343h-59v137h59v49q0 89 60.5 137t153.5 48q87 0 157 -31v-136q-60 26 -117 26q-90 0 -90 -61v-32h281z" />
    <glyph glyph-name="f_k" horiz-adv-x="819" 
d="M698 241l127 -241h-183l-79 168h-35v-168h-164v559q-28 14 -60 14q-64 0 -64 -53v-40h68v-137h-68v-343h-164v343h-59v137h59v53q0 93 57 137t135 44q67 0 122 -23l138 23v-405h36l74 171h182z" />
    <glyph glyph-name="uni0414.loclBGR" horiz-adv-x="677" 
d="M15 -151v315h62l167 536h189l167 -536h62v-315h-171v151h-305v-151h-171zM250 164h178l-89 344z" />
    <glyph glyph-name="uni041B.loclBGR" horiz-adv-x="597" 
d="M204 700h189l204 -700h-184l-89 367q-15 67 -25 151q-12 -90 -26 -151l-89 -367h-184z" />
    <glyph glyph-name="uni0424.loclBGR" horiz-adv-x="789" 
d="M310 -93v91q-129 20 -209 110t-80 242t80 241.5t209 109.5v92h172v-92q127 -21 206.5 -110t79.5 -241q0 -151 -79.5 -240.5t-206.5 -111.5v-91h-172zM313 159v383q-119 -17 -119 -192q0 -174 119 -191zM479 159q116 22 116 191q0 170 -116 191v-382z" />
    <glyph glyph-name="uni0432.loclBGR" 
d="M365 379q52 -19 80.5 -65.5t28.5 -111.5q0 -96 -58.5 -156t-158.5 -60q-108 0 -165 61t-58 181l-1 243q0 107 53 175t166 68q84 0 138.5 -49.5t54.5 -129.5q0 -101 -80 -156zM194 498l1 -82l23 6q73 16 73 92q0 59 -44 59q-53 0 -53 -75zM255 127q58 0 58 86
q0 104 -88 80l-30 -8v-69q0 -89 60 -89z" />
    <glyph glyph-name="uni0433.loclBGR" horiz-adv-x="417" 
d="M209 -14q-79 -1 -134.5 37.5t-55.5 116.5q0 51 21.5 84t52 47t61 22t52 18t21.5 27q0 30 -55 30q-61 0 -123 -34v130q69 30 150 30q94 0 143.5 -41t49.5 -112q0 -50 -21.5 -83t-52 -46.5t-61.5 -21.5t-52.5 -17.5t-21.5 -25.5q0 -28 60 -28q81 0 143 39v-137
q-66 -34 -177 -35z" />
    <glyph glyph-name="uni0434.loclBGR" horiz-adv-x="501" 
d="M212 -234q-91 0 -149 26v136q55 -21 124 -21q111 0 111 87v39q-43 -47 -108 -47q-84 0 -125 68t-41 186q0 110 40 182t130 72q81 0 120 -62v48h148v-486q0 -107 -64 -167.5t-186 -60.5zM243 127q35 0 55 37v152q-19 37 -55 37q-31 0 -44.5 -28t-13.5 -85t13.5 -85
t44.5 -28z" />
    <glyph glyph-name="uni0436.loclBGR" horiz-adv-x="729" 
d="M2 0l120 234l-115 246h182l61 -171h33v391h164v-391h33l61 171h182l-116 -246l121 -234h-184l-65 168h-32v-168h-164v168h-33l-65 -168h-183z" />
    <glyph glyph-name="uni0438.loclBGR" 
d="M456 480v-480h-148v44q-48 -58 -128 -58q-57 0 -100.5 39.5t-43.5 110.5v344h164v-303q0 -39 38 -39q33 0 54 34v308h164z" />
    <glyph glyph-name="uni0439.loclBGR" 
d="M246 525q-82 0 -148 37v122q65 -34 148 -34t148 34v-122q-66 -37 -148 -37zM456 480v-480h-148v44q-48 -58 -128 -58q-57 0 -100.5 39.5t-43.5 110.5v344h164v-303q0 -39 38 -39q33 0 54 34v308h164z" />
    <glyph glyph-name="uni043A.loclBGR" horiz-adv-x="494" 
d="M39 0v700h164v-391h36l74 171h182l-122 -239l127 -241h-183l-79 168h-35v-168h-164z" />
    <glyph glyph-name="uni043B.loclBGR" horiz-adv-x="498" 
d="M167 480h165l164 -480h-180l-49 213q-12 56 -18 118q-7 -70 -17 -118l-49 -213h-181z" />
    <glyph glyph-name="uni043F.loclBGR" 
d="M39 0v480h148v-43q48 57 128 57q58 0 101 -39.5t43 -110.5v-344h-164v303q0 39 -38 39q-33 0 -54 -34v-308h-164z" />
    <glyph glyph-name="uni0442.loclBGR" horiz-adv-x="726" 
d="M549 494q69 0 105 -42.5t36 -108.5v-343h-160v303q0 39 -35 39q-28 0 -50 -30v-312h-161v303q0 39 -34 39q-28 0 -50 -31v-311h-161v480h148v-43q44 57 122 57q73 0 111 -56q52 56 129 56z" />
    <glyph glyph-name="uni0446.loclBGR" horiz-adv-x="529" 
d="M357 -127v119q-37 11 -54 44q-48 -50 -123 -50q-60 0 -102 39.5t-42 110.5v344h164v-303q0 -39 38 -39q33 0 54 34v308h164v-333q0 -31 33 -31h23v-243h-155z" />
    <glyph glyph-name="uni0448.loclBGR" horiz-adv-x="726" 
d="M177 -14q-69 0 -105 42.5t-36 108.5v343h161v-303q0 -39 34 -39q28 0 50 30v312h161v-303q0 -39 34 -39q30 0 50 31v311h161v-480h-148v44q-43 -58 -122 -58q-74 0 -110 56q-53 -56 -130 -56z" />
    <glyph glyph-name="uni0449.loclBGR" horiz-adv-x="759" 
d="M588 -127v119q-39 10 -55 44q-45 -50 -115 -50q-75 0 -111 56q-53 -56 -130 -56q-69 0 -105 42.5t-36 108.5v343h161v-303q0 -39 35 -39q28 0 50 30q-1 8 -1 23v289h161v-303q0 -39 34 -39q29 0 51 31v311h160v-332q0 -32 33 -32h23v-243h-155z" />
    <glyph glyph-name="uni044E.loclBGR" horiz-adv-x="703" 
d="M456 494q107 0 165.5 -68t58.5 -186t-58.5 -186t-165.5 -68q-86 0 -140 48t-70 135h-43v-169h-164v700h164v-389h43q16 87 70 135t140 48zM456 127q32 0 46 27t14 86t-14 86.5t-46 27.5t-46 -27.5t-14 -86.5t14 -86t46 -27z" />
    <glyph glyph-name="uni0430.ss01" horiz-adv-x="501" 
d="M194 -14q-90 0 -130 72t-40 182t40 182t130 72q81 0 120 -62v48h148v-480h-148v48q-39 -62 -120 -62zM243 127q36 0 55 37v152q-19 37 -55 37q-31 0 -44.5 -28t-13.5 -85t13.5 -85t44.5 -28z" />
    <glyph glyph-name="uni0437.ss01" horiz-adv-x="393" 
d="M151 -234q-75 0 -136 26v140q53 -25 102 -25q46 0 74 24t28 67q0 44 -25 66.5t-69 12.5l-40 -9v134l45 11q61 13 61 73q0 31 -20 48.5t-53 17.5q-51 0 -98 -25v142q63 25 138 25q84 0 140.5 -47t56.5 -132q0 -100 -87 -150q55 -19 85 -66t30 -115q0 -98 -65.5 -158
t-166.5 -60z" />
    <glyph glyph-name="uni0443.ss01" 
d="M206 -234q-94 0 -152 26v136q55 -21 127 -21q111 0 111 87v33q-44 -41 -112 -41q-57 0 -100.5 39.5t-43.5 110.5v344h164v-303q0 -39 38 -39q33 0 54 34v308h164v-486q0 -107 -64 -167.5t-186 -60.5z" />
    <glyph glyph-name="zero.osf" horiz-adv-x="568" 
d="M284 -14q-125 0 -192 77.5t-67 196.5t67 196.5t192 77.5t191.5 -77.5t66.5 -196.5t-66.5 -196.5t-191.5 -77.5zM284 157q79 0 79 103t-79 103t-79 -103t79 -103z" />
    <glyph glyph-name="one.osf" horiz-adv-x="425" 
d="M37 0v164h104v172l-107 -46v167l145 63h134v-356h95v-164h-371z" />
    <glyph glyph-name="two.osf" horiz-adv-x="492" 
d="M27 0v89q0 39 12 69.5t37.5 52.5t45.5 33.5t53 27.5q6 3 17 7.5t17 7.5t15.5 7.5t14.5 7.5t12 7t11 7.5t7.5 8t5 9t1.5 9.5q0 38 -66 38q-80 0 -164 -53v158q101 48 206 48q89 0 148 -44.5t59 -124.5q0 -85 -88 -142q-25 -16 -60.5 -30t-56 -22.5t-20.5 -17.5l226 1v-154
h-433z" />
    <glyph glyph-name="three.osf" horiz-adv-x="476" 
d="M204 -174q-94 0 -174 28v167q67 -24 146 -24q48 0 75 16.5t27 46.5q0 53 -64 53h-96v153h78q27 -1 44 13t17 38q0 54 -77 54q-76 0 -148 -32v161q79 34 175 34q95 0 158 -49t63 -138q0 -50 -21 -89t-58 -59q46 -18 76.5 -60t30.5 -109q0 -69 -37.5 -116.5t-92.5 -67.5
t-122 -20z" />
    <glyph glyph-name="four.osf" horiz-adv-x="548" 
d="M303 -160v101h-290v145l284 434h165v-423h69v-159h-67v-98h-161zM179 90h126v193z" />
    <glyph glyph-name="five.osf" horiz-adv-x="477" 
d="M203 -175q-97 0 -176 23v164q65 -23 152 -23q101 0 101 71q0 69 -114 69q-65 0 -124 -14l22 405h365v-160h-203l-5 -93q34 1 77 -8q74 -13 118 -62.5t44 -136.5q0 -79 -39.5 -134t-96 -78t-121.5 -23z" />
    <glyph glyph-name="six.osf" horiz-adv-x="538" 
d="M323 437q85 2 141 -54.5t56 -161.5q0 -110 -63.5 -172.5t-161.5 -62.5q-136 0 -201.5 91t-65.5 242q0 189 83.5 282t211.5 93q79 0 151 -33v-157q-57 27 -118 27q-115 0 -141 -120q46 26 108 26zM288 146q33 0 49.5 21.5t16.5 55.5q0 76 -67 76q-41 0 -81 -26
q5 -66 24.5 -96.5t57.5 -30.5z" />
    <glyph glyph-name="seven.osf" horiz-adv-x="454" 
d="M441 520v-124l-180 -556h-183l170 516h-236v164h429z" />
    <glyph glyph-name="eight.osf" horiz-adv-x="555" 
d="M277 -14q-124 0 -188 58t-64 141q0 104 94 174q-72 58 -72 148q0 77 59.5 132t170.5 55t170.5 -54.5t59.5 -134.5t-75 -152q96 -59 96 -168q0 -82 -63 -140.5t-188 -58.5zM308 408q35 37 35 74q0 27 -16.5 43t-49.5 16q-31 0 -48 -14t-17 -37q0 -28 24 -45.5t72 -36.5z
M277 139q37 0 56.5 15.5t19.5 43.5q0 20 -17.5 37.5t-34.5 26.5t-55 26q-45 -42 -45 -84q0 -29 20 -47t56 -18z" />
    <glyph glyph-name="nine.osf" horiz-adv-x="531" 
d="M215 -174q-79 0 -151 33v157q57 -27 118 -27q113 0 138 120q-46 -26 -108 -26q-85 -2 -140.5 54.5t-55.5 161.5q0 110 63.5 172.5t161.5 62.5q92 0 153 -45t87 -117.5t26 -170.5q0 -189 -83 -282t-209 -93zM248 221q43 0 81 26q-5 66 -24 96.5t-58 30.5
q-33 0 -49.5 -21.5t-16.5 -55.5q0 -76 67 -76z" />
    <glyph glyph-name="zero.sinf" horiz-adv-x="382" 
d="M191 -128q-86 0 -128 58.5t-42 155.5q0 98 42 156t128 58t128 -58t42 -156q0 -97 -42 -155.5t-128 -58.5zM191 -10q22 0 33 21t11 75t-11 75t-33 21t-33 -21t-11 -75t11 -75t33 -21z" />
    <glyph glyph-name="one.sinf" horiz-adv-x="288" 
d="M23 -114v118h66v154l-59 -23v115l90 36h94v-282h61v-118h-252z" />
    <glyph glyph-name="two.sinf" horiz-adv-x="328" 
d="M163 300q61 0 101 -33t40 -98q0 -51 -45 -98q-14 -15 -36.5 -30t-37 -24.5t-15.5 -16.5h134v-114h-283l1 83q0 18 8 35.5t14.5 27.5t27 27t25 20.5t29.5 21.5q19 15 27.5 21.5t16.5 17t8 19.5q0 27 -35 27q-51 0 -110 -36v118q60 32 130 32z" />
    <glyph glyph-name="three.sinf" horiz-adv-x="328" 
d="M135 -128q-64 0 -111 18v107q45 -15 92 -15q68 0 68 34q0 28 -45 28h-51v93h40q44 0 44 27q0 30 -54 30q-44 0 -93 -20v104q52 22 116 22q69 0 110.5 -29.5t41.5 -84.5q0 -62 -48 -89q64 -26 64 -102q0 -63 -48.5 -93t-125.5 -30z" />
    <glyph glyph-name="four.sinf" horiz-adv-x="375" 
d="M198 -114v56h-184v93l171 251h130v-245h42v-101h-42v-54h-117zM127 38h75v106z" />
    <glyph glyph-name="five.sinf" horiz-adv-x="324" 
d="M129 -128q-62 0 -107 16v106q38 -15 92 -15q66 0 66 41q0 39 -75 39q-41 0 -72 -8l13 235h242v-112h-125l-3 -38q21 1 46 -4q46 -7 73 -36.5t27 -80.5q0 -72 -50.5 -107.5t-126.5 -35.5z" />
    <glyph glyph-name="six.sinf" horiz-adv-x="363" 
d="M219 140q58 0 93 -34t35 -92q0 -66 -42 -104t-112 -38q-89 0 -131 53.5t-42 148.5q0 112 56 169t136 57q59 0 106 -20v-104q-35 16 -78 16q-39 0 -59.5 -15.5t-28.5 -49.5q29 13 67 13zM190 -26q38 0 38 42q0 40 -38 40q-24 0 -43 -12q1 -38 11.5 -54t31.5 -16z" />
    <glyph glyph-name="seven.sinf" horiz-adv-x="304" 
d="M44 -114l105 282h-135v118h279v-80l-118 -320h-131z" />
    <glyph glyph-name="eight.sinf" horiz-adv-x="362" 
d="M181 -128q-82 0 -122 34.5t-40 86.5q0 62 55 104q-42 35 -42 89q0 48 38 81t111 33q74 0 111.5 -33t37.5 -82q0 -51 -45 -91q57 -35 57 -100q0 -51 -40 -86.5t-121 -35.5zM198 133q16 18 16 38q0 32 -34 32q-15 0 -23.5 -7.5t-8.5 -18.5q0 -26 50 -44zM182 -31
q38 0 38 31q0 10 -9.5 19.5t-19 14.5t-29.5 14q-20 -22 -20 -45q0 -34 40 -34z" />
    <glyph glyph-name="nine.sinf" horiz-adv-x="364" 
d="M152 -128q-60 0 -107 20v103q33 -15 79 -15q38 0 58.5 15.5t28.5 49.5q-31 -14 -67 -14q-58 0 -93 35t-35 93q0 66 41.5 103.5t112.5 37.5q88 0 130.5 -55t42.5 -146q0 -113 -55.5 -170t-135.5 -57zM174 117q22 0 42 12q-5 69 -44 69q-37 0 -37 -40q0 -41 39 -41z" />
    <glyph glyph-name="zero.tf" horiz-adv-x="562" 
d="M281 -14q-131 0 -196 91.5t-65 262.5t65 262.5t196 91.5t196.5 -91.5t65.5 -262.5t-65.5 -262.5t-196.5 -91.5zM281 157q44 0 63 44.5t19 138.5t-19 138.5t-63 44.5t-63 -44.5t-19 -138.5t19 -138.5t63 -44.5z" />
    <glyph glyph-name="one.tf" horiz-adv-x="562" 
d="M35 0v164h172v331l-132 -56v174l159 67h145v-516h159v-164h-503z" />
    <glyph glyph-name="two.tf" horiz-adv-x="562" 
d="M280 694q108 0 172.5 -58.5t64.5 -156.5q0 -65 -29 -111t-80 -86q-27 -22 -68.5 -46.5t-63 -40.5t-24.5 -31h266v-164h-480v117q0 44 14.5 80t47 67t55.5 47.5t68 44.5q59 36 86.5 61t27.5 54q0 25 -19.5 40.5t-58.5 15.5q-97 0 -202 -64v173q106 58 223 58z" />
    <glyph glyph-name="three.tf" horiz-adv-x="562" 
d="M241 -14q-114 0 -194 37v167q69 -33 172 -33q127 0 127 62q0 30 -20 42t-68 12h-120v153h104q45 0 64 12t19 38q0 55 -101 55q-92 0 -177 -41v160q88 44 202 44q113 0 180.5 -48.5t67.5 -139.5q0 -105 -80 -147q47 -18 77 -60t30 -110q0 -103 -79 -153t-204 -50z" />
    <glyph glyph-name="four.tf" horiz-adv-x="562" 
d="M310 0v101h-292v145l289 434h163v-423h68v-159h-67v-98h-161zM184 250h128v192z" />
    <glyph glyph-name="five.tf" horiz-adv-x="562" 
d="M236 -14q-107 0 -183 22v164q69 -23 159 -23q68 0 98 17.5t30 54.5q0 69 -141 69q-72 0 -131 -14l22 404h399v-160h-237l-5 -92q52 3 94 -6q88 -13 133.5 -65.5t45.5 -136.5q0 -117 -81 -175.5t-203 -58.5z" />
    <glyph glyph-name="six.tf" horiz-adv-x="562" 
d="M333 437q84 2 141 -54.5t57 -161.5q0 -110 -65.5 -172.5t-163.5 -62.5q-134 0 -197.5 91t-63.5 242q0 97 23.5 171t65 117.5t92 65t108.5 21.5q78 0 150 -33v-157q-57 27 -117 27q-55 0 -86.5 -29t-44.5 -88q44 23 101 23zM296 146q32 0 49 22t17 55q0 76 -66 76
q-36 0 -75 -24q4 -68 21.5 -98.5t53.5 -30.5z" />
    <glyph glyph-name="seven.tf" horiz-adv-x="562" 
d="M531 680v-124l-231 -556h-183l215 516h-301v164h500z" />
    <glyph glyph-name="eight.tf" horiz-adv-x="562" 
d="M281 -14q-124 0 -187.5 58t-63.5 141q0 105 93 174q-72 58 -72 148q0 77 59.5 132t170.5 55t170.5 -54.5t59.5 -134.5t-75 -152q97 -59 97 -168q0 -82 -63.5 -140.5t-188.5 -58.5zM312 408q36 38 36 74q0 27 -17 43t-50 16q-31 0 -48 -14t-17 -37q0 -28 24 -45.5
t72 -36.5zM281 139q37 0 56.5 15.5t19.5 43.5q0 20 -17.5 37.5t-34.5 26.5t-55 26q-45 -43 -45 -84q0 -29 20 -47t56 -18z" />
    <glyph glyph-name="nine.tf" horiz-adv-x="562" 
d="M232 -14q-78 0 -150 34v156q60 -27 117 -27q55 0 86.5 29t44.5 88q-44 -23 -100 -23q-85 -2 -142 54.5t-57 161.5q0 109 65.5 172t163.5 63q134 0 197.5 -91t63.5 -242q0 -188 -83 -281.5t-206 -93.5zM266 381q36 0 75 24q-4 68 -21.5 98.5t-52.5 30.5q-33 0 -50 -21.5
t-17 -55.5q0 -76 66 -76z" />
    <glyph glyph-name="zero.tosf" horiz-adv-x="562" 
d="M281 -14q-127 0 -194 77.5t-67 196.5t67 196.5t194 77.5t194.5 -77.5t67.5 -196.5t-67.5 -196.5t-194.5 -77.5zM281 157q82 0 82 103t-82 103t-82 -103t82 -103z" />
    <glyph glyph-name="one.tosf" horiz-adv-x="562" 
d="M33 0v164h172v171l-132 -56v174l159 67h146v-356h158v-164h-503z" />
    <glyph glyph-name="two.tosf" horiz-adv-x="562" 
d="M40 1v89q0 40 15.5 72t45 55t56.5 37.5t64 28.5q14 5 38 14t33.5 12.5t22 10.5t17 13.5t4.5 14.5q0 34 -70 34q-103 0 -211 -54v159q115 48 225 48q106 0 172.5 -45.5t66.5 -127.5q0 -93 -109 -144q-27 -12 -68 -25.5t-61 -22.5t-20 -20l259 1v-150h-480z" />
    <glyph glyph-name="three.tosf" horiz-adv-x="562" 
d="M242 -174q-113 0 -194 37v167q69 -33 173 -33q126 0 126 62q0 30 -20 42t-67 12h-121v153h105q83 0 83 50q0 55 -102 55q-92 0 -177 -41v160q88 44 203 44q113 0 180 -48.5t67 -139.5q0 -106 -80 -147q47 -18 77 -60t30 -110q0 -103 -79 -153t-204 -50z" />
    <glyph glyph-name="four.tosf" horiz-adv-x="562" 
d="M311 -160v101h-293v145l290 434h162v-423h69v-159h-67v-98h-161zM184 90h129v192z" />
    <glyph glyph-name="five.tosf" horiz-adv-x="562" 
d="M235 -174q-107 0 -183 22v164q69 -23 159 -23q68 0 98 17.5t30 54.5q0 69 -141 69q-72 0 -131 -14l22 404h399v-160h-237l-5 -92q52 3 94 -6q88 -13 133.5 -65.5t45.5 -136.5q0 -117 -81 -175.5t-203 -58.5z" />
    <glyph glyph-name="six.tosf" horiz-adv-x="562" 
d="M333 437q85 2 141.5 -54.5t56.5 -161.5q0 -109 -65 -172t-163 -63q-135 0 -198.5 91t-63.5 242q0 97 23.5 171t65 117.5t92 65t109.5 21.5q78 0 149 -33v-157q-55 27 -116 27q-56 0 -87.5 -29t-44.5 -88q46 23 101 23zM296 146q33 0 49.5 21.5t16.5 55.5q0 76 -65 76
q-36 0 -75 -24q3 -67 21 -98t53 -31z" />
    <glyph glyph-name="seven.tosf" horiz-adv-x="562" 
d="M531 520v-124l-231 -556h-183l215 516h-301v164h500z" />
    <glyph glyph-name="eight.tosf" horiz-adv-x="562" 
d="M281 -14q-124 0 -187.5 58t-63.5 141q0 105 93 174q-72 58 -72 148q0 77 59.5 132t170.5 55t170.5 -54.5t59.5 -134.5t-75 -152q97 -59 97 -168q0 -82 -63.5 -140.5t-188.5 -58.5zM312 408q36 38 36 74q0 27 -17 43t-50 16q-31 0 -48 -14t-17 -37q0 -28 24 -45.5
t72 -36.5zM281 139q37 0 56.5 15.5t19.5 43.5q0 20 -17.5 37.5t-34.5 26.5t-55 26q-45 -43 -45 -84q0 -29 20 -47t56 -18z" />
    <glyph glyph-name="nine.tosf" horiz-adv-x="562" 
d="M232 -174q-78 0 -150 33v157q57 -27 117 -27q55 0 86.5 29t44.5 88q-44 -23 -100 -23q-85 -2 -142 54.5t-57 161.5q0 109 65.5 172t163.5 63q134 0 197.5 -91t63.5 -242q0 -97 -23.5 -171t-65 -117.5t-92 -65t-108.5 -21.5zM266 221q36 0 75 24q-4 68 -21.5 98.5
t-52.5 30.5q-33 0 -50 -21.5t-17 -55.5q0 -76 66 -76z" />
    <glyph glyph-name="zero.dnom" horiz-adv-x="382" 
d="M191 -14q-85 0 -127.5 58.5t-42.5 155.5q0 98 42 156t128 58t128 -58t42 -156q0 -97 -42.5 -155.5t-127.5 -58.5zM191 104q22 0 33 21t11 75t-11 75t-33 21t-33 -21t-11 -75t11 -75t33 -21z" />
    <glyph glyph-name="one.dnom" horiz-adv-x="288" 
d="M23 0v118h66v154l-59 -23v115l90 36h94v-282h61v-118h-252z" />
    <glyph glyph-name="two.dnom" horiz-adv-x="328" 
d="M163 414q62 0 101.5 -33t39.5 -98q0 -51 -45 -98q-14 -15 -36.5 -30t-37 -24.5t-15.5 -16.5h134v-114h-283l1 83q0 18 8 35.5t14.5 27.5t27 27t25 20.5t29.5 21.5q19 15 27.5 21.5t16.5 17t8 19.5q0 27 -35 27q-51 0 -110 -36v118q60 32 130 32z" />
    <glyph glyph-name="three.dnom" horiz-adv-x="328" 
d="M135 -14q-64 0 -111 18v107q45 -15 92 -15q68 0 68 34q0 28 -45 28h-51v93h40q44 0 44 27q0 30 -54 30q-44 0 -93 -20v104q52 22 116 22q69 0 110.5 -29t41.5 -85q0 -62 -48 -89q64 -26 64 -102q0 -63 -48.5 -93t-125.5 -30z" />
    <glyph glyph-name="four.dnom" horiz-adv-x="375" 
d="M198 0v56h-184v93l171 251h130v-245h42v-101h-42v-54h-117zM127 152h75v106z" />
    <glyph glyph-name="five.dnom" horiz-adv-x="324" 
d="M129 -14q-62 0 -107 16v106q42 -15 92 -15q66 0 66 41q0 39 -75 39q-41 0 -72 -8l13 235h242v-112h-125l-3 -38q21 1 46 -4q46 -7 73 -36.5t27 -80.5q0 -72 -50.5 -107.5t-126.5 -35.5z" />
    <glyph glyph-name="six.dnom" horiz-adv-x="363" 
d="M219 254q58 0 93 -34t35 -92q0 -66 -42 -104t-112 -38q-89 0 -131 53.5t-42 148.5q0 112 56 169t136 57q59 0 106 -20v-104q-35 16 -78 16q-73 0 -88 -65q29 13 67 13zM190 88q38 0 38 42q0 40 -38 40q-24 0 -43 -12q1 -38 11.5 -54t31.5 -16z" />
    <glyph glyph-name="seven.dnom" horiz-adv-x="304" 
d="M44 0l105 282h-135v118h279v-80l-118 -320h-131z" />
    <glyph glyph-name="eight.dnom" horiz-adv-x="362" 
d="M181 -14q-82 0 -122 34.5t-40 86.5q0 62 55 104q-42 35 -42 89q0 48 38 81t111 33q74 0 111.5 -33t37.5 -82q0 -51 -45 -91q57 -35 57 -100q0 -51 -40 -86.5t-121 -35.5zM198 247q16 18 16 38q0 32 -34 32q-15 0 -23.5 -7.5t-8.5 -18.5q0 -26 50 -44zM182 83q38 0 38 31
q0 10 -9.5 19.5t-19 14.5t-29.5 14q-20 -22 -20 -45q0 -34 40 -34z" />
    <glyph glyph-name="nine.dnom" horiz-adv-x="364" 
d="M152 -14q-60 0 -107 20v103q36 -15 79 -15q38 0 58.5 15.5t28.5 49.5q-31 -14 -67 -14q-58 0 -93 35t-35 93q0 66 41.5 103.5t112.5 37.5q88 0 130.5 -55t42.5 -146q0 -113 -55.5 -170t-135.5 -57zM174 231q22 0 42 12q-5 69 -44 69q-37 0 -37 -40q0 -41 39 -41z" />
    <glyph glyph-name="zero.numr" horiz-adv-x="382" 
d="M191 286q-85 0 -127.5 58.5t-42.5 155.5q0 98 42 156t128 58t128 -58t42 -156q0 -97 -42.5 -155.5t-127.5 -58.5zM191 404q44 0 44 96q0 54 -11 75t-33 21t-33 -21t-11 -75q0 -96 44 -96z" />
    <glyph glyph-name="one.numr" horiz-adv-x="288" 
d="M23 300v118h66v154l-59 -23v115l90 36h94v-282h61v-118h-252z" />
    <glyph glyph-name="two.numr" horiz-adv-x="328" 
d="M163 714q61 0 101 -33t40 -98q0 -51 -45 -98q-14 -15 -36.5 -30t-37 -24.5t-15.5 -16.5h134v-114h-283l1 84q0 9 2 18t4.5 16t8 15.5t9 13.5t12 13.5l12 12t14 12t13.5 10.5t15 11t14 10q18 13 27 20.5t17 17.5t8 19q0 27 -35 27q-53 0 -110 -36v119q61 31 130 31z" />
    <glyph glyph-name="three.numr" horiz-adv-x="328" 
d="M135 286q-59 0 -110 18v107q45 -15 92 -15q68 0 68 35q0 27 -46 27h-50v93h40q43 0 43 27q0 31 -53 31q-40 0 -93 -20v103q52 22 116 22q69 0 110 -29t41 -85q0 -61 -47 -89q64 -27 64 -102q0 -63 -49.5 -93t-125.5 -30z" />
    <glyph glyph-name="four.numr" horiz-adv-x="375" 
d="M198 300v56h-184v94l171 250h130v-245h42v-101h-42v-54h-117zM127 452h75v106z" />
    <glyph glyph-name="five.numr" horiz-adv-x="324" 
d="M129 286q-58 0 -107 16v107q41 -16 92 -16q66 0 66 41q0 40 -75 40q-37 0 -72 -9l13 235h242v-112h-125l-3 -38q18 1 46 -3q46 -8 73 -37.5t27 -79.5q0 -72 -50.5 -108t-126.5 -36z" />
    <glyph glyph-name="six.numr" horiz-adv-x="363" 
d="M218 555q59 0 93.5 -34.5t34.5 -92.5q0 -66 -42 -104t-112 -38q-88 0 -130 54t-42 148q0 112 55.5 169t135.5 57q58 0 107 -20v-103q-34 15 -79 15q-73 0 -88 -65q33 14 67 14zM190 388q37 0 37 42q0 40 -38 40q-23 0 -42 -12q1 -38 11 -54t32 -16z" />
    <glyph glyph-name="seven.numr" horiz-adv-x="304" 
d="M44 300l105 282h-135v118h279v-80l-118 -320h-131z" />
    <glyph glyph-name="eight.numr" horiz-adv-x="362" 
d="M181 286q-82 0 -122 34.5t-40 87.5q0 61 55 103q-42 35 -42 89q0 48 38 81t111 33q74 0 111.5 -33t37.5 -82t-45 -91q57 -35 57 -100q0 -51 -40 -86.5t-121 -35.5zM198 547q16 18 16 38q0 33 -34 33q-32 0 -32 -27q0 -26 50 -44zM182 383q38 0 38 31q0 10 -9.5 19.5
t-18 14t-30.5 15.5q-20 -22 -20 -45q0 -35 40 -35z" />
    <glyph glyph-name="nine.numr" horiz-adv-x="364" 
d="M152 286q-59 0 -106 20v104q35 -16 78 -16q73 0 88 65q-29 -13 -67 -13q-58 0 -93 34.5t-35 92.5q0 66 41.5 103.5t111.5 37.5q89 0 131.5 -54.5t42.5 -145.5q0 -114 -56 -171t-136 -57zM174 531q24 0 43 12q-3 38 -14 53.5t-31 15.5q-36 0 -36 -40q0 -41 38 -41z" />
    <glyph glyph-name="zero.sups" horiz-adv-x="382" 
d="M191 400q-86 0 -128 58.5t-42 155.5t42 155.5t128 58.5t128 -58.5t42 -155.5t-42 -155.5t-128 -58.5zM191 518q22 0 33 21t11 75t-11 75t-33 21t-33 -21t-11 -75t11 -75t33 -21z" />
    <glyph glyph-name="one.sups" horiz-adv-x="288" 
d="M23 414v118h66v154l-59 -23v115l90 36h94v-282h61v-118h-252z" />
    <glyph glyph-name="two.sups" horiz-adv-x="328" 
d="M163 828q61 0 101 -33t40 -98q0 -51 -45 -98q-14 -16 -36.5 -31t-37 -24t-15.5 -16h134v-114h-283l1 83q0 10 2 19.5t6.5 18.5l8 16t12.5 15.5t13 13.5t15 14t15 11.5t17 12t15 11.5q19 15 27.5 21.5t16.5 17t8 19.5q0 27 -35 27q-51 0 -110 -36v118q62 32 130 32z" />
    <glyph glyph-name="three.sups" horiz-adv-x="328" 
d="M135 400q-63 0 -110 18v107q45 -15 92 -15q68 0 68 34q0 28 -46 28h-50v93h40q43 0 43 27q0 30 -53 30q-44 0 -93 -20v104q52 22 116 22q68 0 109.5 -29.5t41.5 -84.5q0 -61 -47 -89q64 -27 64 -102q0 -63 -49 -93t-126 -30z" />
    <glyph glyph-name="four.sups" horiz-adv-x="375" 
d="M198 414v56h-184v93l171 251h130v-245h42v-101h-42v-54h-117zM127 566h75v106z" />
    <glyph glyph-name="five.sups" horiz-adv-x="324" 
d="M129 400q-62 0 -107 16v106q38 -15 92 -15q66 0 66 41q0 39 -75 39q-41 0 -72 -8l13 235h242v-112h-125l-3 -38q27 0 46 -4q46 -7 73 -36.5t27 -80.5q0 -72 -50.5 -107.5t-126.5 -35.5z" />
    <glyph glyph-name="six.sups" horiz-adv-x="363" 
d="M218 668q59 0 93.5 -34t34.5 -92q0 -66 -42 -104t-112 -38q-89 0 -130.5 53.5t-41.5 148.5q0 112 55.5 169t135.5 57q58 0 107 -20v-104q-36 16 -79 16q-73 0 -88 -65q31 13 67 13zM190 502q37 0 37 41t-38 41q-23 0 -42 -12q1 -38 11 -54t32 -16z" />
    <glyph glyph-name="seven.sups" horiz-adv-x="304" 
d="M44 414l105 282h-135v118h279v-80l-118 -320h-131z" />
    <glyph glyph-name="eight.sups" horiz-adv-x="362" 
d="M181 400q-82 0 -122 34.5t-40 86.5q0 62 55 104q-42 35 -42 89q0 48 38 81t111 33q74 0 111.5 -33t37.5 -82q0 -51 -45 -91q57 -35 57 -100q0 -51 -40 -86.5t-121 -35.5zM198 660q16 18 16 39q0 32 -34 32q-15 0 -23.5 -7.5t-8.5 -18.5q0 -25 50 -45zM182 497q38 0 38 31
q0 10 -9.5 19.5t-19 14.5t-29.5 14q-20 -22 -20 -45q0 -34 40 -34z" />
    <glyph glyph-name="nine.sups" horiz-adv-x="364" 
d="M152 400q-59 0 -106 20v103q33 -15 78 -15q73 0 88 65q-28 -14 -67 -14q-58 0 -93 35t-35 93q0 66 41.5 103.5t111.5 37.5q89 0 131.5 -55t42.5 -146q0 -113 -56 -170t-136 -57zM174 645q24 0 43 12q-5 69 -45 69q-36 0 -36 -41q0 -40 38 -40z" />
    <glyph glyph-name="braceleft.case" horiz-adv-x="348" 
d="M323 -110q-106 -24 -171.5 16.5t-65.5 126.5v180q0 40 -17.5 51t-56.5 11v150q20 0 31 1.5t22.5 7.5t16 19t4.5 34v180q0 86 65.5 126.5t171.5 16.5v-150q-44 7 -61.5 -9t-17.5 -61v-130q0 -50 -25 -79t-55 -31q30 -2 55 -31t25 -79v-130q0 -45 17.5 -61t61.5 -9v-150z
" />
    <glyph glyph-name="braceright.case" horiz-adv-x="348" 
d="M25 -110v150q44 -7 61.5 9t17.5 61v130q0 50 25 79t55 31q-30 2 -55 31t-25 79v130q0 45 -17.5 61t-61.5 9v150q106 24 171.5 -16.5t65.5 -126.5v-180q0 -21 4.5 -34t16 -19t22.5 -7.5t31 -1.5v-150q-39 0 -56.5 -11t-17.5 -51v-180q0 -86 -65.5 -126.5t-171.5 -16.5z
" />
    <glyph glyph-name="bracketleft.case" horiz-adv-x="327" 
d="M58 -110v920h245v-150h-87v-620h87v-150h-245z" />
    <glyph glyph-name="bracketright.case" horiz-adv-x="327" 
d="M269 -110h-245v150h87v620h-87v150h245v-920z" />
    <glyph glyph-name="parenleft.case" horiz-adv-x="304" 
d="M300 810q-49 -96 -77 -217.5t-28 -242.5t28 -242.5t77 -217.5h-136q-61 89 -98.5 211t-37.5 249t37.5 249t98.5 211h136z" />
    <glyph glyph-name="parenright.case" horiz-adv-x="304" 
d="M4 810h135q61 -89 99 -211t38 -249t-38 -249t-99 -211h-135q49 97 77 218t28 242t-28 242t-77 218z" />
    <glyph glyph-name="emdash.case" horiz-adv-x="656" 
d="M42 279v142h572v-142h-572z" />
    <glyph glyph-name="endash.case" horiz-adv-x="459" 
d="M42 279v142h376v-142h-376z" />
    <glyph glyph-name="hyphen.case" horiz-adv-x="363" 
d="M321 421v-142h-279v142h279z" />
    <glyph glyph-name="guillemotleft.case" horiz-adv-x="532" 
d="M127 155l-102 182v26l102 182h159l-111 -195l111 -195h-159zM345 155l-102 182v26l102 182h159l-110 -195l110 -195h-159z" />
    <glyph glyph-name="guillemotright.case" horiz-adv-x="532" 
d="M186 155h-158l110 195l-110 195h158l103 -182v-26zM404 155h-158l110 195l-110 195h158l103 -182v-26z" />
    <glyph glyph-name="guilsinglleft.case" horiz-adv-x="313" 
d="M127 155l-102 182v26l102 182h159l-111 -195l111 -195h-159z" />
    <glyph glyph-name="guilsinglright.case" horiz-adv-x="313" 
d="M186 155h-158l110 195l-110 195h158l103 -182v-26z" />
    <glyph glyph-name="cent.tf" horiz-adv-x="562" 
d="M260 -120v114q-84 18 -134.5 79.5t-50.5 159.5q0 102 50.5 167.5t134.5 85.5v114h126v-110q41 -5 82 -24v-136q-50 26 -103 26q-55 0 -90 -29t-35 -87q0 -56 33.5 -84.5t86.5 -28.5q65 0 113 24v-137q-40 -19 -87 -24v-110h-126z" />
    <glyph glyph-name="currency.tf" horiz-adv-x="562" 
d="M134 100l-95 92l55 58q-22 46 -22 100t22 100l-56 58l97 92l55 -59q39 18 91 18t91 -18l56 58l97 -90l-57 -60q23 -46 23 -99q0 -52 -23 -100l56 -58l-95 -92l-57 59q-39 -18 -91 -18q-51 0 -90 18zM281 278q29 0 44.5 19.5t15.5 52.5t-15.5 52.5t-44.5 19.5t-44 -19.5
t-15 -52.5t15 -52.5t44 -19.5z" />
    <glyph glyph-name="dollar.tf" horiz-adv-x="562" 
d="M535 198q0 -88 -48 -138.5t-129 -66.5v-117h-147v114q-92 10 -166 48v175q99 -63 211 -63q99 0 99 51q0 25 -33 41.5t-80 30t-94 34t-80 65.5t-33 113q0 84 49 134.5t127 67.5v117h147v-116q72 -11 137 -50v-168q-101 64 -206 64q-78 0 -78 -49q0 -24 33.5 -41t81 -31.5
t95 -35.5t81 -66.5t33.5 -112.5z" />
    <glyph glyph-name="Euro.tf" horiz-adv-x="562" 
d="M401 156q65 0 132 30v-171q-66 -29 -152 -29q-117 0 -199 66t-107 186h-58v84h49v13q0 16 1 23h-50v84h62q27 114 108 183t192 69q82 0 149 -34v-167q-56 30 -120 30q-95 0 -133 -81h159v-84h-188v-19v-17h188v-84h-163q35 -82 130 -82z" />
    <glyph glyph-name="sterling.tf" horiz-adv-x="562" 
d="M252 164h281v-164h-507v164h19q52 0 52 71v41h-56v128h56v48q0 65 20.5 113.5t56.5 75.5t79 40t94 13q88 0 166 -38v-164q-70 39 -135 39q-102 0 -102 -99v-28h196v-128h-196v-41q0 -53 -24 -71z" />
    <glyph glyph-name="yen.tf" horiz-adv-x="562" 
d="M559 680l-155 -316h103v-98h-140v-45h140v-98h-140v-123h-172v123h-140v98h140v45h-140v98h103l-155 316h192l86 -241l86 241h192z" />
    </font>
</defs>
</svg>
